<svg xmlns="http://www.w3.org/2000/svg" xmlns:xlink="http://www.w3.org/1999/xlink" width="377" zoomAndPan="magnify" viewBox="0 0 283.5 283.500005" height="377" preserveAspectRatio="xMidYMid meet" version="1.0"><defs><clipPath id="0e3232cfab"><path d="M 0.121094 31.070312 L 283 31.070312 L 283 274.320312 L 0.121094 274.320312 Z M 0.121094 31.070312 " clip-rule="nonzero"/></clipPath><clipPath id="af40f2cba1"><path d="M 10 8 L 274 8 L 274 274.320312 L 10 274.320312 Z M 10 8 " clip-rule="nonzero"/></clipPath><clipPath id="644e47b991"><path d="M 0 270.648438 L 283 270.648438 L 283 283 L 0 283 Z M 0 270.648438 " clip-rule="nonzero"/></clipPath></defs><g clip-path="url(#0e3232cfab)"><path fill="#5dc691" d="M 283.304688 274.183594 L 0.738281 274.183594 C 0.738281 274.183594 -4.632812 234.570312 16.316406 222.535156 C 37.269531 210.496094 31.355469 161.253906 52.308594 150.644531 C 73.257812 140.039062 52.460938 105.816406 78.628906 92.265625 C 104.59375 78.820312 99.371094 41.859375 132.707031 32.617188 C 169.871094 22.308594 157.195312 74.21875 177.476562 75.785156 C 200.847656 77.589844 209.035156 103.152344 210.785156 120.53125 C 214.542969 157.925781 234.957031 155.140625 250 186.953125 C 265.476562 219.683594 284.746094 210.109375 283.304688 274.183594 " fill-opacity="1" fill-rule="nonzero"/></g><g clip-path="url(#af40f2cba1)"><path fill="#151e34" d="M 85.75 238.683594 L 73.171875 238.683594 L 73.171875 242.929688 L 89.246094 242.929688 L 89.246094 238.683594 Z M 38.753906 232.914062 L 41.367188 232.914062 C 41.367188 232.914062 41.25 231.191406 40.996094 228.632812 C 40.984375 228.542969 40.976562 228.453125 40.96875 228.363281 C 40.902344 227.710938 40.824219 227.007812 40.742188 226.265625 C 40.628906 226.480469 40.511719 226.695312 40.398438 226.90625 C 37.417969 219.726562 34.742188 219.40625 34.742188 219.40625 L 38.007812 231.425781 C 37.75 231.921875 37.496094 232.417969 37.246094 232.914062 Z M 58.496094 246.097656 L 60.839844 246.097656 L 60.839844 235.914062 L 58.496094 235.914062 Z M 38.253906 238.683594 L 38.253906 242.929688 L 54.324219 242.929688 L 54.324219 238.683594 Z M 95.757812 235.914062 L 93.414062 235.914062 L 93.414062 246.097656 L 95.757812 246.097656 Z M 75.195312 232.914062 L 76.675781 232.914062 L 76.285156 232.914062 C 76.285156 232.914062 76.234375 232.183594 76.132812 230.972656 C 76.070312 230.257812 75.988281 229.371094 75.886719 228.363281 C 72.6875 219.773438 69.65625 219.40625 69.65625 219.40625 L 73.328125 232.914062 Z M 81.492188 224.300781 C 81.574219 223.222656 81.671875 222.226562 81.785156 221.3125 C 81.5 221.757812 81.214844 222.207031 80.933594 222.65625 C 81.089844 223.292969 81.234375 223.914062 81.363281 224.511719 C 81.40625 224.4375 81.449219 224.367188 81.492188 224.300781 Z M 51.230469 225.4375 L 51.304688 232.914062 L 49.5 232.914062 L 53.53125 232.914062 L 57.199219 213.613281 C 57.199219 213.613281 54.332031 214.101562 51.230469 225.4375 Z M 83.878906 177.285156 L 82.730469 177.285156 Z M 73.171875 187.5 L 89.246094 187.5 L 89.246094 183.25 L 73.171875 183.25 Z M 41.109375 177.285156 L 41.367188 177.285156 C 41.367188 177.285156 41.242188 175.441406 40.96875 172.734375 C 40.84375 171.507812 40.6875 170.101562 40.5 168.609375 C 40.320312 167.992188 40.132812 167.375 39.9375 166.757812 C 39.683594 167.398438 39.445312 168.054688 39.207031 168.71875 C 36.742188 164.019531 34.742188 163.773438 34.742188 163.773438 L 38.410156 177.285156 Z M 41.367188 121.65625 C 41.367188 121.65625 41.242188 119.816406 40.96875 117.105469 C 37.769531 108.511719 34.742188 108.144531 34.742188 108.144531 L 38.410156 121.65625 Z M 76.285156 177.285156 C 76.285156 177.285156 76.160156 175.441406 75.886719 172.734375 C 72.6875 164.144531 69.65625 163.773438 69.65625 163.773438 L 73.328125 177.285156 Z M 38.253906 183.25 L 38.253906 187.5 L 54.324219 187.5 L 54.324219 183.25 Z M 54.328125 173.082031 C 54.507812 174.484375 54.660156 175.882812 54.785156 177.285156 L 56.132812 177.285156 C 55.890625 174.511719 55.527344 171.738281 55.109375 168.976562 L 57.199219 157.984375 C 57.199219 157.984375 55.835938 158.226562 53.96875 162.089844 C 53.871094 161.53125 53.773438 160.96875 53.675781 160.410156 C 53.117188 157.222656 52.554688 154 52.085938 150.769531 C 51.65625 150.992188 51.238281 151.238281 50.835938 151.492188 C 51.292969 154.5625 51.820312 157.617188 52.351562 160.644531 C 52.566406 161.875 52.785156 163.109375 52.996094 164.351562 C 52.429688 165.8125 51.835938 167.601562 51.230469 169.808594 L 51.304688 177.285156 L 49.5 177.285156 L 53.53125 177.285156 Z M 60.839844 180.28125 L 58.496094 180.28125 L 58.496094 190.46875 L 60.839844 190.46875 Z M 178.726562 225.4375 L 178.800781 232.914062 L 176.996094 232.914062 L 181.027344 232.914062 L 184.695312 213.613281 C 184.695312 213.613281 181.828125 214.101562 178.726562 225.4375 Z M 154.164062 241.550781 C 153.921875 241.421875 153.671875 241.308594 153.421875 241.199219 L 153.421875 235.914062 L 151.078125 235.914062 L 151.078125 246.097656 L 153.421875 246.097656 L 153.421875 242.683594 C 153.457031 242.699219 153.496094 242.714844 153.535156 242.734375 C 158.335938 245.292969 160.65625 250.933594 162.453125 256.023438 C 162.488281 256.125 162.527344 256.234375 162.5625 256.339844 L 162.242188 251.710938 C 160.507812 247.601562 158.140625 243.671875 154.164062 241.550781 Z M 175.949219 238.683594 L 165.75 238.683594 L 165.75 242.929688 L 181.820312 242.929688 L 181.820312 238.683594 Z M 173.070312 232.914062 L 171.21875 232.914062 Z M 38.253906 132.070312 L 54.324219 132.070312 L 54.324219 127.820312 L 38.253906 127.820312 Z M 185.996094 246.097656 L 188.335938 246.097656 L 188.335938 235.914062 L 185.996094 235.914062 Z M 265.519531 244.082031 C 265.25 243.484375 264.972656 242.890625 264.699219 242.296875 C 264.683594 243.371094 264.671875 244.429688 264.660156 245.464844 C 269.246094 255.871094 271.605469 265.484375 271.71875 274.183594 L 273.0625 274.183594 C 272.945312 265.058594 270.429688 254.984375 265.519531 244.082031 Z M 195.265625 149.109375 L 187.066406 149.109375 C 187.894531 151.171875 188.5625 153.316406 188.996094 155.550781 C 189.867188 161.5625 188.953125 168.886719 187.976562 176.640625 C 187.828125 177.851562 187.671875 179.066406 187.53125 180.28125 L 188.335938 180.28125 L 188.335938 190.46875 L 186.613281 190.46875 C 186.429688 194.75 186.625 198.785156 187.539062 202.3125 L 195.265625 202.3125 Z M 195.265625 204.742188 L 188.3125 204.742188 C 188.484375 205.167969 188.65625 205.589844 188.851562 205.996094 C 190.433594 209.265625 192.8125 212.121094 195.265625 214.84375 Z M 195.265625 216.84375 C 192.410156 213.714844 189.519531 210.460938 187.644531 206.578125 C 187.359375 205.988281 187.109375 205.371094 186.882812 204.742188 L 147.855469 204.742188 C 148.222656 208.824219 149.417969 212.890625 152.042969 216.316406 C 154.6875 219.761719 158.523438 222.152344 162.234375 224.464844 C 162.785156 224.808594 163.339844 225.15625 163.894531 225.511719 L 162.238281 219.40625 C 162.238281 219.40625 165.265625 219.773438 168.464844 228.363281 C 168.476562 228.476562 168.488281 228.585938 168.5 228.695312 C 168.566406 229.390625 168.625 230.023438 168.675781 230.574219 C 168.800781 232.023438 168.863281 232.914062 168.863281 232.914062 L 165.90625 232.914062 L 164.421875 227.445312 C 163.460938 226.816406 162.484375 226.203125 161.523438 225.605469 C 157.710938 223.226562 153.769531 220.769531 150.976562 217.132812 C 150.433594 216.421875 149.964844 215.683594 149.527344 214.929688 L 146.109375 232.914062 L 142.078125 232.914062 L 143.882812 232.914062 L 143.808594 225.4375 C 145.957031 217.585938 147.992188 214.941406 149.042969 214.054688 C 147.539062 211.121094 146.78125 207.929688 146.503906 204.742188 L 136.949219 204.742188 C 136.800781 205.730469 136.636719 206.71875 136.457031 207.707031 C 136.109375 209.621094 135.703125 211.539062 135.265625 213.453125 C 134.925781 212.90625 134.574219 212.417969 134.21875 211.976562 C 134.550781 210.472656 134.863281 208.964844 135.136719 207.464844 C 135.300781 206.558594 135.449219 205.648438 135.589844 204.742188 L 119.089844 204.742188 L 119.089844 227.925781 C 119.25 227.960938 119.40625 227.992188 119.566406 228.042969 C 121.964844 228.785156 123.777344 230.921875 124.191406 233.488281 C 124.519531 235.542969 124.039062 237.566406 123.574219 239.527344 L 123.46875 239.960938 C 122.628906 243.519531 121.878906 250.746094 121.859375 257.941406 L 126.921875 257.941406 C 126.453125 254.015625 126.425781 249.804688 126.882812 245.378906 L 127.753906 257.941406 L 195.265625 257.941406 Z M 122.164062 239.652344 L 122.265625 239.214844 C 122.703125 237.386719 123.152344 235.492188 122.863281 233.699219 C 122.613281 232.132812 121.492188 230.042969 119.167969 229.324219 C 119.140625 229.316406 119.117188 229.3125 119.089844 229.304688 L 119.089844 257.941406 L 120.546875 257.941406 C 120.585938 250.15625 121.480469 242.539062 122.164062 239.652344 Z M 119.089844 202.3125 L 186.15625 202.3125 C 186.101562 202.09375 186.042969 201.875 185.996094 201.65625 L 185.996094 180.28125 L 186.175781 180.28125 C 186.328125 179.011719 186.488281 177.738281 186.644531 176.472656 C 187.605469 168.8125 188.515625 161.574219 187.671875 155.777344 C 187.222656 153.460938 186.515625 151.238281 185.628906 149.109375 L 154.574219 149.109375 C 155.972656 155.019531 156.261719 161.210938 155.367188 167.332031 C 154.722656 171.734375 153.46875 176.066406 152.1875 180.28125 L 153.421875 180.28125 L 153.421875 190.46875 L 151.078125 190.46875 L 151.078125 179.320312 C 152.28125 175.332031 153.433594 171.25 154.039062 167.136719 C 154.925781 161.078125 154.617188 154.945312 153.195312 149.109375 L 130.34375 149.109375 C 131.082031 150.878906 131.773438 152.667969 132.410156 154.480469 C 131.6875 153.871094 131.03125 153.453125 130.507812 153.175781 C 130 151.808594 129.460938 150.453125 128.890625 149.109375 L 119.089844 149.109375 Z M 115.816406 177.335938 C 114.464844 172.207031 112.261719 166.710938 109.175781 160.800781 C 108.421875 159.351562 107.636719 157.90625 106.855469 156.457031 C 106.554688 155.910156 106.261719 155.359375 105.964844 154.8125 L 105.964844 214.542969 C 110.214844 209.828125 113.839844 204.917969 115.816406 198.964844 Z M 115.816406 202.628906 C 113.457031 207.816406 109.859375 212.304688 105.964844 216.527344 L 105.964844 236.226562 C 106.742188 235.035156 107.578125 233.886719 108.476562 232.796875 C 110.296875 230.582031 112.941406 228.5 115.816406 227.898438 Z M 102.691406 149.109375 L 87.789062 149.109375 C 88.390625 152.707031 89.230469 156.324219 90.125 159.898438 C 91.324219 158.121094 92.117188 157.984375 92.117188 157.984375 L 91.058594 163.554688 C 91.109375 163.753906 91.160156 163.957031 91.210938 164.152344 C 92.582031 169.46875 93.96875 174.863281 94.792969 180.28125 L 95.757812 180.28125 L 95.757812 190.46875 L 95.527344 190.46875 C 95.460938 193.386719 95.117188 196.296875 94.414062 199.195312 C 94.15625 200.253906 93.851562 201.289062 93.507812 202.3125 L 102.691406 202.3125 Z M 102.691406 204.742188 L 92.621094 204.742188 C 90.890625 209.058594 88.527344 213.121094 86.066406 217.0625 L 86.042969 214.542969 C 87.964844 211.378906 89.761719 208.132812 91.164062 204.742188 L 74.230469 204.742188 C 73.445312 205.957031 72.644531 207.15625 71.824219 208.339844 C 71.757812 208.316406 71.71875 208.304688 71.71875 208.304688 C 71.734375 208.339844 71.753906 208.378906 71.773438 208.414062 C 70.746094 209.894531 69.699219 211.359375 68.664062 212.808594 C 64.699219 218.371094 60.597656 224.121094 57.855469 230.421875 C 57.496094 231.242188 57.167969 232.074219 56.855469 232.914062 L 55.433594 232.914062 C 55.796875 231.894531 56.191406 230.882812 56.621094 229.890625 C 59.421875 223.457031 63.5625 217.648438 67.574219 212.03125 C 69.273438 209.648438 70.996094 207.222656 72.628906 204.742188 L 52.738281 204.742188 C 51.976562 206.796875 51.140625 208.8125 50.257812 210.773438 C 49.609375 211.402344 48.691406 212.765625 47.898438 215.699219 C 47.082031 217.320312 46.253906 218.898438 45.441406 220.417969 C 45.273438 219.8125 45.097656 219.191406 44.90625 218.5625 C 47.167969 214.292969 49.46875 209.636719 51.304688 204.742188 L 41.113281 204.742188 C 40.621094 206.453125 40.042969 208.125 39.386719 209.753906 C 38.976562 209.4375 38.59375 209.1875 38.257812 208.988281 C 38.800781 207.601562 39.289062 206.1875 39.71875 204.742188 L 26.515625 204.742188 L 26.515625 226.453125 C 28.421875 224.394531 30.371094 222.277344 32.078125 220.027344 C 34.328125 217.066406 36.199219 213.816406 37.691406 210.347656 C 37.90625 210.941406 38.105469 211.589844 38.300781 212.273438 C 36.878906 215.320312 35.160156 218.191406 33.148438 220.839844 C 31.261719 223.320312 29.113281 225.625 27.039062 227.859375 C 26.863281 228.046875 26.6875 228.238281 26.515625 228.425781 L 26.515625 257.941406 L 28.980469 257.941406 C 29.117188 256.5 29.324219 255.039062 29.609375 253.574219 C 30.519531 248.878906 32.058594 244.367188 33.933594 239.976562 L 34.140625 243.019531 C 32.769531 246.539062 31.644531 250.128906 30.925781 253.828125 C 30.660156 255.210938 30.457031 256.582031 30.324219 257.941406 L 69.558594 257.941406 C 69.582031 256.480469 69.667969 255.019531 69.789062 253.566406 L 70.09375 257.941406 L 98.820312 257.941406 C 98.835938 257.761719 98.847656 257.582031 98.863281 257.402344 C 99.425781 251.867188 100.707031 246.816406 102.691406 242.28125 L 102.691406 219.972656 C 102.148438 220.527344 101.609375 221.082031 101.074219 221.632812 C 97.570312 225.214844 93.984375 228.894531 90.972656 232.914062 L 89.320312 232.914062 C 92.492188 228.515625 96.347656 224.546875 100.113281 220.695312 C 100.980469 219.808594 101.839844 218.925781 102.691406 218.042969 Z M 102.691406 245.96875 C 101.453125 249.53125 100.621094 253.394531 100.203125 257.535156 C 100.1875 257.671875 100.179688 257.808594 100.167969 257.941406 L 102.691406 257.941406 Z M 26.515625 202.3125 L 93.414062 202.3125 L 93.414062 197.433594 C 93.878906 195.125 94.125 192.800781 94.179688 190.46875 L 93.414062 190.46875 L 93.414062 180.28125 L 93.429688 180.28125 C 93.425781 180.25 93.421875 180.214844 93.414062 180.179688 L 93.414062 177.285156 L 92.917969 177.285156 C 92.246094 173.726562 91.371094 170.175781 90.46875 166.65625 L 88.445312 177.285156 L 84.421875 177.285156 L 86.222656 177.285156 L 86.148438 169.808594 C 87.214844 165.910156 88.253906 163.300781 89.15625 161.546875 C 88.113281 157.449219 87.113281 153.273438 86.429688 149.109375 L 82.425781 149.109375 C 82.667969 150.839844 82.902344 152.574219 83.113281 154.296875 C 83.257812 155.46875 83.390625 156.679688 83.519531 157.914062 C 83.164062 158.8125 82.808594 159.945312 82.492188 161.394531 C 82.300781 158.984375 82.046875 156.65625 81.777344 154.460938 C 81.5625 152.6875 81.320312 150.894531 81.070312 149.109375 L 26.515625 149.109375 Z M 237.851562 269.632812 L 237.933594 274.183594 L 205.082031 274.183594 C 204.140625 274.183594 203.484375 273.210938 203.863281 272.359375 C 204.484375 270.964844 208.402344 269.011719 213.042969 267.132812 C 214.585938 250.746094 209.597656 233.542969 199.023438 221.042969 C 198.867188 220.859375 198.703125 220.679688 198.542969 220.496094 L 198.542969 274.320312 L 195.265625 274.320312 L 195.265625 260.371094 L 184.710938 260.371094 C 185.015625 264.988281 184.621094 269.660156 183.449219 274.183594 L 182.0625 274.183594 C 183.277344 269.667969 183.6875 264.988281 183.375 260.371094 L 165.367188 260.371094 C 166.898438 264.9375 168.332031 269.550781 169.664062 274.183594 L 168.265625 274.183594 C 166.929688 269.550781 165.488281 264.933594 163.953125 260.371094 L 140.613281 260.371094 C 140.972656 263.277344 141.652344 266.210938 142.933594 268.949219 C 143.875 270.960938 145.113281 272.730469 146.554688 274.183594 L 144.730469 274.183594 C 143.550781 272.824219 142.527344 271.253906 141.714844 269.515625 C 140.34375 266.578125 139.628906 263.449219 139.257812 260.371094 L 128.660156 260.371094 C 129.476562 265.03125 131.089844 269.929688 134.089844 274.183594 L 132.492188 274.183594 C 129.945312 270.304688 128.191406 265.625 127.28125 260.371094 L 121.886719 260.371094 C 122.003906 265.765625 122.585938 270.902344 123.910156 274.183594 L 122.507812 274.183594 C 121.210938 270.636719 120.667969 265.574219 120.566406 260.371094 L 119.089844 260.371094 L 119.089844 274.320312 L 115.816406 274.320312 L 115.816406 229.265625 C 113.382812 229.863281 111.109375 231.707031 109.511719 233.648438 C 108.199219 235.25 107.015625 236.957031 105.964844 238.773438 L 105.964844 274.320312 L 102.691406 274.320312 L 102.691406 260.371094 L 99.988281 260.371094 C 99.722656 264.964844 99.917969 269.59375 100.292969 274.183594 L 98.945312 274.183594 C 98.574219 269.605469 98.382812 264.980469 98.644531 260.371094 L 81.421875 260.371094 C 81.089844 264.84375 81.128906 269.464844 81.414062 274.183594 L 80.070312 274.183594 C 79.789062 269.46875 79.746094 264.855469 80.070312 260.371094 L 70.914062 260.371094 C 71.011719 265.03125 71.621094 269.683594 72.75 274.183594 L 71.367188 274.183594 C 70.261719 269.679688 69.667969 265.03125 69.570312 260.371094 L 55.011719 260.371094 C 56.011719 265.070312 57.683594 269.617188 60.019531 273.796875 L 59.324219 274.183594 L 58.703125 274.183594 C 56.332031 269.878906 54.644531 265.203125 53.644531 260.371094 L 30.15625 260.371094 C 29.945312 265.304688 30.617188 270.003906 32.097656 274.183594 L 30.683594 274.183594 C 29.261719 269.96875 28.613281 265.277344 28.808594 260.371094 L 26.515625 260.371094 L 26.515625 274.320312 L 23.234375 274.320312 L 23.234375 232.0625 C 22.460938 232.957031 21.699219 233.867188 20.992188 234.804688 C 12.59375 245.878906 10.167969 260.839844 13.664062 274.183594 L 12.28125 274.183594 C 8.820312 260.539062 11.347656 245.300781 19.921875 233.996094 C 20.960938 232.621094 22.089844 231.304688 23.234375 230.019531 L 23.234375 146.683594 L 101.867188 146.683594 C 99.738281 141.964844 98.109375 137.070312 97.769531 131.886719 C 97.367188 125.628906 98.894531 119.449219 100.375 113.472656 C 100.855469 111.519531 101.355469 109.503906 101.773438 107.523438 C 104.707031 93.734375 104.257812 79.207031 100.617188 65.566406 C 100.914062 64.949219 101.207031 64.332031 101.503906 63.710938 C 105.582031 77.992188 106.171875 93.296875 103.085938 107.800781 C 102.664062 109.804688 102.160156 111.832031 101.675781 113.792969 C 100.222656 119.671875 98.71875 125.75 99.113281 131.800781 C 99.449219 136.980469 101.148438 141.910156 103.347656 146.683594 L 105.964844 146.683594 L 105.964844 151.953125 C 106.648438 153.25 107.34375 154.539062 108.035156 155.820312 C 108.824219 157.273438 109.605469 158.726562 110.367188 160.179688 C 112.660156 164.570312 114.464844 168.742188 115.816406 172.71875 L 115.816406 146.683594 L 152.523438 146.683594 C 152.105469 145.296875 151.625 143.933594 151.078125 142.597656 L 151.078125 139.285156 C 152.234375 141.667969 153.183594 144.144531 153.929688 146.683594 L 185.996094 146.683594 L 185.996094 146.675781 C 185.996094 146.679688 185.996094 146.679688 185.996094 146.683594 L 198.542969 146.683594 L 198.542969 218.457031 C 199.054688 219.027344 199.558594 219.597656 200.046875 220.175781 C 210.886719 232.988281 215.96875 250.007812 214.507812 266.550781 C 217.367188 265.433594 220.386719 264.367188 223.015625 263.484375 Z M 250.832031 264.074219 L 249.515625 263.636719 L 249.367188 263.585938 C 249.367188 263.585938 249.367188 263.578125 249.367188 263.574219 C 249.367188 263.578125 249.367188 263.585938 249.367188 263.585938 C 246.390625 266.269531 241.46875 269.824219 241.398438 271.367188 C 241.265625 274.320312 242.761719 274.320312 242.761719 274.320312 L 264.8125 274.320312 L 264.402344 268.554688 Z M 165.75 187.5 L 181.820312 187.5 L 181.820312 183.25 L 165.75 183.25 Z M 184.695312 157.984375 C 184.695312 157.984375 181.828125 158.472656 178.726562 169.808594 L 178.800781 177.285156 L 176.996094 177.285156 L 181.027344 177.285156 Z M 86.148438 225.4375 L 86.222656 232.914062 L 84.421875 232.914062 L 88.445312 232.914062 L 92.117188 213.613281 C 92.117188 213.613281 89.25 214.101562 86.148438 225.4375 Z M 168.863281 177.285156 C 168.863281 177.285156 168.738281 175.441406 168.464844 172.734375 C 165.265625 164.144531 162.238281 163.773438 162.238281 163.773438 L 165.90625 177.285156 Z M 149.78125 157.984375 C 149.78125 157.984375 146.910156 158.472656 143.808594 169.808594 L 143.882812 177.285156 L 142.078125 177.285156 L 146.109375 177.285156 Z M 133.945312 232.914062 C 133.945312 232.914062 133.820312 231.070312 133.546875 228.363281 C 133.121094 227.222656 132.699219 226.222656 132.289062 225.351562 C 132.460938 224.683594 132.636719 224.011719 132.808594 223.34375 C 132.84375 223.210938 132.878906 223.074219 132.910156 222.941406 C 132.761719 221.820312 132.59375 220.671875 132.40625 219.519531 C 132.109375 220.6875 131.808594 221.851562 131.507812 223.007812 C 131.460938 223.195312 131.410156 223.386719 131.363281 223.574219 C 129.09375 219.621094 127.320312 219.40625 127.320312 219.40625 L 129.957031 229.101562 C 129.640625 230.367188 129.339844 231.640625 129.050781 232.914062 L 130.429688 232.914062 C 130.511719 232.539062 130.597656 232.167969 130.683594 231.792969 L 130.988281 232.914062 Z M 133.945312 177.285156 C 133.945312 177.285156 133.820312 175.441406 133.546875 172.734375 C 130.347656 164.144531 127.320312 163.773438 127.320312 163.773438 L 130.988281 177.285156 Z M 130.832031 183.25 L 130.832031 187.5 L 146.90625 187.5 L 146.90625 183.25 Z M 130.832031 242.929688 L 146.90625 242.929688 L 146.90625 238.683594 L 130.832031 238.683594 Z M 107.863281 86.058594 C 107.445312 94.289062 107.011719 102.804688 109.109375 110.78125 C 111.117188 118.402344 115.324219 125.117188 119.398438 131.609375 C 120.957031 134.097656 122.570312 136.671875 124.03125 139.25 C 125.371094 141.621094 126.609375 144.050781 127.742188 146.523438 L 127.492188 142.894531 C 126.761719 141.441406 126 140.007812 125.199219 138.589844 C 123.722656 135.984375 122.101562 133.398438 120.535156 130.898438 C 116.515625 124.492188 112.363281 117.863281 110.410156 110.441406 C 108.363281 102.664062 108.789062 94.257812 109.203125 86.125 C 109.375 82.824219 109.546875 79.414062 109.554688 76.078125 C 109.570312 69.6875 108.769531 61.996094 105.757812 55.421875 C 105.480469 55.910156 105.207031 56.402344 104.941406 56.898438 C 107.527344 63.054688 108.226562 70.140625 108.210938 76.078125 C 108.203125 79.378906 108.03125 82.773438 107.863281 86.058594 Z M 185.996094 134.839844 L 188.335938 134.839844 L 188.335938 124.652344 L 185.996094 124.652344 Z M 206.324219 164.996094 C 207.410156 173.242188 208.535156 181.761719 211.4375 189.699219 C 215.074219 199.652344 221.375 208.394531 227.699219 216.796875 C 227.757812 216.132812 227.816406 215.460938 227.871094 214.796875 C 221.914062 206.835938 216.097656 198.546875 212.699219 189.242188 C 209.847656 181.441406 208.734375 172.992188 207.652344 164.824219 C 206.558594 156.503906 205.425781 147.90625 202.464844 139.90625 C 198.582031 129.429688 191.570312 120.179688 182.566406 113.5625 L 184.695312 102.355469 C 184.695312 102.355469 182.304688 102.773438 179.527344 111.476562 C 179.253906 111.300781 178.976562 111.125 178.695312 110.949219 L 178.710938 112.550781 C 178.84375 112.636719 178.984375 112.722656 179.117188 112.808594 C 178.988281 113.25 178.859375 113.703125 178.726562 114.179688 L 178.800781 121.65625 L 176.996094 121.65625 L 181.027344 121.65625 L 182.285156 115.03125 C 190.832031 121.460938 197.488281 130.335938 201.203125 140.371094 C 204.113281 148.230469 205.238281 156.753906 206.324219 164.996094 Z M 265.121094 207.453125 C 265.285156 197.960938 265.421875 188.875 265.503906 181.695312 C 265.386719 188.140625 265.253906 197.382812 265.121094 207.453125 Z M 175.382812 132.070312 L 181.820312 132.070312 L 181.820312 127.820312 L 165.75 127.820312 L 165.75 132.070312 Z M 197.875 91.066406 L 204.679688 91.066406 C 205.800781 90.214844 208.644531 86.28125 208.644531 86.28125 C 208.644531 86.28125 205.53125 86.054688 204.390625 85.476562 C 203.246094 84.894531 203.5625 83.507812 204.59375 83.507812 C 205.621094 83.507812 208.753906 83.148438 210.589844 83.015625 C 211.871094 82.921875 213.929688 84.328125 215.0625 85.1875 C 215.285156 85.355469 215.46875 85.5 215.605469 85.609375 L 215.605469 65.847656 L 193.175781 65.847656 L 193.175781 91.222656 L 197.941406 91.222656 C 197.898438 91.125 197.875 91.066406 197.875 91.066406 Z M 174.582031 108.429688 C 173.820312 107.960938 173.058594 107.484375 172.3125 106.996094 C 172.511719 107.660156 172.699219 108.3125 172.878906 108.949219 C 173.378906 109.261719 173.878906 109.574219 174.382812 109.882812 C 174.449219 109.371094 174.515625 108.890625 174.582031 108.429688 Z M 168.863281 121.65625 C 168.863281 121.65625 168.738281 119.816406 168.464844 117.105469 C 165.265625 108.511719 162.238281 108.144531 162.238281 108.144531 L 165.90625 121.65625 Z M 219.5 65.652344 C 219.667969 65.652344 219.839844 65.585938 219.972656 65.460938 C 221.039062 64.402344 221.589844 62.855469 221.472656 61.363281 C 221.449219 61.109375 221.417969 60.859375 221.359375 60.613281 C 221.339844 60.527344 221.300781 60.449219 221.253906 60.382812 C 221.097656 60.164062 220.824219 60.050781 220.550781 60.113281 C 220.4375 60.140625 220.34375 60.207031 220.261719 60.28125 C 220.085938 60.441406 219.996094 60.679688 220.054688 60.921875 C 220.078125 61.023438 220.089844 61.125 220.105469 61.226562 C 220.277344 62.40625 219.878906 63.664062 219.027344 64.503906 C 218.761719 64.765625 218.761719 65.191406 219.019531 65.453125 C 219.152344 65.585938 219.324219 65.652344 219.5 65.652344 Z M 245.21875 22.75 C 245.234375 22.746094 246.996094 22.367188 248.03125 23.558594 C 248.097656 23.636719 248.191406 23.675781 248.285156 23.675781 C 248.363281 23.675781 248.441406 23.648438 248.503906 23.589844 C 248.644531 23.472656 248.660156 23.261719 248.539062 23.117188 C 247.238281 21.621094 245.152344 22.078125 245.066406 22.09375 C 244.886719 22.140625 244.773438 22.316406 244.816406 22.496094 C 244.859375 22.679688 245.039062 22.789062 245.21875 22.75 Z M 246.714844 25.21875 C 246.351562 25.21875 246.054688 25.511719 246.054688 25.875 C 246.054688 26.238281 246.351562 26.535156 246.714844 26.535156 C 247.078125 26.535156 247.371094 26.238281 247.371094 25.875 C 247.371094 25.511719 247.078125 25.21875 246.714844 25.21875 Z M 240.382812 25.875 C 240.382812 26.238281 240.679688 26.535156 241.042969 26.535156 C 241.40625 26.535156 241.703125 26.238281 241.703125 25.875 C 241.703125 25.511719 241.40625 25.21875 241.042969 25.21875 C 240.679688 25.21875 240.382812 25.511719 240.382812 25.875 Z M 247.777344 25.875 C 247.777344 24.992188 247.058594 24.273438 246.171875 24.273438 C 245.289062 24.273438 244.570312 24.992188 244.570312 25.875 C 244.570312 26.761719 245.289062 27.476562 246.171875 27.476562 C 247.058594 27.476562 247.777344 26.761719 247.777344 25.875 Z M 241.78125 25.875 C 241.78125 24.992188 241.0625 24.273438 240.175781 24.273438 C 239.667969 24.273438 239.21875 24.515625 238.925781 24.882812 C 238.707031 25.160156 238.570312 25.5 238.570312 25.875 C 238.570312 26.183594 238.664062 26.46875 238.816406 26.714844 C 239.097656 27.167969 239.601562 27.476562 240.175781 27.476562 C 241.0625 27.476562 241.78125 26.761719 241.78125 25.875 Z M 239.164062 23.535156 C 239.164062 23.535156 235.316406 18.488281 238.511719 13.476562 C 240.753906 9.964844 244.691406 9.855469 244.691406 9.855469 C 244.691406 9.855469 248.976562 6.59375 253.398438 9.40625 C 256.84375 11.597656 259.191406 11.808594 259.191406 11.808594 C 259.191406 11.808594 258.992188 12.804688 257.203125 12.804688 C 257.203125 12.804688 262.148438 14.816406 263.019531 17.679688 C 263.019531 17.679688 260.480469 17.378906 260.902344 19.3125 L 260.898438 19.3125 C 262.960938 25.878906 258.277344 33.257812 258.277344 33.257812 L 258.246094 33.222656 L 255.183594 29.921875 C 257.617188 29.015625 258.363281 25.375 256.8125 24.148438 C 255.539062 23.132812 254.417969 24.085938 253.828125 24.804688 C 253.550781 25.144531 253.394531 25.429688 253.394531 25.429688 C 253.394531 25.429688 253.363281 25.476562 253.328125 25.542969 C 253.175781 25.820312 252.773438 26.59375 252.519531 27.4375 L 251.964844 27.039062 L 251.78125 25.742188 L 248.417969 26.175781 C 248.269531 27.285156 247.328125 28.148438 246.171875 28.148438 C 244.984375 28.148438 244.015625 27.230469 243.917969 26.070312 C 243.128906 25.523438 242.605469 25.875 242.433594 26.027344 C 242.355469 27.210938 241.378906 28.148438 240.175781 28.148438 C 239.667969 28.148438 239.207031 27.976562 238.828125 27.695312 C 238.269531 27.28125 237.902344 26.621094 237.902344 25.875 C 237.902344 25.015625 238.386719 24.277344 239.089844 23.890625 C 239.269531 23.789062 239.464844 23.710938 239.671875 23.664062 C 239.617188 23.652344 239.558594 23.632812 239.511719 23.589844 C 239.375 23.472656 239.359375 23.261719 239.480469 23.117188 C 240.78125 21.621094 242.863281 22.078125 242.949219 22.09375 C 243.128906 22.140625 243.242188 22.316406 243.203125 22.496094 C 243.15625 22.679688 242.976562 22.789062 242.796875 22.75 C 242.78125 22.746094 241.019531 22.367188 239.984375 23.558594 C 239.957031 23.589844 239.921875 23.613281 239.886719 23.628906 C 239.984375 23.621094 240.078125 23.601562 240.175781 23.601562 C 241.222656 23.601562 242.097656 24.316406 242.363281 25.277344 C 242.765625 25.074219 243.324219 24.984375 243.976562 25.3125 C 244.226562 24.335938 245.113281 23.601562 246.171875 23.601562 C 247.300781 23.601562 248.230469 24.425781 248.410156 25.5 L 251.6875 25.078125 L 251.203125 21.632812 C 245.566406 21.210938 243.253906 17.777344 243.179688 17.667969 C 243.179688 17.667969 243.175781 17.660156 243.175781 17.660156 C 243.15625 17.675781 243.136719 17.695312 243.117188 17.714844 C 241.023438 19.707031 239.421875 22.988281 239.199219 23.472656 C 239.175781 23.507812 239.164062 23.535156 239.164062 23.535156 Z M 257.648438 93.453125 L 266.777344 63.402344 C 266.882812 63.046875 266.683594 62.675781 266.328125 62.566406 C 266.320312 62.5625 266.308594 62.566406 266.300781 62.5625 C 265.957031 62.476562 265.597656 62.667969 265.492188 63.011719 L 256.363281 93.066406 C 256.355469 93.09375 256.335938 93.117188 256.324219 93.148438 C 256.183594 93.507812 255.878906 93.753906 255.503906 93.828125 C 255.433594 93.84375 255.363281 93.863281 255.289062 93.863281 L 254.066406 93.859375 L 250.28125 93.851562 C 250.28125 93.851562 248.835938 80.773438 248.8125 80.40625 C 248.761719 79.613281 248.375 79 247.917969 78.539062 C 247.890625 78.507812 247.863281 78.476562 247.835938 78.445312 C 248.03125 78.457031 248.234375 78.492188 248.441406 78.546875 C 248.449219 78.550781 248.457031 78.554688 248.46875 78.558594 C 249.039062 78.71875 249.625 79.085938 250.082031 79.832031 C 250.277344 80.148438 250.691406 80.246094 251.007812 80.054688 C 251.101562 80 251.167969 79.921875 251.21875 79.835938 C 251.351562 79.625 251.367188 79.355469 251.230469 79.128906 C 250.375 77.742188 249.15625 77.226562 248.039062 77.125 C 247.53125 77.078125 247.148438 75.355469 247.421875 74.421875 C 247.238281 73.410156 247.15625 72.550781 247.195312 71.878906 C 247.601562 64.636719 254.710938 49.753906 261.15625 43.515625 L 261.152344 43.511719 L 258.878906 41.214844 C 258.878906 41.214844 255.265625 43.726562 251.585938 48.671875 C 249.230469 51.832031 246.859375 55.996094 245.375 61.136719 C 244.898438 62.785156 244.515625 64.53125 244.253906 66.378906 L 238.597656 66.175781 L 234.539062 66.03125 C 234.660156 65.640625 234.777344 65.25 234.898438 64.871094 C 237.699219 56.011719 241.429688 48.097656 242.496094 45.914062 C 242.683594 45.523438 242.789062 45.308594 242.789062 45.308594 C 242.789062 45.308594 242.796875 45.296875 242.796875 45.289062 C 242.804688 45.28125 242.828125 45.242188 242.859375 45.183594 C 243.222656 44.519531 245.160156 41.144531 247.238281 39.824219 L 247.328125 38.007812 C 245.203125 38.386719 243.316406 38.773438 242.566406 39.113281 C 240.527344 40.039062 242.53125 44.695312 242.777344 45.25 C 242.414062 45.558594 242.054688 45.878906 241.707031 46.210938 C 234.285156 53.300781 231.488281 65.632812 231.421875 65.917969 L 229.300781 65.84375 C 229.300781 65.84375 229.210938 68.882812 229.238281 72.816406 C 229.253906 75.539062 229.328125 78.683594 229.527344 81.5625 C 230.179688 81.414062 230.441406 98.007812 231.0625 99.472656 L 231.339844 106.457031 C 231.378906 107.46875 232.117188 108.285156 233.082031 108.464844 C 233.078125 108.480469 233.066406 108.488281 233.0625 108.503906 C 233.0625 108.503906 233.0625 108.546875 233.066406 108.617188 C 233.101562 108.566406 233.132812 108.523438 233.171875 108.472656 C 233.269531 108.488281 233.367188 108.503906 233.472656 108.503906 L 233.160156 111.136719 L 232.253906 118.78125 L 222.984375 196.734375 L 229.25 196.734375 L 246.195312 227.164062 C 246.179688 227.246094 246.164062 227.332031 246.148438 227.414062 C 246.851562 234.566406 247.476562 241.367188 247.980469 247.109375 C 246.878906 244.0625 245.53125 241.125 244.015625 238.296875 C 243.875 239.003906 243.738281 239.707031 243.601562 240.402344 C 244.9375 243.03125 246.117188 245.742188 247.074219 248.542969 C 247.695312 250.367188 248.1875 252.195312 248.574219 254.015625 C 248.507812 253.21875 248.441406 252.394531 248.367188 251.546875 C 248.246094 250.128906 248.125 248.652344 247.996094 247.152344 C 247.636719 242.925781 247.257812 238.523438 246.921875 234.796875 L 251.902344 220.558594 L 252.515625 218.816406 L 265.503906 181.683594 C 265.574219 175.347656 265.597656 170.5 265.550781 168.179688 C 265.316406 156.695312 264.207031 134.347656 260.679688 112.910156 C 260.546875 110.785156 260.449219 109.578125 260.449219 109.519531 C 260.453125 109.417969 260.453125 109.316406 260.453125 109.210938 C 260.457031 109.011719 260.457031 108.8125 260.457031 108.621094 C 260.457031 108.582031 260.460938 108.542969 260.460938 108.503906 C 260.460938 108.503906 257.652344 102.472656 254.621094 95.203125 L 255.289062 95.203125 C 256.382812 95.203125 257.332031 94.5 257.648438 93.453125 Z M 244.011719 31.34375 L 243.113281 27.070312 C 243.113281 27.070312 241.050781 31.027344 241.96875 31.222656 C 242.886719 31.417969 244.011719 31.34375 244.011719 31.34375 Z M 243.019531 33.480469 C 243.898438 33.695312 244.84375 33.589844 245.695312 33.289062 C 246.554688 33 247.34375 32.492188 247.949219 31.832031 C 248.027344 31.742188 248.03125 31.609375 247.957031 31.519531 C 247.867188 31.417969 247.71875 31.40625 247.617188 31.492188 C 246.988281 32.023438 246.257812 32.414062 245.488281 32.667969 C 244.710938 32.914062 243.902344 33.007812 243.074219 33.011719 C 242.96875 33.011719 242.867188 33.085938 242.84375 33.195312 C 242.8125 33.320312 242.890625 33.449219 243.019531 33.480469 Z M 209.617188 112.710938 C 209.492188 112.082031 209.359375 111.445312 209.21875 110.808594 C 196.335938 101.800781 185.710938 89.777344 178.363281 75.882812 C 178.066406 75.851562 177.777344 75.808594 177.476562 75.785156 C 177.226562 75.765625 176.988281 75.734375 176.75 75.699219 C 184.425781 90.542969 195.785156 103.324219 209.617188 112.710938 Z M 76.285156 121.65625 C 76.285156 121.65625 76.160156 119.816406 75.886719 117.105469 C 72.6875 108.511719 69.65625 108.144531 69.65625 108.144531 L 73.328125 121.65625 Z M 95.757812 124.652344 L 93.414062 124.652344 L 93.414062 134.839844 L 95.757812 134.839844 Z M 126.644531 108.9375 C 127.140625 109.792969 127.671875 110.625 128.214844 111.445312 L 130.988281 121.65625 L 133.945312 121.65625 C 133.945312 121.65625 133.867188 120.476562 133.695312 118.621094 C 133.652344 118.15625 133.601562 117.648438 133.546875 117.105469 C 133.519531 116.824219 133.488281 116.535156 133.457031 116.234375 C 133.296875 116.042969 133.136719 115.847656 132.976562 115.652344 C 130.800781 110.398438 128.78125 108.8125 127.855469 108.339844 C 127.835938 108.316406 127.820312 108.292969 127.808594 108.265625 C 122.640625 99.34375 120.636719 88.632812 118.699219 78.269531 C 116.804688 68.109375 114.851562 57.683594 109.871094 48.957031 C 109.582031 49.351562 109.300781 49.75 109.023438 50.152344 C 113.625 58.4375 115.464844 68.261719 117.382812 78.515625 C 119.339844 88.988281 121.363281 99.816406 126.644531 108.9375 Z M 187.578125 102.648438 C 196.144531 111.917969 204.863281 121.351562 212.578125 131.429688 C 212.34375 130.453125 212.125 129.441406 211.921875 128.390625 C 204.613281 119.105469 196.523438 110.347656 188.566406 101.738281 C 187.054688 100.101562 185.542969 98.46875 184.039062 96.835938 C 170.242188 81.820312 153.875 60.636719 134.113281 32.207031 C 133.667969 32.328125 133.214844 32.457031 132.753906 32.601562 C 152.664062 61.269531 169.148438 82.617188 183.050781 97.742188 C 184.554688 99.375 186.0625 101.007812 187.578125 102.648438 Z M 87.46875 121.65625 L 88.445312 121.65625 L 92.117188 102.355469 C 92.117188 102.355469 91.050781 102.542969 89.515625 105.253906 C 89.746094 103.558594 89.976562 101.863281 90.195312 100.171875 C 90.972656 94.0625 91.601562 87.820312 91.734375 81.585938 C 91.285156 82.191406 90.820312 82.785156 90.335938 83.363281 C 90.136719 88.941406 89.558594 94.527344 88.859375 100.003906 C 88.5625 102.351562 88.242188 104.707031 87.921875 107.058594 C 87.804688 107.917969 87.6875 108.777344 87.570312 109.636719 C 87.109375 110.914062 86.632812 112.410156 86.148438 114.179688 L 86.210938 120.726562 L 86.222656 121.65625 L 84.421875 121.65625 Z M 60.839844 124.652344 L 58.496094 124.652344 L 58.496094 134.839844 L 60.839844 134.839844 Z M 85.613281 127.820312 L 73.171875 127.820312 L 73.171875 132.070312 L 89.246094 132.070312 L 89.246094 127.820312 Z M 79.75 107.046875 C 80.160156 103.335938 80.71875 99.644531 81.269531 96.027344 C 81.546875 94.207031 81.816406 92.359375 82.082031 90.503906 C 81.605469 90.789062 81.113281 91.054688 80.609375 91.316406 C 80.390625 92.832031 80.167969 94.335938 79.941406 95.824219 C 79.515625 98.609375 79.089844 101.4375 78.726562 104.289062 C 79.074219 105.050781 79.394531 105.890625 79.679688 106.816406 C 79.703125 106.894531 79.726562 106.96875 79.75 107.046875 Z M 79.199219 121.65625 L 77.855469 121.65625 Z M 57.199219 102.355469 C 57.199219 102.355469 54.332031 102.84375 51.230469 114.179688 L 51.304688 121.65625 L 49.5 121.65625 L 53.53125 121.65625 Z M 151.078125 134.839844 L 153.421875 134.839844 L 153.421875 124.652344 L 151.078125 124.652344 Z M 136.320312 121.65625 L 138.109375 121.65625 Z M 129.234375 65.589844 C 130.757812 67.273438 132.460938 68.902344 134.109375 70.480469 C 138.777344 74.949219 143.605469 79.570312 144.65625 85.742188 C 145.148438 88.640625 144.742188 91.679688 144.34375 94.625 C 143.914062 97.804688 143.46875 101.09375 144.117188 104.320312 C 144.402344 105.75 144.914062 107.171875 145.636719 108.5625 C 145.050781 110.054688 144.4375 111.890625 143.808594 114.179688 L 143.882812 121.65625 L 142.078125 121.65625 L 146.109375 121.65625 L 147.933594 112.058594 C 149.234375 113.675781 150.824219 115.234375 152.699219 116.707031 C 154.914062 118.445312 157.324219 119.960938 159.65625 121.425781 C 160.097656 121.703125 160.539062 121.980469 160.980469 122.261719 L 160.9375 121.65625 L 162.523438 121.65625 C 161.804688 121.195312 161.085938 120.738281 160.375 120.292969 C 158.070312 118.84375 155.691406 117.347656 153.53125 115.652344 C 151.375 113.960938 149.617188 112.15625 148.269531 110.285156 L 149.78125 102.355469 C 149.78125 102.355469 148.308594 102.613281 146.335938 106.910156 C 145.929688 105.964844 145.621094 105.011719 145.429688 104.054688 C 144.832031 101.050781 145.238281 98.015625 145.671875 94.804688 C 146.085938 91.761719 146.507812 88.613281 145.980469 85.515625 C 144.855469 78.90625 139.867188 74.128906 135.039062 69.511719 C 133.40625 67.953125 131.722656 66.335938 130.230469 64.691406 C 125.933594 59.945312 122.941406 53.273438 120.050781 46.824219 C 119.136719 44.789062 118.238281 42.789062 117.316406 40.882812 C 116.960938 41.183594 116.609375 41.488281 116.265625 41.796875 C 117.128906 43.589844 117.96875 45.464844 118.824219 47.371094 C 121.761719 53.917969 124.792969 60.6875 129.234375 65.589844 Z M 142.355469 63.183594 C 143.898438 64.4375 145.578125 65.621094 147.199219 66.761719 C 151.503906 69.789062 155.957031 72.917969 158.054688 77.617188 C 159.425781 80.6875 159.652344 84.046875 159.890625 87.605469 C 160.125 91.089844 160.371094 94.695312 161.808594 97.96875 C 162.921875 100.503906 164.613281 102.578125 166.613281 104.390625 C 166.4375 103.539062 166.246094 102.71875 166.042969 101.933594 C 164.8125 100.597656 163.777344 99.117188 163.035156 97.429688 C 161.691406 94.371094 161.457031 90.886719 161.234375 87.511719 C 160.996094 83.996094 160.75 80.359375 159.28125 77.070312 C 157.03125 72.035156 152.429688 68.796875 147.976562 65.664062 C 146.371094 64.535156 144.710938 63.367188 143.203125 62.140625 C 138.128906 58.011719 135.117188 52.25 131.933594 46.148438 C 130.066406 42.574219 128.15625 38.921875 125.746094 35.394531 C 125.335938 35.59375 124.933594 35.800781 124.539062 36.011719 C 126.957031 39.527344 128.871094 43.191406 130.742188 46.769531 C 133.992188 52.996094 137.0625 58.878906 142.355469 63.183594 Z M 130.832031 127.820312 L 146.90625 127.820312 L 146.90625 132.070312 L 130.832031 132.070312 L 130.832031 127.820312 " fill-opacity="1" fill-rule="nonzero"/></g><path fill="#f9b126" d="M 54.324219 242.929688 L 38.253906 242.929688 L 38.253906 238.683594 L 54.324219 238.683594 Z M 55.433594 232.914062 L 33.441406 232.914062 L 33.933594 239.976562 L 34.140625 243.019531 L 35.175781 257.941406 L 58.496094 257.941406 L 58.496094 232.914062 Z M 181.820312 132.070312 L 165.75 132.070312 L 165.75 127.820312 L 181.820312 127.820312 Z M 176.996094 121.65625 L 160.9375 121.65625 L 160.980469 122.261719 L 162.671875 146.683594 L 185.996094 146.683594 L 185.996094 121.65625 Z M 215.605469 65.847656 L 207.703125 65.847656 C 207.703125 65.847656 207.703125 65.839844 207.703125 65.835938 L 206.449219 65.835938 L 206.449219 65.847656 L 206.027344 65.847656 C 206.027344 65.847656 206.023438 65.835938 206.023438 65.832031 L 204.855469 65.832031 L 204.347656 65.246094 L 204.371094 65.5625 L 203.054688 63.941406 C 203.039062 63.871094 203.023438 63.78125 203.007812 63.707031 L 199.078125 59.964844 C 199.078125 59.964844 193.289062 51.546875 193.082031 51.679688 L 191.796875 50.097656 C 191.796875 50.097656 191.882812 49.714844 192.105469 49.136719 C 192.480469 49.132812 192.707031 49.128906 192.707031 49.128906 C 192.707031 49.128906 197.164062 48.84375 197.246094 43.808594 C 197.507812 43.703125 197.769531 43.601562 198.054688 43.515625 C 198.054688 43.515625 198.414062 43.761719 199.050781 44.207031 L 199.039062 44.035156 C 199.039062 44.035156 215.714844 55.78125 220.257812 60.28125 L 220.261719 60.28125 L 220.039062 60.730469 C 220.035156 60.796875 220.039062 60.855469 220.054688 60.921875 C 220.078125 61.023438 220.089844 61.125 220.105469 61.226562 C 220.277344 62.40625 219.878906 63.664062 219.027344 64.503906 C 218.761719 64.765625 218.761719 65.191406 219.019531 65.453125 C 219.152344 65.585938 219.324219 65.652344 219.5 65.652344 C 219.667969 65.652344 219.839844 65.585938 219.972656 65.460938 C 221.039062 64.402344 221.589844 62.855469 221.472656 61.363281 C 221.449219 61.109375 221.417969 60.859375 221.359375 60.613281 C 221.339844 60.527344 221.300781 60.449219 221.253906 60.382812 C 228.9375 54.75 237.757812 48.335938 239.238281 47.476562 C 239.941406 47.066406 240.777344 46.597656 241.707031 46.210938 C 234.285156 53.300781 231.488281 65.632812 231.421875 65.917969 L 229.300781 65.84375 C 229.300781 65.84375 229.210938 68.882812 229.238281 72.816406 C 226.644531 74.625 224.1875 76.320312 222.105469 77.746094 C 220.128906 79.101562 217.679688 79.140625 215.605469 78.140625 Z M 42.597656 20.269531 L 39.222656 11.132812 L 39.851562 10.902344 L 43.230469 20.039062 Z M 64.105469 76.539062 L 67.480469 85.671875 L 66.847656 85.90625 L 63.472656 76.769531 Z M 34.589844 24.828125 L 28.605469 17.140625 L 29.140625 16.730469 L 35.117188 24.421875 Z M 72.109375 71.976562 L 78.09375 79.664062 L 77.5625 80.074219 L 71.582031 72.386719 Z M 28.335938 31.597656 L 20.304688 26.074219 L 20.6875 25.523438 L 28.714844 31.042969 Z M 86.015625 71.285156 L 77.984375 65.761719 L 78.367188 65.207031 L 86.394531 70.734375 Z M 24.417969 39.933594 L 15.09375 37.09375 L 15.292969 36.453125 L 24.617188 39.296875 Z M 91.410156 60.355469 L 82.085938 57.511719 L 82.28125 56.871094 L 91.605469 59.710938 Z M 23.210938 49.066406 L 13.460938 49.171875 L 13.457031 48.5 L 23.203125 48.394531 Z M 83.492188 47.742188 L 93.238281 47.632812 L 93.246094 48.304688 L 83.5 48.410156 Z M 24.820312 58.132812 L 15.5625 61.175781 L 15.351562 60.539062 L 24.613281 57.496094 Z M 81.882812 38.675781 L 91.140625 35.628906 L 91.351562 36.265625 L 82.089844 39.3125 Z M 28.707031 65.746094 L 29.097656 66.292969 L 21.191406 71.988281 L 20.800781 71.445312 Z M 77.996094 31.058594 L 77.605469 30.515625 L 85.507812 24.820312 L 85.902344 25.363281 Z M 35.644531 72.777344 L 29.832031 80.59375 L 29.292969 80.195312 L 35.105469 72.375 Z M 71.59375 24.429688 L 71.058594 24.03125 L 76.871094 16.210938 L 77.40625 16.613281 Z M 40.039062 85.972656 L 43.214844 76.765625 L 43.847656 76.984375 L 40.671875 86.1875 Z M 63.488281 20.042969 L 62.855469 19.824219 L 66.03125 10.617188 L 66.664062 10.835938 Z M 52.265625 78.496094 L 52.9375 78.515625 L 52.695312 88.25 L 52.027344 88.234375 Z M 53.664062 18.289062 L 52.992188 18.289062 L 52.992188 8.550781 L 53.664062 8.550781 Z M 53.992188 22.574219 C 68.273438 22.929688 79.5625 34.78125 79.207031 49.042969 C 78.851562 63.308594 66.988281 74.585938 52.710938 74.230469 C 38.429688 73.878906 27.140625 62.027344 27.496094 47.761719 C 27.847656 33.496094 39.710938 22.222656 53.992188 22.574219 Z M 208.523438 70.671875 L 210.285156 70.671875 L 210.285156 75.679688 L 198.492188 75.679688 L 198.492188 70.671875 Z M 261.152344 43.511719 L 258.878906 41.214844 C 258.878906 41.214844 259.855469 42.085938 261.152344 43.511719 Z M 263.769531 105.640625 C 263.488281 108.425781 260.460938 108.503906 260.460938 108.503906 C 260.460938 108.503906 257.652344 102.472656 254.621094 95.203125 L 255.289062 95.203125 C 256.382812 95.203125 257.332031 94.5 257.648438 93.453125 L 266.777344 63.402344 C 266.882812 63.046875 266.683594 62.675781 266.328125 62.566406 C 266.320312 62.5625 266.308594 62.566406 266.300781 62.5625 C 265.957031 62.476562 265.597656 62.667969 265.492188 63.011719 L 256.363281 93.066406 C 256.355469 93.09375 256.335938 93.117188 256.324219 93.148438 C 256.183594 93.507812 255.878906 93.753906 255.503906 93.828125 C 255.433594 93.84375 255.363281 93.863281 255.289062 93.863281 L 254.066406 93.859375 L 250.28125 93.851562 L 247.207031 93.84375 L 231.691406 93.808594 L 231.496094 93.808594 C 231.183594 93.808594 230.9375 94.023438 230.859375 94.308594 C 230.84375 94.359375 230.828125 94.410156 230.828125 94.464844 L 216.0625 94.144531 C 216.0625 94.144531 215.671875 93.628906 215.261719 92.753906 C 215.820312 92.316406 216.183594 92.003906 216.183594 92.003906 C 216.183594 92.003906 216.945312 88.023438 215.871094 85.832031 C 215.871094 85.832031 215.769531 85.746094 215.605469 85.609375 L 215.605469 84.980469 C 217.324219 84.523438 223.132812 83.007812 229.527344 81.5625 C 230.210938 81.40625 230.902344 81.253906 231.597656 81.097656 C 236.765625 79.964844 242.0625 78.953125 245.695312 78.636719 C 245.726562 78.660156 245.761719 78.683594 245.796875 78.699219 C 245.804688 78.699219 245.945312 78.761719 246.136719 78.863281 C 246.609375 79.117188 247.421875 79.671875 247.472656 80.492188 C 247.496094 80.847656 247.789062 81.121094 248.144531 81.121094 C 248.15625 81.121094 248.171875 81.121094 248.1875 81.121094 C 248.554688 81.09375 248.835938 80.773438 248.8125 80.40625 C 248.761719 79.613281 248.375 79 247.917969 78.539062 C 247.890625 78.507812 247.863281 78.476562 247.835938 78.445312 C 248.03125 78.457031 248.234375 78.492188 248.441406 78.546875 C 248.449219 78.550781 248.457031 78.554688 248.46875 78.558594 C 249.039062 78.71875 249.625 79.085938 250.082031 79.832031 C 250.277344 80.148438 250.691406 80.246094 251.007812 80.054688 C 251.101562 80 251.167969 79.921875 251.21875 79.835938 C 251.351562 79.625 251.367188 79.355469 251.230469 79.128906 C 250.375 77.742188 249.15625 77.226562 248.039062 77.125 C 247.53125 77.078125 247.042969 77.117188 246.613281 77.203125 C 246.878906 76.285156 247.148438 75.355469 247.421875 74.421875 C 247.238281 73.410156 247.15625 72.550781 247.195312 71.878906 C 247.601562 64.636719 254.710938 49.753906 261.15625 43.515625 C 263.285156 45.855469 266.277344 49.691406 267.269531 53.652344 C 267.449219 54.128906 267.585938 54.648438 267.65625 55.21875 C 267.6875 55.464844 267.671875 55.828125 267.625 56.273438 C 268.425781 71.050781 262.226562 101.839844 262.226562 101.839844 C 262.226562 101.839844 264.019531 103.226562 263.769531 105.640625 Z M 234.898438 64.871094 C 237.699219 56.011719 241.429688 48.097656 242.496094 45.914062 C 242.683594 45.523438 242.789062 45.308594 242.789062 45.308594 C 242.789062 45.308594 242.796875 45.296875 242.796875 45.289062 C 242.804688 45.28125 242.828125 45.242188 242.859375 45.183594 C 243.222656 44.519531 245.160156 41.144531 247.238281 39.824219 C 247.464844 39.675781 247.695312 39.546875 247.925781 39.460938 C 249.542969 38.835938 253.308594 37.878906 256.199219 37.199219 C 256.976562 37.011719 257.6875 36.851562 258.277344 36.71875 C 258.433594 36.683594 258.585938 36.652344 258.722656 36.621094 C 259.078125 36.542969 259.40625 36.84375 259.363281 37.207031 L 258.878906 41.214844 C 258.878906 41.214844 255.265625 43.726562 251.585938 48.671875 C 249.230469 51.832031 246.859375 55.996094 245.375 61.136719 C 244.898438 62.785156 244.515625 64.53125 244.253906 66.378906 L 238.597656 66.175781 L 234.539062 66.03125 C 234.660156 65.640625 234.777344 65.25 234.898438 64.871094 Z M 89.246094 242.929688 L 73.171875 242.929688 L 73.171875 238.683594 L 89.246094 238.683594 Z M 89.320312 232.914062 L 68.359375 232.914062 L 69.789062 253.566406 L 70.09375 257.941406 L 93.414062 257.941406 L 93.414062 232.914062 Z M 54.324219 187.5 L 38.253906 187.5 L 38.253906 183.25 L 54.324219 183.25 Z M 54.785156 177.285156 L 33.441406 177.285156 L 35.175781 202.3125 L 58.496094 202.3125 L 58.496094 177.285156 Z M 89.246094 187.5 L 73.171875 187.5 L 73.171875 183.25 L 89.246094 183.25 Z M 88.445312 177.285156 L 68.359375 177.285156 L 70.09375 202.3125 L 93.414062 202.3125 L 93.414062 177.285156 Z M 54.324219 132.070312 L 38.253906 132.070312 L 38.253906 127.820312 L 54.324219 127.820312 Z M 49.5 121.65625 L 33.441406 121.65625 L 35.175781 146.683594 L 58.496094 146.683594 L 58.496094 121.65625 Z M 89.246094 132.070312 L 73.171875 132.070312 L 73.171875 127.820312 L 89.246094 127.820312 Z M 87.46875 121.65625 L 68.359375 121.65625 L 70.09375 146.683594 L 93.414062 146.683594 L 93.414062 121.65625 Z M 146.90625 240.476562 L 146.90625 242.929688 L 130.832031 242.929688 L 130.832031 238.683594 L 146.90625 238.683594 Z M 142.078125 232.914062 L 126.023438 232.914062 L 126.882812 245.378906 L 127.753906 257.941406 L 151.078125 257.941406 L 151.078125 232.914062 Z M 181.820312 242.929688 L 165.75 242.929688 L 165.75 238.683594 L 181.820312 238.683594 Z M 176.996094 232.914062 L 160.9375 232.914062 L 162.242188 251.710938 L 162.5625 256.339844 L 162.671875 257.941406 L 185.996094 257.941406 L 185.996094 232.914062 Z M 146.90625 187.5 L 130.832031 187.5 L 130.832031 183.25 L 146.90625 183.25 Z M 142.078125 177.285156 L 126.023438 177.285156 L 127.753906 202.3125 L 151.078125 202.3125 L 151.078125 177.285156 Z M 181.820312 187.5 L 165.75 187.5 L 165.75 183.25 L 181.820312 183.25 Z M 176.996094 177.285156 L 160.9375 177.285156 L 162.671875 202.3125 L 185.996094 202.3125 L 185.996094 177.285156 Z M 146.90625 132.070312 L 130.832031 132.070312 L 130.832031 127.820312 L 146.90625 127.820312 Z M 142.078125 121.65625 L 126.023438 121.65625 L 127.492188 142.894531 L 127.742188 146.523438 L 127.753906 146.683594 L 151.078125 146.683594 L 151.078125 121.65625 L 142.078125 121.65625 " fill-opacity="1" fill-rule="nonzero"/><path fill="#216749" d="M 200.1875 52.46875 C 199.09375 51.394531 196.605469 49.648438 193.734375 51.28125 C 193.5 51.417969 193.289062 51.546875 193.082031 51.679688 C 190.773438 53.183594 190.214844 54.617188 188.59375 54.617188 C 186.828125 54.617188 186.292969 54.527344 186.292969 54.527344 C 186.292969 54.527344 186.058594 56.890625 189.90625 58.082031 C 193.003906 59.039062 195.394531 57.910156 197.019531 56.519531 C 198.679688 55.101562 199.542969 53.421875 199.542969 53.421875 L 200.765625 61.128906 L 201.515625 65.847656 L 203.394531 65.847656 C 203.394531 65.847656 203.261719 65.09375 203.054688 63.941406 C 202.410156 60.445312 201.011719 53.277344 200.1875 52.46875 Z M 204.390625 46.835938 C 204.210938 44.601562 208.957031 39.234375 207.167969 33.019531 C 205.375 26.804688 202.960938 17.679688 202.960938 17.679688 C 202.960938 17.679688 198.300781 28.234375 199.375 33.019531 C 200.449219 37.804688 203.046875 46.925781 203.046875 46.925781 L 203.054688 47.042969 L 204.371094 65.5625 L 204.390625 65.847656 L 206.027344 65.847656 C 206.027344 65.847656 204.875 52.585938 204.492188 48.078125 C 204.445312 47.515625 204.410156 47.082031 204.390625 46.835938 Z M 209.761719 45.738281 C 208.773438 47.472656 208.226562 49.140625 207.929688 50.585938 C 207.363281 53.328125 207.703125 55.253906 207.703125 55.253906 L 206.449219 65.847656 L 207.703125 65.847656 C 207.703125 65.847656 208.503906 58.394531 209.148438 56.136719 C 209.394531 55.261719 210.390625 54.347656 211.574219 53.308594 C 213.433594 51.675781 215.769531 49.730469 216.449219 47.105469 C 217.550781 42.808594 217.550781 40.21875 217.550781 40.21875 C 217.550781 40.21875 212.628906 40.703125 209.761719 45.738281 Z M 249.160156 212.015625 C 253.054688 192.050781 256.671875 173.355469 257.5625 168.207031 C 259.589844 156.449219 260.164062 133.285156 260.429688 111.394531 C 260.433594 110.765625 260.441406 110.144531 260.449219 109.519531 C 260.441406 110.050781 260.421875 110.617188 260.394531 111.207031 C 259.441406 134.109375 247.730469 196.734375 247.730469 196.734375 L 229.25 196.734375 C 228.886719 202.398438 228.40625 208.570312 227.871094 214.796875 C 227.816406 215.460938 227.757812 216.132812 227.699219 216.796875 C 225.664062 240.085938 222.984375 263.46875 222.984375 263.46875 L 223.015625 263.484375 L 237.851562 269.632812 C 237.851562 269.632812 240.359375 256.902344 243.601562 240.402344 C 243.738281 239.707031 243.875 239.003906 244.015625 238.296875 C 244.703125 234.789062 245.417969 231.136719 246.148438 227.414062 C 247 223.070312 247.867188 218.636719 248.726562 214.238281 C 248.871094 213.496094 249.015625 212.753906 249.160156 212.015625 Z M 233.472656 108.503906 C 233.367188 108.503906 233.269531 108.488281 233.171875 108.472656 C 233.132812 108.523438 233.101562 108.566406 233.066406 108.617188 C 233.066406 108.621094 233.0625 108.621094 233.058594 108.625 C 233.058594 108.625 232.71875 112.625 232.253906 118.78125 L 233.160156 111.136719 Z M 260.457031 108.621094 C 260.457031 108.816406 260.457031 109.011719 260.453125 109.210938 C 260.457031 109.015625 260.457031 108.820312 260.460938 108.625 Z M 265.503906 181.683594 L 252.515625 218.816406 L 251.902344 220.558594 L 246.921875 234.796875 C 247.257812 238.523438 247.636719 242.925781 247.996094 247.152344 C 248.125 248.652344 248.246094 250.128906 248.367188 251.546875 C 248.441406 252.394531 248.507812 253.21875 248.574219 254.015625 C 249.027344 259.425781 249.355469 263.457031 249.367188 263.574219 C 249.367188 263.578125 249.367188 263.585938 249.367188 263.585938 L 249.515625 263.636719 L 250.832031 264.074219 L 264.402344 268.554688 C 264.402344 268.554688 264.507812 258.777344 264.660156 245.464844 C 264.671875 244.429688 264.683594 243.371094 264.699219 242.296875 C 264.820312 231.550781 264.972656 218.960938 265.121094 207.453125 C 265.253906 197.382812 265.386719 188.140625 265.503906 181.695312 C 265.503906 181.691406 265.503906 181.6875 265.503906 181.683594 Z M 51.082031 210.238281 C 51.082031 210.238281 50.746094 210.296875 50.257812 210.773438 C 49.609375 211.402344 48.691406 212.765625 47.898438 215.699219 C 47.320312 217.832031 46.816406 220.800781 46.535156 224.917969 C 46.234375 223.53125 45.878906 222.019531 45.441406 220.417969 C 45.273438 219.8125 45.097656 219.191406 44.90625 218.5625 C 44.859375 218.398438 44.8125 218.238281 44.761719 218.074219 C 43.390625 213.601562 41.144531 211.101562 39.386719 209.753906 C 38.976562 209.4375 38.59375 209.1875 38.257812 208.988281 C 37.382812 208.476562 36.800781 208.304688 36.800781 208.304688 C 37.113281 208.878906 37.410156 209.570312 37.691406 210.347656 C 37.90625 210.941406 38.105469 211.589844 38.300781 212.273438 C 39.464844 216.410156 40.257812 221.960938 40.742188 226.265625 C 40.824219 227.007812 40.902344 227.710938 40.96875 228.363281 C 40.976562 228.453125 40.984375 228.542969 40.996094 228.632812 C 41.25 231.191406 41.367188 232.914062 41.367188 232.914062 L 51.304688 232.914062 L 51.230469 225.4375 Z M 86.066406 217.0625 L 86.042969 214.542969 L 86 210.238281 C 86 210.238281 83.058594 210.730469 81.785156 221.3125 C 81.671875 222.226562 81.574219 223.222656 81.492188 224.300781 C 81.480469 224.5 81.464844 224.714844 81.449219 224.917969 C 81.421875 224.785156 81.390625 224.648438 81.363281 224.511719 C 81.234375 223.914062 81.089844 223.292969 80.933594 222.65625 C 80.582031 221.214844 80.167969 219.675781 79.679688 218.074219 C 77.371094 210.539062 72.582031 208.601562 71.824219 208.339844 C 71.757812 208.316406 71.71875 208.304688 71.71875 208.304688 C 71.734375 208.339844 71.753906 208.378906 71.773438 208.414062 C 74.007812 212.605469 75.296875 222.507812 75.886719 228.363281 C 75.988281 229.371094 76.070312 230.257812 76.132812 230.972656 C 76.234375 232.183594 76.285156 232.914062 76.285156 232.914062 L 86.222656 232.914062 L 86.148438 225.4375 Z M 51.082031 154.605469 C 51.082031 154.605469 47.503906 155.21875 46.535156 169.289062 C 46.09375 167.242188 45.519531 164.917969 44.761719 162.449219 C 42.25 154.242188 36.800781 152.675781 36.800781 152.675781 C 38.597656 155.949219 39.789062 162.917969 40.5 168.609375 C 40.6875 170.101562 40.84375 171.507812 40.96875 172.734375 C 41.242188 175.441406 41.367188 177.285156 41.367188 177.285156 L 51.304688 177.285156 L 51.230469 169.808594 Z M 86 154.605469 C 86 154.605469 84.746094 154.824219 83.519531 157.914062 C 83.164062 158.8125 82.808594 159.945312 82.492188 161.394531 C 82.054688 163.382812 81.679688 165.964844 81.449219 169.289062 C 81.011719 167.242188 80.4375 164.917969 79.679688 162.449219 C 77.167969 154.242188 71.71875 152.675781 71.71875 152.675781 C 73.988281 156.808594 75.289062 166.832031 75.886719 172.734375 C 76.160156 175.441406 76.285156 177.285156 76.285156 177.285156 L 86.222656 177.285156 L 86.148438 169.808594 Z M 51.082031 98.976562 C 51.082031 98.976562 47.503906 99.589844 46.535156 113.660156 C 46.09375 111.613281 45.519531 109.289062 44.761719 106.816406 C 42.25 98.613281 36.800781 97.046875 36.800781 97.046875 C 39.070312 101.179688 40.375 111.203125 40.96875 117.105469 C 41.242188 119.816406 41.367188 121.65625 41.367188 121.65625 L 51.304688 121.65625 L 51.230469 114.179688 Z M 86.148438 114.179688 L 86 98.976562 C 86 98.976562 82.421875 99.589844 81.449219 113.660156 C 81.027344 111.675781 80.472656 109.429688 79.75 107.046875 C 79.726562 106.96875 79.703125 106.894531 79.679688 106.816406 C 79.394531 105.890625 79.074219 105.050781 78.726562 104.289062 C 76.003906 98.285156 71.71875 97.046875 71.71875 97.046875 C 73.988281 101.179688 75.289062 111.203125 75.886719 117.105469 C 76.160156 119.816406 76.285156 121.65625 76.285156 121.65625 L 86.222656 121.65625 L 86.210938 120.726562 Z M 143.660156 210.238281 C 143.660156 210.238281 140.082031 210.847656 139.109375 224.917969 C 138.675781 222.871094 138.097656 220.546875 137.339844 218.074219 C 136.769531 216.210938 136.042969 214.691406 135.265625 213.453125 C 134.925781 212.90625 134.574219 212.417969 134.21875 211.976562 C 131.839844 209.019531 129.378906 208.304688 129.378906 208.304688 C 130.699219 210.710938 131.691406 215.101562 132.40625 219.519531 C 132.59375 220.671875 132.761719 221.820312 132.910156 222.941406 C 133.175781 224.914062 133.386719 226.785156 133.546875 228.363281 C 133.820312 231.070312 133.945312 232.914062 133.945312 232.914062 L 143.882812 232.914062 L 143.808594 225.4375 Z M 178.578125 210.238281 C 178.578125 210.238281 175 210.847656 174.03125 224.917969 C 173.59375 222.871094 173.015625 220.546875 172.257812 218.074219 C 169.746094 209.875 164.296875 208.304688 164.296875 208.304688 C 166.566406 212.4375 167.871094 222.460938 168.464844 228.363281 C 168.476562 228.476562 168.488281 228.585938 168.5 228.695312 C 168.566406 229.390625 168.625 230.023438 168.675781 230.574219 C 168.800781 232.023438 168.863281 232.914062 168.863281 232.914062 L 178.800781 232.914062 L 178.726562 225.4375 Z M 143.660156 154.605469 C 143.660156 154.605469 140.082031 155.21875 139.109375 169.289062 C 138.675781 167.242188 138.097656 164.917969 137.339844 162.449219 C 136.082031 158.339844 134.085938 155.894531 132.410156 154.480469 C 131.6875 153.871094 131.03125 153.453125 130.507812 153.175781 C 129.820312 152.804688 129.378906 152.675781 129.378906 152.675781 C 131.648438 156.808594 132.949219 166.832031 133.546875 172.734375 C 133.820312 175.441406 133.945312 177.285156 133.945312 177.285156 L 143.882812 177.285156 L 143.808594 169.808594 Z M 178.578125 154.605469 C 178.578125 154.605469 175 155.21875 174.03125 169.289062 C 173.59375 167.242188 173.015625 164.917969 172.257812 162.449219 C 169.746094 154.242188 164.296875 152.675781 164.296875 152.675781 C 166.566406 156.808594 167.871094 166.832031 168.464844 172.734375 C 168.738281 175.441406 168.863281 177.285156 168.863281 177.285156 L 178.800781 177.285156 L 178.726562 169.808594 Z M 143.660156 98.976562 C 143.660156 98.976562 140.082031 99.589844 139.109375 113.660156 C 138.675781 111.613281 138.097656 109.289062 137.339844 106.816406 C 134.824219 98.613281 129.378906 97.046875 129.378906 97.046875 C 131.539062 100.980469 132.824219 110.265625 133.457031 116.234375 C 133.488281 116.535156 133.519531 116.824219 133.546875 117.105469 C 133.601562 117.648438 133.652344 118.15625 133.695312 118.621094 C 133.867188 120.476562 133.945312 121.65625 133.945312 121.65625 L 143.882812 121.65625 L 143.808594 114.179688 Z M 178.726562 114.179688 L 178.800781 121.65625 L 168.863281 121.65625 C 168.863281 121.65625 168.738281 119.816406 168.464844 117.105469 C 168.113281 113.617188 167.515625 108.6875 166.613281 104.390625 C 166.4375 103.539062 166.246094 102.71875 166.042969 101.933594 C 165.539062 99.96875 164.960938 98.253906 164.296875 97.046875 C 164.296875 97.046875 169.746094 98.613281 172.257812 106.816406 C 172.277344 106.878906 172.292969 106.9375 172.3125 106.996094 C 172.511719 107.660156 172.699219 108.3125 172.878906 108.949219 C 173.339844 110.628906 173.722656 112.214844 174.03125 113.660156 C 174.125 112.277344 174.246094 111.015625 174.382812 109.882812 C 174.449219 109.371094 174.515625 108.890625 174.582031 108.429688 C 175.945312 99.425781 178.578125 98.976562 178.578125 98.976562 L 178.695312 110.949219 L 178.710938 112.550781 L 178.726562 114.179688 " fill-opacity="1" fill-rule="nonzero"/><path fill="#f6846b" d="M 197.230469 42.972656 C 197.253906 43.265625 197.253906 43.539062 197.246094 43.808594 C 197.164062 48.84375 192.707031 49.128906 192.707031 49.128906 C 192.707031 49.128906 192.480469 49.132812 192.105469 49.136719 C 189.957031 49.136719 182.671875 49.054688 181.359375 47.855469 C 179.8125 46.445312 178.671875 47.320312 178.066406 46.246094 C 177.464844 45.171875 180.214844 44.433594 183.976562 44.554688 C 187.738281 44.675781 189.882812 42.15625 189.882812 42.15625 C 189.882812 42.15625 189.882812 42.15625 188.070312 42.089844 C 186.257812 42.019531 185.386719 40.746094 186.714844 40.175781 C 188.042969 39.605469 192.839844 40.277344 194.113281 40.378906 C 195.390625 40.480469 197.230469 42.972656 197.230469 42.972656 Z M 215.871094 85.832031 C 216.945312 88.023438 216.183594 92.003906 216.183594 92.003906 C 216.183594 92.003906 215.820312 92.316406 215.261719 92.753906 C 213.949219 93.777344 211.550781 95.5 210.1875 95.53125 C 208.246094 95.574219 208.277344 94.546875 206.800781 94.726562 C 205.324219 94.90625 205.011719 94.859375 203.9375 94.417969 C 202.859375 93.972656 201.90625 93.34375 200.339844 93.433594 C 199.011719 93.511719 198.167969 91.757812 197.941406 91.222656 C 197.898438 91.125 197.875 91.066406 197.875 91.066406 L 204.679688 91.066406 C 205.800781 90.214844 208.644531 86.28125 208.644531 86.28125 C 208.644531 86.28125 205.53125 86.054688 204.390625 85.476562 C 203.246094 84.894531 203.5625 83.507812 204.59375 83.507812 C 205.621094 83.507812 208.753906 83.148438 210.589844 83.015625 C 211.871094 82.921875 213.929688 84.328125 215.0625 85.1875 C 215.285156 85.355469 215.46875 85.5 215.605469 85.609375 C 215.769531 85.746094 215.871094 85.832031 215.871094 85.832031 Z M 245.066406 22.09375 C 245.152344 22.078125 247.238281 21.621094 248.539062 23.117188 C 248.660156 23.261719 248.644531 23.472656 248.503906 23.589844 C 248.441406 23.648438 248.363281 23.675781 248.285156 23.675781 C 248.191406 23.675781 248.097656 23.636719 248.03125 23.558594 C 246.996094 22.367188 245.234375 22.746094 245.21875 22.75 C 245.039062 22.789062 244.859375 22.679688 244.816406 22.496094 C 244.773438 22.316406 244.886719 22.140625 245.066406 22.09375 Z M 239.511719 23.589844 C 239.375 23.472656 239.359375 23.261719 239.480469 23.117188 C 240.78125 21.621094 242.863281 22.078125 242.949219 22.09375 C 243.128906 22.140625 243.242188 22.316406 243.203125 22.496094 C 243.160156 22.679688 242.976562 22.789062 242.796875 22.75 C 242.78125 22.746094 241.019531 22.367188 239.984375 23.558594 C 239.957031 23.589844 239.921875 23.613281 239.886719 23.628906 C 239.984375 23.621094 240.078125 23.601562 240.175781 23.601562 C 241.222656 23.601562 242.097656 24.316406 242.363281 25.277344 C 242.765625 25.074219 243.324219 24.984375 243.976562 25.3125 C 244.226562 24.335938 245.113281 23.601562 246.171875 23.601562 C 247.300781 23.601562 248.230469 24.425781 248.410156 25.5 L 251.6875 25.078125 L 251.203125 21.632812 C 245.566406 21.210938 243.253906 17.777344 243.179688 17.667969 C 243.160156 17.683594 243.140625 17.699219 243.117188 17.714844 C 241.023438 19.707031 239.421875 22.988281 239.199219 23.472656 C 239.160156 23.609375 239.121094 23.75 239.089844 23.890625 C 239.269531 23.789062 239.464844 23.710938 239.671875 23.664062 C 239.617188 23.652344 239.558594 23.632812 239.511719 23.589844 Z M 245.695312 33.289062 C 244.84375 33.589844 243.898438 33.695312 243.019531 33.480469 C 242.890625 33.449219 242.8125 33.320312 242.84375 33.195312 C 242.867188 33.085938 242.96875 33.011719 243.074219 33.011719 C 243.902344 33.007812 244.710938 32.914062 245.488281 32.667969 C 246.257812 32.414062 246.988281 32.023438 247.617188 31.492188 C 247.71875 31.40625 247.867188 31.417969 247.957031 31.519531 C 248.03125 31.609375 248.027344 31.742188 247.949219 31.832031 C 247.34375 32.492188 246.554688 33 245.695312 33.289062 Z M 243.113281 27.070312 L 244.011719 31.34375 C 244.011719 31.34375 242.886719 31.417969 241.96875 31.222656 C 241.050781 31.027344 243.113281 27.070312 243.113281 27.070312 Z M 258.246094 33.222656 L 255.183594 29.921875 C 257.617188 29.015625 258.363281 25.375 256.8125 24.148438 C 255.539062 23.132812 254.417969 24.085938 253.828125 24.804688 C 253.550781 25.144531 253.394531 25.429688 253.394531 25.429688 C 253.394531 25.429688 253.363281 25.476562 253.328125 25.542969 C 253.175781 25.820312 252.773438 26.59375 252.519531 27.4375 L 251.964844 27.039062 L 251.78125 25.742188 L 248.417969 26.175781 C 248.269531 27.285156 247.328125 28.148438 246.171875 28.148438 C 244.984375 28.148438 244.015625 27.230469 243.917969 26.070312 C 243.128906 25.523438 242.605469 25.875 242.433594 26.027344 C 242.355469 27.210938 241.378906 28.148438 240.175781 28.148438 C 239.667969 28.148438 239.207031 27.976562 238.828125 27.695312 C 238.96875 31.574219 240.113281 35.09375 241.042969 36.320312 C 242.277344 37.949219 247.371094 37.074219 247.371094 37.074219 L 247.328125 38.007812 L 247.238281 39.824219 C 247.464844 39.675781 247.695312 39.546875 247.925781 39.460938 C 249.542969 38.835938 253.308594 37.878906 256.199219 37.195312 C 256.976562 37.011719 257.6875 36.851562 258.277344 36.71875 C 258.277344 35.6875 258.269531 34.492188 258.246094 33.222656 Z M 241.042969 25.21875 C 241.40625 25.21875 241.703125 25.511719 241.703125 25.875 C 241.703125 26.238281 241.40625 26.535156 241.042969 26.535156 C 240.679688 26.535156 240.382812 26.238281 240.382812 25.875 C 240.382812 25.511719 240.679688 25.21875 241.042969 25.21875 Z M 240.175781 27.476562 C 241.0625 27.476562 241.78125 26.761719 241.78125 25.875 C 241.78125 24.992188 241.0625 24.273438 240.175781 24.273438 C 239.667969 24.273438 239.21875 24.515625 238.925781 24.882812 C 238.914062 24.988281 238.890625 25.085938 238.882812 25.1875 C 238.839844 25.699219 238.820312 26.207031 238.816406 26.714844 C 239.097656 27.167969 239.601562 27.476562 240.175781 27.476562 Z M 246.714844 26.535156 C 246.351562 26.535156 246.054688 26.238281 246.054688 25.875 C 246.054688 25.511719 246.351562 25.21875 246.714844 25.21875 C 247.078125 25.21875 247.371094 25.511719 247.371094 25.875 C 247.371094 26.238281 247.078125 26.535156 246.714844 26.535156 Z M 246.171875 24.273438 C 245.289062 24.273438 244.570312 24.992188 244.570312 25.875 C 244.570312 26.761719 245.289062 27.476562 246.171875 27.476562 C 247.058594 27.476562 247.777344 26.761719 247.777344 25.875 C 247.777344 24.992188 247.058594 24.273438 246.171875 24.273438 " fill-opacity="1" fill-rule="nonzero"/><g clip-path="url(#644e47b991)"><path fill="#216749" d="M -7.722656 270.648438 L 291.527344 270.648438 L 291.527344 293.898438 L -7.722656 293.898438 Z M -7.722656 270.648438 " fill-opacity="1" fill-rule="nonzero"/></g></svg>