<svg xmlns="http://www.w3.org/2000/svg" xmlns:xlink="http://www.w3.org/1999/xlink" width="500" zoomAndPan="magnify" viewBox="0 0 375 374.999991" height="500" preserveAspectRatio="xMidYMid meet" version="1.0"><defs><g/><clipPath id="b600e4a3c7"><path d="M 35.082031 102 L 47 102 L 47 110 L 35.082031 110 Z M 35.082031 102 " clip-rule="nonzero"/></clipPath><clipPath id="746229831f"><path d="M 35.082031 179 L 46 179 L 46 187 L 35.082031 187 Z M 35.082031 179 " clip-rule="nonzero"/></clipPath><clipPath id="482d2b4084"><path d="M 325 102 L 336.582031 102 L 336.582031 110 L 325 110 Z M 325 102 " clip-rule="nonzero"/></clipPath><clipPath id="06182a8f24"><path d="M 326 179 L 336.582031 179 L 336.582031 187 L 326 187 Z M 326 179 " clip-rule="nonzero"/></clipPath><clipPath id="1965f110bb"><path d="M 37 15 L 335 15 L 335 285.75 L 37 285.75 Z M 37 15 " clip-rule="nonzero"/></clipPath></defs><path fill="#a8cf45" d="M 205.460938 261.726562 L 289.867188 261.726562 C 292.058594 261.726562 293.882812 263.5 293.882812 265.6875 C 293.882812 267.875 292.109375 269.648438 289.867188 269.648438 L 205.460938 269.648438 L 205.460938 261.675781 Z M 205.460938 261.726562 " fill-opacity="1" fill-rule="evenodd"/><path fill="#a8cf45" d="M 81.847656 261.726562 L 166.253906 261.726562 L 166.253906 269.699219 L 81.847656 269.699219 C 79.65625 269.699219 77.832031 267.929688 77.832031 265.742188 C 77.832031 263.550781 79.605469 261.78125 81.847656 261.78125 Z M 81.847656 261.726562 " fill-opacity="1" fill-rule="evenodd"/><path fill="#a8cf45" d="M 205.460938 245.785156 L 249.671875 245.785156 C 251.863281 245.785156 253.632812 247.554688 253.632812 249.742188 C 253.632812 251.933594 251.863281 253.703125 249.671875 253.703125 L 205.460938 253.703125 L 205.460938 245.730469 Z M 205.460938 245.785156 " fill-opacity="1" fill-rule="evenodd"/><path fill="#a8cf45" d="M 122.042969 245.785156 L 166.253906 245.785156 L 166.253906 253.757812 L 122.042969 253.757812 C 119.855469 253.757812 118.082031 251.984375 118.082031 249.796875 C 118.082031 247.609375 119.855469 245.835938 122.042969 245.835938 Z M 122.042969 245.785156 " fill-opacity="1" fill-rule="evenodd"/><path fill="#a8cf45" d="M 196.023438 148.867188 C 195.710938 140.789062 192.011719 133.183594 185.859375 127.867188 C 179.707031 133.132812 176.003906 140.738281 175.691406 148.867188 C 175.378906 156.996094 178.453125 164.863281 184.191406 170.59375 L 185.910156 143.761719 L 187.628906 170.59375 C 193.367188 164.863281 196.441406 156.996094 196.128906 148.867188 Z M 196.023438 148.867188 " fill-opacity="1" fill-rule="evenodd"/><path fill="#a8cf45" d="M 179.082031 126.203125 C 181.792969 121.042969 182.207031 115 180.28125 109.527344 C 174.542969 110.570312 169.539062 114.007812 166.464844 118.90625 C 163.386719 123.804688 162.449219 129.796875 163.960938 135.425781 L 174.648438 119.375 L 166.097656 136.621094 C 171.730469 135.109375 176.421875 131.308594 179.132812 126.199219 Z M 179.082031 126.203125 " fill-opacity="1" fill-rule="evenodd"/><path fill="#a8cf45" d="M 171.15625 104.421875 C 172.824219 101.191406 173.085938 97.4375 171.886719 94.050781 C 168.339844 94.730469 165.210938 96.8125 163.285156 99.886719 C 161.355469 102.960938 160.78125 106.660156 161.71875 110.152344 L 168.394531 100.148438 L 163.074219 110.882812 C 166.566406 109.945312 169.539062 107.597656 171.207031 104.367188 Z M 171.15625 104.421875 " fill-opacity="1" fill-rule="evenodd"/><path fill="#a8cf45" d="M 168.027344 88.632812 C 169.695312 85.453125 169.957031 81.652344 168.757812 78.265625 C 165.210938 78.941406 162.085938 81.027344 160.15625 84.101562 C 158.226562 87.175781 157.652344 90.875 158.589844 94.363281 L 165.210938 84.359375 L 159.894531 95.09375 C 163.386719 94.15625 166.308594 91.8125 168.027344 88.582031 Z M 168.027344 88.632812 " fill-opacity="1" fill-rule="evenodd"/><path fill="#a8cf45" d="M 169.800781 70.34375 C 173.1875 67.320312 175.171875 62.996094 175.222656 58.464844 C 170.738281 57.683594 166.152344 58.828125 162.5 61.589844 C 158.902344 64.351562 156.558594 68.519531 156.140625 73 L 168.339844 64.144531 L 157.339844 74.460938 C 161.875 74.878906 166.359375 73.367188 169.75 70.34375 Z M 169.800781 70.34375 " fill-opacity="1" fill-rule="evenodd"/><path fill="#a8cf45" d="M 171.730469 53.148438 C 174.542969 52.160156 176.839844 50.074219 178.039062 47.363281 C 175.535156 45.75 172.460938 45.230469 169.59375 45.957031 C 166.722656 46.6875 164.222656 48.617188 162.8125 51.222656 L 172.460938 48.980469 L 163.179688 52.367188 C 165.785156 53.773438 168.914062 54.035156 171.730469 53.097656 Z M 171.730469 53.148438 " fill-opacity="1" fill-rule="evenodd"/><path fill="#5c964a" d="M 177.253906 10.316406 C 177.984375 7.453125 177.515625 4.378906 175.898438 1.824219 C 173.1875 3.023438 171.050781 5.316406 170.113281 8.128906 C 169.121094 10.941406 169.382812 14.015625 170.789062 16.675781 L 174.230469 7.398438 L 171.988281 17.039062 C 174.597656 15.632812 176.527344 13.183594 177.308594 10.265625 Z M 177.253906 10.316406 " fill-opacity="1" fill-rule="evenodd"/><path fill="#5c964a" d="M 164.484375 19.332031 C 164.535156 16.050781 163.230469 12.871094 160.886719 10.578125 C 158.277344 12.558594 156.558594 15.582031 156.246094 18.8125 C 155.933594 22.09375 156.976562 25.324219 159.164062 27.824219 L 160.519531 16.988281 L 160.574219 27.878906 C 163.023438 25.6875 164.484375 22.5625 164.535156 19.28125 Z M 164.484375 19.332031 " fill-opacity="1" fill-rule="evenodd"/><path fill="#5c964a" d="M 155.828125 29.597656 C 154.835938 26.472656 152.59375 23.867188 149.675781 22.40625 C 147.800781 25.117188 147.171875 28.503906 147.851562 31.679688 C 148.582031 34.910156 150.613281 37.671875 153.429688 39.289062 L 151.292969 28.605469 L 154.734375 38.925781 C 156.402344 36.058594 156.765625 32.671875 155.828125 29.546875 Z M 155.828125 29.597656 " fill-opacity="1" fill-rule="evenodd"/><path fill="#5c964a" d="M 147.644531 38.351562 C 145.765625 34.964844 142.535156 32.464844 138.726562 31.523438 C 137.214844 35.121094 137.269531 39.183594 138.882812 42.726562 C 140.5 46.269531 143.523438 48.980469 147.226562 50.230469 L 142.167969 38.351562 L 148.683594 49.5 C 149.882812 45.800781 149.519531 41.738281 147.644531 38.351562 Z M 147.644531 38.351562 " fill-opacity="1" fill-rule="evenodd"/><path fill="#5c964a" d="M 141.699219 52.941406 C 139.824219 49.554688 136.589844 47.050781 132.785156 46.113281 C 131.273438 49.710938 131.324219 53.773438 132.941406 57.316406 C 134.558594 60.859375 137.582031 63.570312 141.28125 64.820312 L 136.226562 52.941406 L 142.742188 64.089844 C 143.941406 60.390625 143.578125 56.328125 141.699219 52.941406 Z M 141.699219 52.941406 " fill-opacity="1" fill-rule="evenodd"/><path fill="#5c964a" d="M 138.308594 68.988281 C 136.433594 65.601562 133.203125 63.101562 129.394531 62.164062 C 127.882812 65.757812 127.9375 69.824219 129.550781 73.367188 C 131.167969 76.910156 134.191406 79.617188 137.894531 80.871094 L 132.835938 68.988281 L 139.351562 80.140625 C 140.550781 76.441406 140.1875 72.375 138.3125 68.988281 Z M 138.308594 68.988281 " fill-opacity="1" fill-rule="evenodd"/><path fill="#5c964a" d="M 126.007812 62.265625 C 126.007812 59.820312 125.015625 57.472656 123.242188 55.804688 C 121.3125 57.316406 120.0625 59.558594 119.855469 62.007812 C 119.644531 64.457031 120.429688 66.851562 122.097656 68.675781 L 123.035156 60.601562 L 123.140625 68.730469 C 124.964844 67.0625 126.007812 64.769531 126.007812 62.320312 Z M 126.007812 62.265625 " fill-opacity="1" fill-rule="evenodd"/><path fill="#5c964a" d="M 119.800781 53.617188 C 120.375 51.222656 119.90625 48.71875 118.550781 46.6875 C 116.308594 47.730469 114.640625 49.605469 113.859375 51.949219 C 113.078125 54.296875 113.335938 56.847656 114.535156 58.984375 L 117.246094 51.324219 L 115.527344 59.246094 C 117.664062 58.046875 119.230469 56.015625 119.800781 53.617188 Z M 119.800781 53.617188 " fill-opacity="1" fill-rule="evenodd"/><path fill="#5c964a" d="M 116.570312 43.925781 C 117.875 41.84375 118.289062 39.339844 117.664062 36.945312 C 115.214844 37.203125 113.023438 38.457031 111.511719 40.433594 C 110.054688 42.414062 109.425781 44.863281 109.898438 47.3125 L 114.953125 40.957031 L 110.78125 47.9375 C 113.179688 47.46875 115.320312 46.0625 116.621094 43.976562 Z M 116.570312 43.925781 " fill-opacity="1" fill-rule="evenodd"/><path fill="#5c964a" d="M 114.378906 34.027344 C 115.578125 32.984375 116.308594 31.472656 116.363281 29.859375 C 114.796875 29.546875 113.179688 29.910156 111.878906 30.898438 C 110.574219 31.835938 109.742188 33.296875 109.582031 34.910156 L 113.910156 31.835938 L 110 35.433594 C 111.617188 35.589844 113.179688 35.121094 114.378906 34.027344 Z M 114.378906 34.027344 " fill-opacity="1" fill-rule="evenodd"/><path fill="#5c964a" d="M 116.464844 25.324219 C 117.664062 24.28125 118.394531 22.769531 118.445312 21.15625 C 116.882812 20.84375 115.214844 21.261719 113.964844 22.199219 C 112.660156 23.136719 111.824219 24.59375 111.667969 26.210938 L 115.996094 23.136719 L 112.085938 26.730469 C 113.703125 26.886719 115.265625 26.417969 116.464844 25.324219 Z M 116.464844 25.324219 " fill-opacity="1" fill-rule="evenodd"/><path fill="#5c964a" d="M 115.007812 18.5 C 115.945312 17.195312 116.257812 15.582031 115.945312 13.964844 C 114.328125 14.070312 112.867188 14.800781 111.824219 15.996094 C 110.78125 17.25 110.3125 18.8125 110.523438 20.425781 L 114.015625 16.414062 L 111.042969 20.792969 C 112.660156 20.582031 114.066406 19.695312 115.007812 18.394531 Z M 115.007812 18.5 " fill-opacity="1" fill-rule="evenodd"/><path fill="#5c964a" d="M 103.222656 22.457031 C 102.597656 21 102.648438 19.332031 103.328125 17.875 C 104.890625 18.289062 106.144531 19.382812 106.871094 20.792969 C 107.601562 22.199219 107.707031 23.867188 107.132812 25.375 L 104.632812 20.6875 L 106.507812 25.636719 C 104.996094 25.0625 103.796875 23.917969 103.171875 22.40625 Z M 103.222656 22.457031 " fill-opacity="1" fill-rule="evenodd"/><path fill="#5c964a" d="M 99.050781 28.816406 C 98.425781 27.355469 98.480469 25.6875 99.15625 24.230469 C 100.722656 24.648438 101.972656 25.742188 102.703125 27.148438 C 103.433594 28.605469 103.535156 30.273438 102.960938 31.734375 L 100.460938 27.042969 L 102.335938 31.992188 C 100.824219 31.421875 99.625 30.273438 99.050781 28.761719 Z M 99.050781 28.816406 " fill-opacity="1" fill-rule="evenodd"/><path fill="#5c964a" d="M 95.976562 36.632812 C 95.246094 34.808594 95.246094 32.722656 96.082031 30.953125 C 98.007812 31.472656 99.574219 32.828125 100.460938 34.597656 C 101.347656 36.371094 101.449219 38.457031 100.773438 40.277344 L 97.695312 34.496094 L 100.042969 40.644531 C 98.167969 39.964844 96.707031 38.507812 95.976562 36.683594 Z M 95.976562 36.632812 " fill-opacity="1" fill-rule="evenodd"/><path fill="#5c964a" d="M 95.195312 46.636719 C 93.839844 45.175781 93.160156 43.25 93.316406 41.269531 C 95.296875 41.113281 97.226562 41.789062 98.6875 43.144531 C 100.148438 44.5 100.980469 46.375 100.980469 48.355469 L 96.082031 44.03125 L 100.40625 48.980469 C 98.425781 48.980469 96.550781 48.148438 95.195312 46.6875 Z M 95.195312 46.636719 " fill-opacity="1" fill-rule="evenodd"/><path fill="#5c964a" d="M 94.621094 54.242188 C 93.265625 52.785156 92.585938 50.855469 92.796875 48.875 C 94.777344 48.71875 96.707031 49.398438 98.167969 50.753906 C 99.625 52.105469 100.460938 53.984375 100.460938 55.960938 L 95.558594 51.636719 L 99.886719 56.589844 C 97.90625 56.589844 96.027344 55.753906 94.671875 54.296875 Z M 94.621094 54.242188 " fill-opacity="1" fill-rule="evenodd"/><path fill="#5c964a" d="M 92.171875 60.808594 C 90.816406 59.347656 90.136719 57.421875 90.292969 55.441406 C 92.273438 55.285156 94.203125 55.960938 95.664062 57.316406 C 97.125 58.671875 97.957031 60.546875 97.957031 62.527344 L 93.058594 58.152344 L 97.382812 63.101562 C 95.402344 63.101562 93.527344 62.265625 92.171875 60.808594 Z M 92.171875 60.808594 " fill-opacity="1" fill-rule="evenodd"/><path fill="#5c964a" d="M 84.351562 61.328125 C 83.253906 59.664062 82.890625 57.628906 83.359375 55.703125 C 85.339844 55.859375 87.164062 56.847656 88.363281 58.410156 C 89.5625 59.976562 90.085938 61.953125 89.773438 63.933594 L 85.601562 58.878906 L 89.09375 64.457031 C 87.164062 64.144531 85.394531 62.996094 84.296875 61.382812 Z M 84.351562 61.328125 " fill-opacity="1" fill-rule="evenodd"/><path fill="#5c964a" d="M 77.9375 64.714844 C 76.53125 63.882812 75.488281 62.476562 75.121094 60.914062 C 76.6875 60.289062 78.355469 60.339844 79.867188 61.070312 C 81.378906 61.796875 82.472656 63.101562 82.941406 64.664062 L 77.9375 62.421875 L 82.628906 65.289062 C 81.066406 65.757812 79.34375 65.601562 77.886719 64.769531 Z M 77.9375 64.714844 " fill-opacity="1" fill-rule="evenodd"/><path fill="#5c964a" d="M 71.523438 67.53125 C 70.117188 66.695312 69.074219 65.289062 68.710938 63.726562 C 70.222656 63.101562 71.941406 63.152344 73.453125 63.882812 C 74.964844 64.613281 76.0625 65.914062 76.53125 67.476562 L 71.523438 65.238281 L 76.164062 68.101562 C 74.601562 68.570312 72.878906 68.363281 71.472656 67.582031 Z M 71.523438 67.53125 " fill-opacity="1" fill-rule="evenodd"/><path fill="#a8cf45" d="M 73.402344 73.523438 C 71.835938 74.09375 70.117188 73.992188 68.65625 73.261719 C 69.179688 71.699219 70.324219 70.394531 71.785156 69.71875 C 73.296875 69.042969 75.019531 68.988281 76.53125 69.613281 L 71.628906 72.011719 L 76.789062 70.238281 C 76.164062 71.75 74.914062 72.949219 73.351562 73.523438 Z M 73.402344 73.523438 " fill-opacity="1" fill-rule="evenodd"/><path fill="#a8cf45" d="M 80.542969 74.722656 C 78.980469 75.292969 77.261719 75.191406 75.800781 74.460938 C 76.320312 72.898438 77.46875 71.59375 78.929688 70.917969 C 80.441406 70.238281 82.160156 70.1875 83.671875 70.8125 L 78.773438 73.210938 L 83.933594 71.4375 C 83.308594 72.949219 82.054688 74.148438 80.492188 74.722656 Z M 80.542969 74.722656 " fill-opacity="1" fill-rule="evenodd"/><path fill="#a8cf45" d="M 89.71875 76.335938 C 88 76.960938 86.121094 76.855469 84.558594 76.023438 C 85.132812 74.304688 86.332031 72.898438 88 72.117188 C 89.617188 71.332031 91.492188 71.332031 93.160156 72.011719 L 87.792969 74.667969 L 93.421875 72.742188 C 92.742188 74.40625 91.386719 75.710938 89.667969 76.335938 Z M 89.71875 76.335938 " fill-opacity="1" fill-rule="evenodd"/><path fill="#a8cf45" d="M 97.019531 79.304688 C 95.039062 80.035156 92.796875 79.929688 90.867188 78.941406 C 91.546875 76.910156 93.003906 75.242188 94.933594 74.355469 C 96.863281 73.46875 99.105469 73.417969 101.085938 74.199219 L 94.726562 77.324219 L 101.449219 75.035156 C 100.617188 77.011719 99.050781 78.578125 97.019531 79.304688 Z M 97.019531 79.304688 " fill-opacity="1" fill-rule="evenodd"/><path fill="#a8cf45" d="M 103.847656 86.914062 C 100.929688 88.007812 97.644531 87.800781 94.828125 86.390625 C 95.769531 83.421875 97.957031 80.972656 100.824219 79.617188 C 103.691406 78.316406 106.925781 78.210938 109.84375 79.410156 L 100.511719 83.996094 L 110.3125 80.609375 C 109.113281 83.527344 106.769531 85.765625 103.796875 86.863281 Z M 103.847656 86.914062 " fill-opacity="1" fill-rule="evenodd"/><path fill="#a8cf45" d="M 111.148438 93.949219 C 108.226562 95.042969 104.945312 94.832031 102.128906 93.425781 C 103.117188 90.457031 105.257812 88.007812 108.125 86.652344 C 110.992188 85.351562 114.222656 85.246094 117.144531 86.445312 L 107.8125 91.03125 L 117.664062 87.644531 C 116.464844 90.5625 114.121094 92.800781 111.148438 93.894531 Z M 111.148438 93.949219 " fill-opacity="1" fill-rule="evenodd"/><path fill="#a8cf45" d="M 116.152344 102.648438 C 113.023438 102.492188 110.105469 101.035156 108.070312 98.636719 C 110.105469 96.292969 113.078125 94.886719 116.203125 94.78125 C 119.332031 94.675781 122.355469 95.875 124.597656 98.117188 L 114.222656 98.6875 L 124.597656 99.417969 C 122.355469 101.605469 119.28125 102.753906 116.152344 102.597656 Z M 116.152344 102.648438 " fill-opacity="1" fill-rule="evenodd"/><path fill="#a8cf45" d="M 125.277344 113.902344 C 122.148438 113.746094 119.230469 112.289062 117.195312 109.890625 C 119.230469 107.546875 122.199219 106.140625 125.328125 106.035156 C 128.457031 105.933594 131.480469 107.128906 133.722656 109.371094 L 123.347656 109.945312 L 133.722656 110.671875 C 131.480469 112.863281 128.40625 114.058594 125.277344 113.902344 Z M 125.277344 113.902344 " fill-opacity="1" fill-rule="evenodd"/><path fill="#a8cf45" d="M 128.25 126.148438 C 124.753906 125.261719 121.835938 122.917969 120.117188 119.738281 C 122.984375 117.550781 126.632812 116.71875 130.175781 117.34375 C 133.722656 117.96875 136.796875 120.050781 138.78125 123.074219 L 126.996094 121.25 L 138.414062 124.535156 C 135.390625 126.460938 131.6875 127.035156 128.195312 126.148438 Z M 128.25 126.148438 " fill-opacity="1" fill-rule="evenodd"/><path fill="#a8cf45" d="M 106.613281 128.335938 C 103.328125 124.480469 101.816406 119.480469 102.441406 114.476562 C 107.5 114.269531 112.347656 116.195312 115.945312 119.792969 C 119.488281 123.386719 121.417969 128.234375 121.210938 133.289062 L 109.167969 121.71875 L 119.699219 134.695312 C 114.640625 134.484375 109.949219 132.191406 106.664062 128.335938 Z M 106.613281 128.335938 " fill-opacity="1" fill-rule="evenodd"/><path fill="#a8cf45" d="M 92.535156 130.890625 C 90.136719 128.023438 88.992188 124.324219 89.40625 120.574219 C 93.160156 120.417969 96.8125 121.875 99.417969 124.535156 C 102.078125 127.191406 103.484375 130.839844 103.328125 134.589844 L 94.359375 125.992188 L 102.179688 135.632812 C 98.425781 135.476562 94.933594 133.757812 92.484375 130.890625 Z M 92.535156 130.890625 " fill-opacity="1" fill-rule="evenodd"/><path fill="#a8cf45" d="M 76.0625 128.441406 C 74.445312 125.054688 74.234375 121.148438 75.589844 117.707031 C 79.242188 118.488281 82.421875 120.78125 84.296875 124.011719 C 86.175781 127.242188 86.644531 131.097656 85.601562 134.695312 L 79.03125 124.167969 L 84.195312 135.476562 C 80.597656 134.382812 77.625 131.878906 76.007812 128.492188 Z M 76.0625 128.441406 " fill-opacity="1" fill-rule="evenodd"/><path fill="#a8cf45" d="M 62.503906 118.4375 C 62.347656 114.6875 63.808594 111.039062 66.414062 108.433594 C 69.441406 110.621094 71.421875 114.007812 71.890625 117.707031 C 72.359375 121.40625 71.210938 125.160156 68.761719 128.023438 L 66.988281 115.726562 L 67.199219 128.128906 C 64.332031 125.679688 62.660156 122.1875 62.503906 118.4375 Z M 62.503906 118.4375 " fill-opacity="1" fill-rule="evenodd"/><path fill="#a8cf45" d="M 54.839844 111.558594 C 54.738281 109.371094 55.570312 107.234375 57.136719 105.671875 C 58.90625 106.972656 60.054688 108.953125 60.316406 111.089844 C 60.578125 113.277344 59.898438 115.46875 58.492188 117.136719 L 57.449219 109.945312 L 57.550781 117.238281 C 55.882812 115.832031 54.894531 113.746094 54.789062 111.558594 Z M 54.839844 111.558594 " fill-opacity="1" fill-rule="evenodd"/><path fill="#a8cf45" d="M 47.125 102.390625 C 47.019531 100.199219 47.855469 98.0625 49.417969 96.5 C 51.191406 97.804688 52.339844 99.785156 52.601562 101.972656 C 52.859375 104.160156 52.183594 106.347656 50.773438 108.015625 L 49.730469 100.824219 L 49.835938 108.121094 C 48.167969 106.714844 47.175781 104.628906 47.074219 102.441406 Z M 47.125 102.390625 " fill-opacity="1" fill-rule="evenodd"/><path fill="#a8cf45" d="M 40.660156 95.199219 C 40.554688 93.011719 41.390625 90.875 42.953125 89.308594 C 44.726562 90.613281 45.875 92.59375 46.136719 94.78125 C 46.394531 96.96875 45.71875 99.160156 44.308594 100.824219 L 43.265625 93.636719 L 43.371094 100.929688 C 41.703125 99.472656 40.710938 97.4375 40.609375 95.25 Z M 40.660156 95.199219 " fill-opacity="1" fill-rule="evenodd"/><g clip-path="url(#b600e4a3c7)"><path fill="#5c964a" d="M 39.511719 108.589844 C 37.585938 107.546875 36.125 105.777344 35.550781 103.640625 C 37.53125 102.753906 39.828125 102.753906 41.859375 103.585938 C 43.894531 104.472656 45.457031 106.140625 46.1875 108.171875 L 39.410156 105.464844 L 45.769531 109.007812 C 43.683594 109.734375 41.390625 109.578125 39.460938 108.539062 Z M 39.511719 108.589844 " fill-opacity="1" fill-rule="evenodd"/></g><path fill="#5c964a" d="M 42.015625 117.707031 C 40.085938 116.664062 38.628906 114.894531 38.054688 112.757812 C 40.085938 111.871094 42.328125 111.871094 44.363281 112.707031 C 46.394531 113.589844 47.960938 115.257812 48.691406 117.292969 L 41.910156 114.582031 L 48.273438 118.125 C 46.1875 118.855469 43.894531 118.699219 41.964844 117.65625 Z M 42.015625 117.707031 " fill-opacity="1" fill-rule="evenodd"/><path fill="#5c964a" d="M 46.5 126.148438 C 44.152344 125.730469 42.015625 124.324219 40.765625 122.292969 C 42.589844 120.679688 44.988281 119.949219 47.386719 120.15625 C 49.785156 120.417969 51.972656 121.617188 53.433594 123.542969 L 45.457031 122.917969 L 53.277344 124.535156 C 51.347656 125.992188 48.898438 126.566406 46.5 126.148438 Z M 46.5 126.148438 " fill-opacity="1" fill-rule="evenodd"/><path fill="#5c964a" d="M 52.757812 134.277344 C 50.359375 134.539062 47.960938 133.808594 46.136719 132.246094 C 47.386719 130.214844 49.472656 128.753906 51.816406 128.285156 C 54.164062 127.816406 56.667969 128.390625 58.59375 129.796875 L 50.773438 131.515625 L 58.75 130.785156 C 57.34375 132.714844 55.15625 134.015625 52.757812 134.277344 Z M 52.757812 134.277344 " fill-opacity="1" fill-rule="evenodd"/><path fill="#5c964a" d="M 57.238281 141.46875 C 54.839844 141.730469 52.441406 141 50.617188 139.4375 C 51.871094 137.402344 53.957031 135.945312 56.300781 135.476562 C 58.648438 135.007812 61.148438 135.582031 63.078125 136.988281 L 55.257812 138.707031 L 63.234375 137.976562 C 61.828125 139.90625 59.636719 141.207031 57.238281 141.46875 Z M 57.238281 141.46875 " fill-opacity="1" fill-rule="evenodd"/><path fill="#5c964a" d="M 60.472656 148.347656 C 58.074219 148.605469 55.675781 147.878906 53.851562 146.3125 C 55.101562 144.28125 57.1875 142.824219 59.535156 142.355469 C 61.878906 141.886719 64.382812 142.457031 66.3125 143.863281 L 58.492188 145.585938 L 66.46875 144.855469 C 65.058594 146.78125 62.871094 148.085938 60.472656 148.347656 Z M 60.472656 148.347656 " fill-opacity="1" fill-rule="evenodd"/><path fill="#5c964a" d="M 53.746094 158.296875 C 51.347656 158.558594 48.949219 157.828125 47.125 156.265625 C 48.375 154.234375 50.460938 152.773438 52.808594 152.304688 C 55.15625 151.835938 57.65625 152.359375 59.585938 153.816406 L 51.765625 155.535156 L 59.742188 154.808594 C 58.335938 156.734375 56.144531 158.039062 53.746094 158.296875 Z M 53.746094 158.296875 " fill-opacity="1" fill-rule="evenodd"/><path fill="#5c964a" d="M 47.960938 167.78125 C 45.769531 168.042969 43.527344 167.363281 41.859375 165.90625 C 43.007812 164.03125 44.9375 162.675781 47.125 162.257812 C 49.316406 161.839844 51.558594 162.308594 53.382812 163.613281 L 46.1875 165.226562 L 53.539062 164.550781 C 52.234375 166.324219 50.203125 167.519531 48.011719 167.78125 Z M 47.960938 167.78125 " fill-opacity="1" fill-rule="evenodd"/><path fill="#5c964a" d="M 42.953125 176.222656 C 40.765625 176.484375 38.523438 175.804688 36.855469 174.347656 C 38 172.472656 39.929688 171.167969 42.121094 170.699219 C 44.308594 170.28125 46.550781 170.75 48.375 172.054688 L 41.183594 173.617188 L 48.53125 172.941406 C 47.230469 174.710938 45.195312 175.910156 43.007812 176.171875 Z M 42.953125 176.222656 " fill-opacity="1" fill-rule="evenodd"/><g clip-path="url(#746229831f)"><path fill="#5c964a" d="M 41.441406 185.914062 C 39.460938 186.90625 37.117188 187.007812 35.082031 186.226562 C 35.550781 184.039062 36.90625 182.164062 38.785156 181.070312 C 40.710938 179.921875 43.007812 179.660156 45.09375 180.285156 L 38.886719 184.195312 L 45.5625 181.121094 C 44.9375 183.257812 43.421875 185.027344 41.441406 186.019531 Z M 41.441406 185.914062 " fill-opacity="1" fill-rule="evenodd"/></g><path fill="#5c964a" d="M 47.648438 190.550781 C 46.65625 192.53125 44.882812 194.042969 42.796875 194.667969 C 41.859375 192.6875 41.753906 190.34375 42.589844 188.3125 C 43.421875 186.226562 45.039062 184.613281 47.125 183.832031 L 44.570312 190.707031 L 47.960938 184.195312 C 48.742188 186.277344 48.636719 188.570312 47.699219 190.550781 Z M 47.648438 190.550781 " fill-opacity="1" fill-rule="evenodd"/><path fill="#5c964a" d="M 56.09375 181.953125 C 56.457031 184.144531 55.882812 186.382812 54.527344 188.15625 C 52.601562 187.0625 51.191406 185.238281 50.671875 183.101562 C 50.148438 180.964844 50.515625 178.671875 51.765625 176.796875 L 53.695312 183.882812 L 52.652344 176.585938 C 54.527344 177.839844 55.78125 179.765625 56.144531 181.953125 Z M 56.09375 181.953125 " fill-opacity="1" fill-rule="evenodd"/><path fill="#5c964a" d="M 61.777344 175.492188 C 62.140625 177.679688 61.566406 179.921875 60.210938 181.695312 C 58.28125 180.597656 56.875 178.777344 56.351562 176.640625 C 55.832031 174.503906 56.195312 172.210938 57.449219 170.335938 L 59.378906 177.421875 L 58.335938 170.125 C 60.210938 171.324219 61.460938 173.304688 61.777344 175.492188 Z M 61.777344 175.492188 " fill-opacity="1" fill-rule="evenodd"/><path fill="#5c964a" d="M 68.398438 168.300781 C 68.761719 170.492188 68.1875 172.730469 66.832031 174.503906 C 64.902344 173.410156 63.496094 171.585938 62.976562 169.449219 C 62.453125 167.3125 62.816406 165.019531 64.070312 163.144531 L 66 170.230469 L 64.957031 162.9375 C 66.78125 164.132812 68.082031 166.113281 68.449219 168.300781 Z M 68.398438 168.300781 " fill-opacity="1" fill-rule="evenodd"/><path fill="#5c964a" d="M 76.113281 162.363281 C 76.476562 164.550781 75.902344 166.792969 74.546875 168.5625 C 72.621094 167.46875 71.210938 165.644531 70.691406 163.507812 C 70.167969 161.371094 70.535156 159.078125 71.785156 157.203125 L 73.714844 164.289062 L 72.671875 156.996094 C 74.496094 158.246094 75.800781 160.175781 76.113281 162.363281 Z M 76.113281 162.363281 " fill-opacity="1" fill-rule="evenodd"/><path fill="#5c964a" d="M 84.140625 165.070312 C 83.359375 167.15625 81.742188 168.824219 79.710938 169.65625 C 78.5625 167.78125 78.25 165.488281 78.875 163.351562 C 79.5 161.214844 80.960938 159.445312 82.941406 158.402344 L 81.117188 165.539062 L 83.828125 158.714844 C 84.820312 160.695312 84.976562 162.988281 84.195312 165.070312 Z M 84.140625 165.070312 " fill-opacity="1" fill-rule="evenodd"/><path fill="#5c964a" d="M 92.847656 158.664062 C 92.066406 160.746094 90.449219 162.414062 88.417969 163.25 C 87.269531 161.371094 86.957031 159.078125 87.53125 156.945312 C 88.15625 154.808594 89.617188 153.035156 91.597656 151.992188 L 89.773438 159.132812 L 92.484375 152.304688 C 93.472656 154.285156 93.628906 156.578125 92.847656 158.664062 Z M 92.847656 158.664062 " fill-opacity="1" fill-rule="evenodd"/><path fill="#5c964a" d="M 102.078125 154.910156 C 100.5625 156.527344 98.480469 157.515625 96.238281 157.515625 C 95.871094 155.328125 96.445312 153.085938 97.800781 151.316406 C 99.15625 149.542969 101.191406 148.449219 103.378906 148.242188 L 99 154.183594 L 104.058594 148.867188 C 104.265625 151.054688 103.535156 153.296875 102.023438 154.910156 Z M 102.078125 154.910156 " fill-opacity="1" fill-rule="evenodd"/><path fill="#5c964a" d="M 112.136719 154.183594 C 110.625 155.796875 108.542969 156.789062 106.300781 156.789062 C 105.933594 154.597656 106.507812 152.359375 107.863281 150.585938 C 109.21875 148.816406 111.253906 147.722656 113.441406 147.511719 L 109.0625 153.453125 L 114.121094 148.136719 C 114.328125 150.324219 113.546875 152.515625 112.085938 154.183594 Z M 112.136719 154.183594 " fill-opacity="1" fill-rule="evenodd"/><path fill="#5c964a" d="M 96.394531 168.511719 C 94.359375 169.34375 92.015625 169.34375 90.03125 168.40625 C 90.605469 166.269531 92.066406 164.445312 94.046875 163.457031 C 96.027344 162.414062 98.324219 162.308594 100.40625 163.039062 L 93.941406 166.582031 L 100.773438 163.875 C 100.042969 165.957031 98.425781 167.625 96.394531 168.511719 Z M 96.394531 168.511719 " fill-opacity="1" fill-rule="evenodd"/><path fill="#5c964a" d="M 91.960938 177.367188 C 89.929688 178.203125 87.582031 178.203125 85.601562 177.265625 C 86.175781 175.128906 87.636719 173.304688 89.617188 172.316406 C 91.597656 171.273438 93.890625 171.117188 95.976562 171.898438 L 89.511719 175.441406 L 96.339844 172.730469 C 95.613281 174.816406 93.996094 176.484375 91.960938 177.367188 Z M 91.960938 177.367188 " fill-opacity="1" fill-rule="evenodd"/><path fill="#5c964a" d="M 87.476562 187.632812 C 85.445312 188.519531 83.097656 188.46875 81.117188 187.53125 C 81.691406 185.394531 83.152344 183.621094 85.132812 182.578125 C 87.113281 181.539062 89.40625 181.433594 91.492188 182.164062 L 85.027344 185.707031 L 91.859375 182.996094 C 91.074219 185.082031 89.511719 186.746094 87.476562 187.632812 Z M 87.476562 187.632812 " fill-opacity="1" fill-rule="evenodd"/><path fill="#5c964a" d="M 86.019531 197.429688 C 83.984375 198.316406 81.640625 198.261719 79.65625 197.324219 C 80.230469 195.1875 81.691406 193.417969 83.671875 192.375 C 85.652344 191.332031 87.949219 191.230469 90.03125 191.957031 L 83.566406 195.5 L 90.398438 192.792969 C 89.617188 194.875 88.050781 196.542969 86.019531 197.429688 Z M 86.019531 197.429688 " fill-opacity="1" fill-rule="evenodd"/><path fill="#5c964a" d="M 88.261719 208.269531 C 87.164062 210.195312 85.339844 211.601562 83.203125 212.125 C 82.367188 210.089844 82.367188 207.746094 83.308594 205.765625 C 84.246094 203.734375 85.964844 202.171875 88.050781 201.492188 L 85.183594 208.269531 L 88.886719 201.910156 C 89.5625 203.996094 89.355469 206.339844 88.3125 208.269531 Z M 88.261719 208.269531 " fill-opacity="1" fill-rule="evenodd"/><path fill="#a8cf45" d="M 98.167969 206.601562 C 98.375 208.789062 97.695312 211.027344 96.238281 212.695312 C 94.359375 211.5 93.058594 209.570312 92.640625 207.433594 C 92.222656 205.246094 92.742188 203.003906 94.097656 201.234375 L 95.613281 208.425781 L 95.039062 201.078125 C 96.8125 202.433594 97.957031 204.410156 98.167969 206.652344 Z M 211.769531 201.179688 C 213.90625 204.621094 217.347656 207.015625 221.308594 207.746094 C 222.664062 203.941406 222.40625 199.773438 220.582031 196.179688 C 218.753906 192.582031 215.472656 189.925781 211.613281 188.832031 L 217.453125 200.867188 L 210.152344 189.664062 C 209.058594 193.574219 209.683594 197.691406 211.820312 201.128906 Z M 220.109375 189.769531 C 222.25 193.210938 225.691406 195.605469 229.652344 196.386719 C 231.058594 192.582031 230.800781 188.414062 228.921875 184.820312 C 227.097656 181.226562 223.8125 178.566406 219.953125 177.472656 L 225.792969 189.507812 L 218.496094 178.308594 C 217.398438 182.214844 218.027344 186.332031 220.109375 189.769531 Z M 229.128906 180.441406 C 229.859375 183.621094 231.839844 186.382812 234.65625 188.050781 C 236.742188 185.496094 237.628906 182.214844 237.210938 178.984375 C 236.742188 175.753906 234.96875 172.835938 232.257812 170.960938 L 233.511719 181.746094 L 230.902344 171.21875 C 229.027344 173.929688 228.402344 177.265625 229.078125 180.441406 Z M 238.828125 177.890625 C 239.558594 181.070312 241.539062 183.832031 244.355469 185.496094 C 246.441406 182.945312 247.324219 179.660156 246.910156 176.429688 C 246.441406 173.199219 244.667969 170.28125 241.957031 168.40625 L 243.207031 179.191406 L 240.601562 168.667969 C 238.722656 171.375 238.097656 174.710938 238.777344 177.890625 Z M 249.097656 178.203125 C 249.777344 181.121094 251.601562 183.671875 254.207031 185.183594 C 256.136719 182.839844 256.972656 179.816406 256.554688 176.847656 C 256.136719 173.878906 254.46875 171.21875 252.019531 169.5 L 253.164062 179.402344 L 250.765625 169.710938 C 249.046875 172.160156 248.472656 175.285156 249.097656 178.203125 Z M 260.308594 182.578125 C 260.152344 184.769531 260.933594 186.957031 262.445312 188.570312 C 264.269531 187.320312 265.519531 185.394531 265.886719 183.203125 C 266.199219 181.015625 265.625 178.777344 264.269531 177.054688 L 262.964844 184.300781 L 263.332031 176.953125 C 261.609375 178.308594 260.515625 180.390625 260.359375 182.578125 Z M 266.824219 188.207031 C 265.78125 190.1875 265.625 192.480469 266.355469 194.5625 C 268.546875 194.148438 270.472656 192.84375 271.621094 190.96875 C 272.820312 189.09375 273.132812 186.800781 272.613281 184.664062 L 268.546875 190.8125 L 271.828125 184.246094 C 269.691406 184.820312 267.867188 186.277344 266.824219 188.207031 Z M 269.535156 196.230469 C 268.492188 198.210938 268.335938 200.503906 269.066406 202.589844 C 271.257812 202.171875 273.183594 200.867188 274.332031 198.992188 C 275.53125 197.117188 275.84375 194.824219 275.269531 192.6875 L 271.203125 198.785156 L 274.488281 192.21875 C 272.351562 192.792969 270.527344 194.25 269.484375 196.230469 Z M 273.394531 206.546875 C 273.183594 208.738281 273.863281 210.976562 275.324219 212.644531 C 277.199219 211.445312 278.503906 209.519531 278.921875 207.382812 C 279.335938 205.195312 278.816406 202.953125 277.460938 201.179688 L 275.949219 208.371094 L 276.523438 201.023438 C 274.75 202.378906 273.601562 204.359375 273.394531 206.601562 Z M 159.789062 201.128906 C 157.652344 204.566406 154.210938 206.964844 150.25 207.695312 C 148.84375 203.890625 149.15625 199.722656 150.980469 196.128906 C 152.804688 192.53125 156.089844 189.875 159.945312 188.78125 L 154.109375 200.816406 L 161.40625 189.613281 C 162.5 193.523438 161.875 197.636719 159.738281 201.078125 Z M 151.449219 189.71875 C 149.3125 193.15625 145.871094 195.554688 141.90625 196.335938 C 140.5 192.53125 140.8125 188.363281 142.636719 184.769531 C 144.460938 181.171875 147.746094 178.515625 151.605469 177.421875 L 145.765625 189.457031 L 153.066406 178.253906 C 154.160156 182.164062 153.535156 186.277344 151.398438 189.71875 Z M 142.429688 180.390625 C 141.699219 183.570312 139.71875 186.332031 136.851562 188 C 134.765625 185.445312 133.878906 182.164062 134.296875 178.933594 C 134.765625 175.703125 136.539062 172.785156 139.25 170.90625 L 137.996094 181.695312 L 140.605469 171.167969 C 142.480469 173.878906 143.105469 177.210938 142.429688 180.390625 Z M 132.730469 177.839844 C 132.003906 181.015625 130.019531 183.777344 127.152344 185.445312 C 125.066406 182.890625 124.183594 179.609375 124.597656 176.378906 C 125.066406 173.148438 126.839844 170.230469 129.550781 168.355469 L 128.300781 179.140625 L 130.90625 168.613281 C 132.785156 171.324219 133.410156 174.660156 132.730469 177.839844 Z M 122.460938 178.152344 C 121.785156 181.070312 119.957031 183.621094 117.351562 185.132812 C 115.476562 182.789062 114.589844 179.765625 115.058594 176.796875 C 115.476562 173.824219 117.089844 171.167969 119.59375 169.449219 L 118.445312 179.347656 L 120.84375 169.65625 C 122.566406 172.105469 123.140625 175.234375 122.511719 178.152344 Z M 111.253906 182.527344 C 111.410156 184.714844 110.625 186.90625 109.167969 188.519531 C 107.34375 187.269531 106.089844 185.339844 105.726562 183.152344 C 105.359375 180.964844 105.988281 178.722656 107.34375 177.003906 L 108.644531 184.246094 L 108.28125 176.898438 C 110 178.253906 111.097656 180.339844 111.253906 182.527344 Z M 104.734375 188.15625 C 105.777344 190.136719 105.933594 192.425781 105.203125 194.511719 C 103.015625 194.09375 101.085938 192.792969 99.9375 190.917969 C 98.738281 189.039062 98.375 186.75 98.949219 184.613281 L 103.015625 190.761719 L 99.730469 184.195312 C 101.867188 184.769531 103.691406 186.226562 104.734375 188.15625 Z M 102.023438 196.179688 C 103.066406 198.160156 103.222656 200.453125 102.492188 202.535156 C 100.304688 202.121094 98.375 200.816406 97.226562 198.941406 C 96.027344 197.066406 95.664062 194.773438 96.238281 192.636719 L 100.304688 198.730469 L 97.019531 192.167969 C 99.15625 192.742188 100.980469 194.199219 102.023438 196.179688 Z M 102.023438 196.179688 " fill-opacity="1" fill-rule="evenodd"/><path fill="#5c964a" d="M 88.363281 110.621094 C 85.652344 107.441406 84.402344 103.273438 84.921875 99.105469 C 89.09375 98.949219 93.160156 100.566406 96.132812 103.535156 C 99.105469 106.503906 100.667969 110.570312 100.511719 114.738281 L 90.503906 105.152344 L 99.261719 115.9375 C 95.089844 115.726562 91.128906 113.851562 88.417969 110.621094 Z M 88.363281 110.621094 " fill-opacity="1" fill-rule="evenodd"/><path fill="#5c964a" d="M 75.695312 108.746094 C 74.601562 106.140625 74.652344 103.222656 75.800781 100.667969 C 78.511719 101.398438 80.804688 103.273438 82.054688 105.777344 C 83.359375 108.277344 83.566406 111.195312 82.578125 113.851562 L 78.09375 105.671875 L 81.484375 114.320312 C 78.824219 113.382812 76.738281 111.351562 75.644531 108.746094 Z M 75.695312 108.746094 " fill-opacity="1" fill-rule="evenodd"/><path fill="#5c964a" d="M 63.027344 99.941406 C 61.933594 97.335938 61.984375 94.417969 63.132812 91.863281 C 65.84375 92.59375 68.136719 94.46875 69.386719 96.96875 C 70.691406 99.472656 70.847656 102.390625 69.910156 105.046875 L 65.425781 96.867188 L 68.8125 105.515625 C 66.15625 104.578125 64.070312 102.546875 62.976562 99.941406 Z M 63.027344 99.941406 " fill-opacity="1" fill-rule="evenodd"/><path fill="#5c964a" d="M 51.558594 91.238281 C 51.402344 88.425781 52.390625 85.664062 54.320312 83.628906 C 56.613281 85.246094 58.179688 87.695312 58.59375 90.507812 C 59.011719 93.269531 58.230469 96.136719 56.457031 98.324219 L 54.894531 89.152344 L 55.257812 98.480469 C 53.070312 96.710938 51.714844 94.105469 51.558594 91.289062 Z M 51.558594 91.238281 " fill-opacity="1" fill-rule="evenodd"/><path fill="#5c964a" d="M 78.042969 80.660156 C 75.539062 81.910156 73.609375 84.152344 72.828125 86.863281 C 75.382812 88.058594 78.300781 88.164062 80.910156 87.121094 C 83.515625 86.078125 85.601562 83.996094 86.59375 81.390625 L 77.832031 84.621094 L 86.121094 80.296875 C 83.515625 79.304688 80.542969 79.410156 78.042969 80.660156 Z M 78.042969 80.660156 " fill-opacity="1" fill-rule="evenodd"/><path fill="#5c964a" d="M 69.441406 76.492188 C 67.667969 77.378906 66.363281 78.941406 65.789062 80.765625 C 67.5625 81.597656 69.597656 81.652344 71.421875 80.972656 C 73.246094 80.242188 74.652344 78.785156 75.382812 76.960938 L 69.28125 79.203125 L 75.019531 76.179688 C 73.191406 75.503906 71.160156 75.554688 69.386719 76.441406 Z M 69.441406 76.492188 " fill-opacity="1" fill-rule="evenodd"/><path fill="#5c964a" d="M 85.652344 87.851562 C 83.882812 88.738281 82.578125 90.300781 82.003906 92.175781 C 83.777344 93.011719 85.808594 93.0625 87.636719 92.382812 C 89.460938 91.65625 90.867188 90.195312 91.597656 88.371094 L 85.496094 90.613281 L 91.230469 87.589844 C 89.40625 86.914062 87.375 86.964844 85.601562 87.851562 Z M 85.652344 87.851562 " fill-opacity="1" fill-rule="evenodd"/><path fill="#5c964a" d="M 93.683594 92.019531 C 91.910156 92.90625 90.605469 94.417969 90.03125 96.292969 C 91.804688 97.125 93.839844 97.179688 95.664062 96.5 C 97.488281 95.769531 98.894531 94.3125 99.625 92.488281 L 93.527344 94.730469 L 99.261719 91.707031 C 97.4375 91.03125 95.402344 91.082031 93.628906 91.96875 Z M 93.683594 92.019531 " fill-opacity="1" fill-rule="evenodd"/><path fill="#5c964a" d="M 100.5625 97.023438 C 98.582031 97.125 96.757812 98.011719 95.507812 99.523438 C 96.8125 100.980469 98.636719 101.867188 100.5625 101.972656 C 102.492188 102.023438 104.421875 101.292969 105.777344 99.886719 L 99.3125 99.523438 L 105.777344 99.054688 C 104.371094 97.699219 102.492188 96.96875 100.511719 97.023438 Z M 100.5625 97.023438 " fill-opacity="1" fill-rule="evenodd"/><path fill="#5c964a" d="M 110.523438 104.996094 C 108.699219 104.265625 106.664062 104.367188 104.890625 105.203125 C 105.464844 107.078125 106.769531 108.640625 108.542969 109.476562 C 110.3125 110.308594 112.347656 110.414062 114.171875 109.683594 L 108.382812 106.714844 L 114.484375 108.953125 C 113.753906 107.128906 112.347656 105.671875 110.523438 104.996094 Z M 110.523438 104.996094 " fill-opacity="1" fill-rule="evenodd"/><path fill="#5c964a" d="M 75.433594 177.996094 C 75.433594 180.234375 74.546875 182.320312 72.933594 183.832031 C 71.160156 182.476562 70.066406 180.441406 69.910156 178.203125 C 69.699219 175.960938 70.480469 173.773438 71.941406 172.160156 L 72.722656 179.453125 L 72.878906 172.105469 C 74.496094 173.617188 75.433594 175.703125 75.488281 177.941406 Z M 75.433594 177.996094 " fill-opacity="1" fill-rule="evenodd"/><path fill="#5c964a" d="M 68.03125 183.933594 C 68.03125 186.175781 67.144531 188.257812 65.53125 189.769531 C 63.757812 188.414062 62.660156 186.382812 62.503906 184.144531 C 62.296875 181.902344 63.078125 179.714844 64.539062 178.097656 L 65.320312 185.394531 L 65.425781 178.046875 C 67.042969 179.558594 67.980469 181.640625 68.03125 183.882812 Z M 68.03125 183.933594 " fill-opacity="1" fill-rule="evenodd"/><path fill="#5c964a" d="M 75.902344 193.992188 C 74.027344 195.1875 71.785156 195.605469 69.597656 195.085938 C 69.804688 192.898438 70.898438 190.863281 72.671875 189.457031 C 74.445312 188.101562 76.6875 187.53125 78.875 187.894531 L 73.191406 192.53125 L 79.449219 188.625 C 79.085938 190.8125 77.832031 192.738281 75.957031 193.992188 Z M 75.902344 193.992188 " fill-opacity="1" fill-rule="evenodd"/><path fill="#5c964a" d="M 83.308594 176.953125 C 82.527344 179.035156 80.910156 180.703125 78.875 181.539062 C 77.730469 179.660156 77.417969 177.367188 77.988281 175.234375 C 78.617188 173.097656 80.074219 171.324219 82.054688 170.28125 L 80.230469 177.421875 L 82.941406 170.59375 C 83.933594 172.574219 84.089844 174.867188 83.308594 176.953125 Z M 83.308594 176.953125 " fill-opacity="1" fill-rule="evenodd"/><path fill="#5c964a" d="M 129.394531 46.324219 C 129.449219 43.664062 128.351562 41.113281 126.421875 39.289062 C 124.339844 40.902344 122.984375 43.351562 122.722656 46.011719 C 122.460938 48.667969 123.347656 51.273438 125.121094 53.253906 L 126.109375 44.5 L 126.214844 53.304688 C 128.195312 51.535156 129.34375 48.980469 129.34375 46.324219 Z M 129.394531 46.324219 " fill-opacity="1" fill-rule="evenodd"/><path fill="#5c964a" d="M 127.050781 31.578125 C 128.039062 28.503906 127.675781 25.117188 126.058594 22.300781 C 123.035156 23.449219 120.585938 25.792969 119.386719 28.816406 C 118.1875 31.835938 118.238281 35.222656 119.644531 38.140625 L 123.921875 28.242188 L 120.898438 38.558594 C 123.816406 37.152344 126.058594 34.652344 127.050781 31.523438 Z M 127.050781 31.578125 " fill-opacity="1" fill-rule="evenodd"/><path fill="#5c964a" d="M 144.933594 24.28125 C 143.785156 22.199219 141.75 20.6875 139.457031 20.113281 C 138.519531 22.300781 138.570312 24.804688 139.5625 26.992188 C 140.550781 29.179688 142.429688 30.847656 144.671875 31.578125 L 141.542969 24.28125 L 145.558594 31.160156 C 146.289062 28.867188 146.078125 26.367188 144.878906 24.28125 Z M 144.933594 24.28125 " fill-opacity="1" fill-rule="evenodd"/><path fill="#5c964a" d="M 135.234375 32.566406 C 135.234375 29.910156 134.191406 27.355469 132.261719 25.53125 C 130.175781 27.148438 128.820312 29.597656 128.5625 32.253906 C 128.300781 34.910156 129.1875 37.515625 130.960938 39.496094 L 131.949219 30.742188 L 132.054688 39.550781 C 134.035156 37.777344 135.183594 35.222656 135.183594 32.566406 Z M 135.234375 32.566406 " fill-opacity="1" fill-rule="evenodd"/><path fill="#5c964a" d="M 138.257812 17.144531 C 138.3125 14.488281 137.214844 11.933594 135.285156 10.109375 C 133.203125 11.726562 131.847656 14.175781 131.585938 16.832031 C 131.324219 19.488281 132.210938 22.09375 134.035156 24.074219 L 135.027344 15.320312 L 135.128906 24.125 C 137.113281 22.355469 138.257812 19.800781 138.257812 17.144531 Z M 138.257812 17.144531 " fill-opacity="1" fill-rule="evenodd"/><path fill="#5c964a" d="M 149.519531 14.277344 C 149.519531 11.621094 148.476562 9.066406 146.496094 7.242188 C 144.410156 8.859375 143.054688 11.308594 142.792969 13.964844 C 142.535156 16.621094 143.417969 19.226562 145.246094 21.207031 L 146.234375 12.453125 L 146.339844 21.261719 C 148.320312 19.488281 149.46875 16.933594 149.46875 14.277344 Z M 149.519531 14.277344 " fill-opacity="1" fill-rule="evenodd"/><path fill="#5c964a" d="M 158.851562 7.191406 C 158.851562 4.535156 157.808594 1.980469 155.828125 0.15625 C 153.742188 1.773438 152.386719 4.222656 152.125 6.878906 C 151.867188 9.535156 152.753906 12.140625 154.523438 14.121094 L 155.515625 5.367188 L 155.621094 14.175781 C 157.601562 12.402344 158.746094 9.847656 158.746094 7.191406 Z M 158.851562 7.191406 " fill-opacity="1" fill-rule="evenodd"/><path fill="#a8cf45" d="M 192.582031 126.203125 C 189.871094 121.042969 189.457031 115 191.382812 109.527344 C 197.121094 110.570312 202.125 114.007812 205.199219 118.90625 C 208.328125 123.804688 209.214844 129.796875 207.703125 135.425781 L 197.015625 119.375 L 205.566406 136.621094 C 199.933594 135.109375 195.242188 131.308594 192.53125 126.199219 Z M 192.582031 126.203125 " fill-opacity="1" fill-rule="evenodd"/><path fill="#a8cf45" d="M 200.457031 104.421875 C 198.789062 101.191406 198.527344 97.4375 199.726562 94.050781 C 203.269531 94.730469 206.398438 96.8125 208.328125 99.886719 C 210.257812 102.960938 210.832031 106.660156 209.894531 110.152344 L 203.269531 100.148438 L 208.589844 110.882812 C 205.097656 109.945312 202.175781 107.597656 200.457031 104.367188 Z M 200.457031 104.421875 " fill-opacity="1" fill-rule="evenodd"/><path fill="#a8cf45" d="M 203.636719 88.632812 C 201.96875 85.453125 201.707031 81.652344 202.90625 78.265625 C 206.453125 78.941406 209.578125 81.027344 211.507812 84.101562 C 213.4375 87.175781 214.011719 90.875 213.074219 94.363281 L 206.453125 84.359375 L 211.769531 95.09375 C 208.277344 94.15625 205.304688 91.8125 203.636719 88.582031 Z M 203.636719 88.632812 " fill-opacity="1" fill-rule="evenodd"/><path fill="#a8cf45" d="M 201.863281 70.34375 C 198.476562 67.320312 196.492188 62.996094 196.441406 58.464844 C 200.925781 57.683594 205.511719 58.828125 209.164062 61.589844 C 212.761719 64.351562 215.054688 68.519531 215.523438 73 L 203.324219 64.144531 L 214.324219 74.460938 C 209.789062 74.878906 205.304688 73.367188 201.914062 70.34375 Z M 201.863281 70.34375 " fill-opacity="1" fill-rule="evenodd"/><path fill="#a8cf45" d="M 199.933594 53.148438 C 197.121094 52.160156 194.824219 50.074219 193.625 47.363281 C 196.128906 45.75 199.203125 45.230469 202.125 45.957031 C 204.992188 46.6875 207.441406 48.617188 208.902344 51.222656 L 199.257812 48.980469 L 208.539062 52.367188 C 205.929688 53.773438 202.800781 54.035156 199.988281 53.097656 Z M 199.933594 53.148438 " fill-opacity="1" fill-rule="evenodd"/><path fill="#5c964a" d="M 194.355469 10.316406 C 193.625 7.453125 194.09375 4.378906 195.710938 1.824219 C 198.421875 3.023438 200.558594 5.316406 201.550781 8.128906 C 202.542969 10.941406 202.28125 14.015625 200.875 16.675781 L 197.433594 7.398438 L 199.675781 17.039062 C 197.066406 15.632812 195.136719 13.183594 194.355469 10.265625 Z M 194.355469 10.316406 " fill-opacity="1" fill-rule="evenodd"/><path fill="#5c964a" d="M 207.128906 19.332031 C 207.078125 16.050781 208.378906 12.871094 210.726562 10.578125 C 213.332031 12.558594 215.054688 15.582031 215.367188 18.8125 C 215.679688 22.09375 214.636719 25.324219 212.449219 27.824219 L 211.089844 16.988281 L 211.039062 27.878906 C 208.589844 25.6875 207.128906 22.5625 207.078125 19.28125 Z M 207.128906 19.332031 " fill-opacity="1" fill-rule="evenodd"/><path fill="#5c964a" d="M 215.835938 29.597656 C 216.828125 26.472656 219.015625 23.867188 221.988281 22.40625 C 223.863281 25.117188 224.492188 28.503906 223.8125 31.679688 C 223.082031 34.910156 221.050781 37.671875 218.234375 39.289062 L 220.371094 28.605469 L 216.929688 38.925781 C 215.261719 36.058594 214.898438 32.671875 215.835938 29.546875 Z M 215.835938 29.597656 " fill-opacity="1" fill-rule="evenodd"/><path fill="#5c964a" d="M 224.019531 38.351562 C 225.898438 34.964844 229.128906 32.464844 232.9375 31.523438 C 234.449219 35.121094 234.394531 39.183594 232.78125 42.726562 C 231.164062 46.269531 228.140625 48.980469 224.4375 50.230469 L 229.496094 38.351562 L 222.980469 49.5 C 221.78125 45.800781 222.144531 41.738281 224.019531 38.351562 Z M 224.019531 38.351562 " fill-opacity="1" fill-rule="evenodd"/><path fill="#5c964a" d="M 229.964844 52.941406 C 231.839844 49.554688 235.074219 47.050781 238.878906 46.113281 C 240.390625 49.710938 240.339844 53.773438 238.722656 57.316406 C 237.109375 60.859375 234.082031 63.570312 230.382812 64.820312 L 235.4375 52.941406 L 228.921875 64.089844 C 227.722656 60.390625 228.089844 56.328125 229.964844 52.941406 Z M 229.964844 52.941406 " fill-opacity="1" fill-rule="evenodd"/><path fill="#5c964a" d="M 233.355469 68.988281 C 235.230469 65.601562 238.464844 63.101562 242.269531 62.164062 C 243.78125 65.757812 243.730469 69.824219 242.113281 73.367188 C 240.496094 76.910156 237.472656 79.617188 233.769531 80.871094 L 238.828125 68.988281 L 232.3125 80.140625 C 231.113281 76.441406 231.476562 72.375 233.355469 68.988281 Z M 233.355469 68.988281 " fill-opacity="1" fill-rule="evenodd"/><path fill="#5c964a" d="M 245.65625 62.265625 C 245.65625 59.820312 246.648438 57.472656 248.421875 55.804688 C 250.351562 57.316406 251.601562 59.558594 251.808594 62.007812 C 252.019531 64.457031 251.234375 66.851562 249.566406 68.675781 L 248.628906 60.601562 L 248.523438 68.730469 C 246.699219 67.0625 245.65625 64.769531 245.65625 62.320312 Z M 245.65625 62.265625 " fill-opacity="1" fill-rule="evenodd"/><path fill="#5c964a" d="M 251.863281 53.617188 C 251.289062 51.222656 251.757812 48.71875 253.113281 46.6875 C 255.355469 47.730469 257.023438 49.605469 257.804688 51.949219 C 258.585938 54.296875 258.328125 56.847656 257.128906 58.984375 L 254.417969 51.324219 L 256.136719 59.246094 C 254 58.046875 252.433594 56.015625 251.863281 53.617188 Z M 251.863281 53.617188 " fill-opacity="1" fill-rule="evenodd"/><path fill="#5c964a" d="M 255.09375 43.925781 C 253.789062 41.84375 253.375 39.339844 254 36.945312 C 256.449219 37.203125 258.640625 38.457031 260.152344 40.433594 C 261.609375 42.414062 262.183594 44.863281 261.765625 47.3125 L 256.710938 40.957031 L 260.882812 47.9375 C 258.484375 47.46875 256.34375 46.0625 255.042969 43.976562 Z M 255.09375 43.925781 " fill-opacity="1" fill-rule="evenodd"/><path fill="#5c964a" d="M 257.285156 34.027344 C 256.085938 32.984375 255.355469 31.472656 255.300781 29.859375 C 256.867188 29.546875 258.535156 29.910156 259.785156 30.898438 C 261.089844 31.835938 261.925781 33.296875 262.082031 34.910156 L 257.753906 31.835938 L 261.664062 35.433594 C 260.046875 35.589844 258.484375 35.121094 257.285156 34.027344 Z M 257.285156 34.027344 " fill-opacity="1" fill-rule="evenodd"/><path fill="#5c964a" d="M 255.199219 25.324219 C 254 24.28125 253.269531 22.769531 253.21875 21.15625 C 254.78125 20.84375 256.398438 21.261719 257.699219 22.199219 C 259.003906 23.136719 259.839844 24.59375 259.996094 26.210938 L 255.667969 23.136719 L 259.578125 26.730469 C 257.960938 26.886719 256.398438 26.417969 255.199219 25.324219 Z M 255.199219 25.324219 " fill-opacity="1" fill-rule="evenodd"/><path fill="#5c964a" d="M 256.660156 18.5 C 255.71875 17.195312 255.40625 15.582031 255.71875 13.964844 C 257.335938 14.070312 258.796875 14.800781 259.839844 15.996094 C 260.882812 17.25 261.351562 18.8125 261.140625 20.425781 L 257.648438 16.414062 L 260.621094 20.792969 C 259.003906 20.582031 257.597656 19.695312 256.660156 18.394531 Z M 256.660156 18.5 " fill-opacity="1" fill-rule="evenodd"/><path fill="#5c964a" d="M 268.441406 22.457031 C 269.066406 21 269.015625 19.332031 268.335938 17.875 C 266.773438 18.289062 265.519531 19.382812 264.792969 20.792969 C 264.0625 22.199219 263.957031 23.867188 264.53125 25.375 L 267.035156 20.6875 L 265.15625 25.636719 C 266.667969 25.0625 267.867188 23.917969 268.441406 22.40625 Z M 268.441406 22.457031 " fill-opacity="1" fill-rule="evenodd"/><path fill="#5c964a" d="M 272.613281 28.816406 C 273.238281 27.355469 273.183594 25.6875 272.507812 24.230469 C 270.945312 24.648438 269.691406 25.742188 268.960938 27.148438 C 268.230469 28.605469 268.128906 30.273438 268.703125 31.734375 L 271.203125 27.042969 L 269.328125 31.992188 C 270.839844 31.421875 272.039062 30.273438 272.613281 28.761719 Z M 272.613281 28.816406 " fill-opacity="1" fill-rule="evenodd"/><path fill="#5c964a" d="M 275.6875 36.632812 C 276.417969 34.808594 276.367188 32.722656 275.53125 30.953125 C 273.65625 31.472656 272.039062 32.828125 271.152344 34.597656 C 270.265625 36.371094 270.160156 38.457031 270.839844 40.277344 L 273.914062 34.496094 L 271.570312 40.644531 C 273.445312 39.964844 274.90625 38.507812 275.636719 36.683594 Z M 275.6875 36.632812 " fill-opacity="1" fill-rule="evenodd"/><path fill="#5c964a" d="M 276.46875 46.636719 C 277.824219 45.175781 278.503906 43.25 278.347656 41.269531 C 276.367188 41.113281 274.4375 41.789062 272.976562 43.144531 C 271.515625 44.5 270.683594 46.375 270.683594 48.355469 L 275.582031 44.03125 L 271.257812 48.980469 C 273.238281 48.980469 275.113281 48.148438 276.46875 46.6875 Z M 276.46875 46.636719 " fill-opacity="1" fill-rule="evenodd"/><path fill="#5c964a" d="M 277.042969 54.242188 C 278.398438 52.785156 279.078125 50.855469 278.921875 48.875 C 276.9375 48.71875 275.011719 49.398438 273.550781 50.753906 C 272.089844 52.105469 271.257812 53.984375 271.257812 55.960938 L 276.15625 51.636719 L 271.828125 56.589844 C 273.8125 56.589844 275.6875 55.753906 277.042969 54.296875 Z M 277.042969 54.242188 " fill-opacity="1" fill-rule="evenodd"/><path fill="#5c964a" d="M 279.492188 60.808594 C 280.847656 59.347656 281.527344 57.421875 281.320312 55.441406 C 279.335938 55.285156 277.410156 55.960938 275.949219 57.316406 C 274.488281 58.671875 273.65625 60.546875 273.65625 62.527344 L 278.554688 58.152344 L 274.226562 63.101562 C 276.210938 63.101562 278.085938 62.265625 279.441406 60.808594 Z M 279.492188 60.808594 " fill-opacity="1" fill-rule="evenodd"/><path fill="#5c964a" d="M 287.3125 61.328125 C 288.410156 59.664062 288.773438 57.628906 288.304688 55.703125 C 286.324219 55.859375 284.5 56.847656 283.300781 58.410156 C 282.101562 59.976562 281.578125 61.953125 281.890625 63.933594 L 286.0625 58.878906 L 282.570312 64.457031 C 284.5 64.144531 286.269531 62.996094 287.367188 61.382812 Z M 287.3125 61.328125 " fill-opacity="1" fill-rule="evenodd"/><path fill="#5c964a" d="M 293.726562 64.714844 C 295.132812 63.882812 296.175781 62.476562 296.542969 60.914062 C 295.03125 60.289062 293.308594 60.339844 291.796875 61.070312 C 290.285156 61.796875 289.191406 63.101562 288.722656 64.664062 L 293.726562 62.421875 L 289.085938 65.289062 C 290.652344 65.757812 292.371094 65.601562 293.777344 64.769531 Z M 293.726562 64.714844 " fill-opacity="1" fill-rule="evenodd"/><path fill="#5c964a" d="M 300.140625 67.53125 C 301.546875 66.695312 302.589844 65.289062 302.953125 63.726562 C 301.390625 63.101562 299.722656 63.152344 298.210938 63.882812 C 296.699219 64.613281 295.605469 65.914062 295.132812 67.476562 L 300.140625 65.238281 L 295.5 68.101562 C 297.0625 68.570312 298.785156 68.363281 300.191406 67.582031 Z M 300.140625 67.53125 " fill-opacity="1" fill-rule="evenodd"/><path fill="#a8cf45" d="M 298.261719 73.523438 C 299.828125 74.09375 301.546875 73.992188 303.007812 73.261719 C 302.484375 71.699219 301.339844 70.394531 299.878906 69.71875 C 298.367188 69.042969 296.644531 68.988281 295.132812 69.613281 L 300.035156 72.011719 L 294.875 70.238281 C 295.5 71.75 296.75 72.949219 298.261719 73.523438 Z M 298.261719 73.523438 " fill-opacity="1" fill-rule="evenodd"/><path fill="#a8cf45" d="M 291.121094 74.722656 C 292.683594 75.292969 294.40625 75.191406 295.863281 74.460938 C 295.34375 72.898438 294.195312 71.59375 292.734375 70.917969 C 291.222656 70.238281 289.503906 70.1875 287.992188 70.8125 L 292.890625 73.210938 L 287.730469 71.4375 C 288.355469 72.949219 289.609375 74.148438 291.121094 74.722656 Z M 291.121094 74.722656 " fill-opacity="1" fill-rule="evenodd"/><path fill="#a8cf45" d="M 281.945312 76.335938 C 283.664062 76.960938 285.488281 76.855469 287.105469 76.023438 C 286.53125 74.304688 285.28125 72.898438 283.664062 72.117188 C 282.046875 71.332031 280.121094 71.332031 278.449219 72.011719 L 283.820312 74.667969 L 278.191406 72.742188 C 278.867188 74.40625 280.222656 75.710938 281.945312 76.335938 Z M 281.945312 76.335938 " fill-opacity="1" fill-rule="evenodd"/><path fill="#a8cf45" d="M 274.59375 79.304688 C 276.625 80.035156 278.816406 79.929688 280.746094 78.941406 C 280.066406 76.910156 278.605469 75.242188 276.679688 74.355469 C 274.75 73.46875 272.507812 73.417969 270.527344 74.199219 L 276.886719 77.324219 L 270.160156 75.035156 C 270.996094 77.011719 272.558594 78.578125 274.59375 79.304688 Z M 274.59375 79.304688 " fill-opacity="1" fill-rule="evenodd"/><path fill="#a8cf45" d="M 267.816406 86.914062 C 270.734375 88.007812 274.019531 87.800781 276.835938 86.390625 C 275.894531 83.421875 273.707031 80.972656 270.839844 79.617188 C 267.972656 78.316406 264.738281 78.210938 261.820312 79.410156 L 271.152344 83.996094 L 261.296875 80.609375 C 262.496094 83.527344 264.84375 85.765625 267.816406 86.863281 Z M 267.816406 86.914062 " fill-opacity="1" fill-rule="evenodd"/><path fill="#a8cf45" d="M 260.464844 93.949219 C 263.4375 95.042969 266.667969 94.832031 269.484375 93.425781 C 268.492188 90.457031 266.355469 88.007812 263.488281 86.652344 C 260.621094 85.351562 257.386719 85.246094 254.46875 86.445312 L 263.800781 91.03125 L 253.945312 87.644531 C 255.144531 90.5625 257.492188 92.800781 260.410156 93.894531 Z M 260.464844 93.949219 " fill-opacity="1" fill-rule="evenodd"/><path fill="#a8cf45" d="M 255.511719 102.648438 C 258.640625 102.492188 261.558594 101.035156 263.59375 98.636719 C 261.507812 96.292969 258.585938 94.886719 255.460938 94.78125 C 252.332031 94.675781 249.308594 95.875 247.066406 98.117188 L 257.441406 98.6875 L 247.066406 99.417969 C 249.308594 101.605469 252.382812 102.753906 255.511719 102.597656 Z M 255.511719 102.648438 " fill-opacity="1" fill-rule="evenodd"/><path fill="#a8cf45" d="M 246.386719 113.902344 C 249.515625 113.746094 252.433594 112.289062 254.46875 109.890625 C 252.433594 107.546875 249.464844 106.140625 246.335938 106.035156 C 243.207031 105.933594 240.183594 107.128906 237.941406 109.371094 L 248.316406 109.945312 L 237.941406 110.671875 C 240.183594 112.863281 243.207031 114.058594 246.386719 113.902344 Z M 246.386719 113.902344 " fill-opacity="1" fill-rule="evenodd"/><path fill="#a8cf45" d="M 243.414062 126.148438 C 246.910156 125.261719 249.828125 122.917969 251.496094 119.738281 C 248.628906 117.550781 244.980469 116.71875 241.433594 117.34375 C 237.890625 117.96875 234.761719 120.050781 232.832031 123.074219 L 244.613281 121.25 L 233.195312 124.535156 C 236.222656 126.460938 239.921875 127.035156 243.414062 126.148438 Z M 243.414062 126.148438 " fill-opacity="1" fill-rule="evenodd"/><path fill="#a8cf45" d="M 265.050781 128.335938 C 268.335938 124.480469 269.847656 119.480469 269.222656 114.476562 C 264.164062 114.269531 259.265625 116.195312 255.71875 119.792969 C 252.175781 123.386719 250.246094 128.234375 250.453125 133.289062 L 262.550781 121.71875 L 252.019531 134.695312 C 257.074219 134.484375 261.765625 132.191406 265.050781 128.335938 Z M 265.050781 128.335938 " fill-opacity="1" fill-rule="evenodd"/><path fill="#a8cf45" d="M 279.128906 130.890625 C 281.527344 128.023438 282.675781 124.324219 282.257812 120.574219 C 278.503906 120.417969 274.855469 121.875 272.246094 124.535156 C 269.585938 127.191406 268.179688 130.839844 268.335938 134.589844 L 277.304688 125.992188 L 269.484375 135.632812 C 273.238281 135.476562 276.730469 133.757812 279.179688 130.890625 Z M 279.128906 130.890625 " fill-opacity="1" fill-rule="evenodd"/><path fill="#a8cf45" d="M 295.550781 128.441406 C 297.167969 125.054688 297.375 121.148438 296.019531 117.707031 C 292.371094 118.488281 289.191406 120.78125 287.261719 124.011719 C 285.386719 127.242188 284.914062 131.097656 285.957031 134.695312 L 292.527344 124.167969 L 287.367188 135.476562 C 290.964844 134.382812 293.933594 131.878906 295.550781 128.492188 Z M 295.550781 128.441406 " fill-opacity="1" fill-rule="evenodd"/><path fill="#a8cf45" d="M 309.160156 118.4375 C 309.316406 114.6875 307.90625 111.039062 305.25 108.433594 C 302.226562 110.621094 300.242188 114.007812 299.773438 117.707031 C 299.304688 121.40625 300.453125 125.160156 302.902344 128.023438 L 304.675781 115.726562 L 304.464844 128.128906 C 307.335938 125.679688 309.003906 122.1875 309.160156 118.4375 Z M 309.160156 118.4375 " fill-opacity="1" fill-rule="evenodd"/><path fill="#a8cf45" d="M 316.824219 111.558594 C 316.925781 109.371094 316.09375 107.234375 314.527344 105.671875 C 312.757812 106.972656 311.609375 108.953125 311.347656 111.089844 C 311.085938 113.277344 311.765625 115.46875 313.171875 117.136719 L 314.214844 109.945312 L 314.113281 117.238281 C 315.78125 115.832031 316.769531 113.746094 316.875 111.558594 Z M 316.824219 111.558594 " fill-opacity="1" fill-rule="evenodd"/><path fill="#a8cf45" d="M 324.539062 102.390625 C 324.644531 100.199219 323.808594 98.0625 322.246094 96.5 C 320.472656 97.804688 319.324219 99.785156 319.066406 101.972656 C 318.804688 104.160156 319.480469 106.347656 320.890625 108.015625 L 321.933594 100.824219 L 321.828125 108.121094 C 323.496094 106.714844 324.488281 104.628906 324.589844 102.441406 Z M 324.539062 102.390625 " fill-opacity="1" fill-rule="evenodd"/><path fill="#a8cf45" d="M 330.953125 95.199219 C 331.054688 93.011719 330.222656 90.875 328.65625 89.308594 C 326.886719 90.613281 325.738281 92.59375 325.476562 94.78125 C 325.214844 96.96875 325.894531 99.160156 327.300781 100.824219 L 328.34375 93.636719 L 328.242188 100.929688 C 329.910156 99.472656 330.898438 97.4375 331.003906 95.25 Z M 330.953125 95.199219 " fill-opacity="1" fill-rule="evenodd"/><g clip-path="url(#482d2b4084)"><path fill="#5c964a" d="M 332.152344 108.589844 C 334.078125 107.546875 335.539062 105.777344 336.113281 103.640625 C 334.078125 102.753906 331.835938 102.753906 329.804688 103.585938 C 327.769531 104.472656 326.207031 106.140625 325.476562 108.171875 L 332.253906 105.464844 L 325.894531 109.007812 C 327.980469 109.734375 330.273438 109.578125 332.203125 108.539062 Z M 332.152344 108.589844 " fill-opacity="1" fill-rule="evenodd"/></g><path fill="#5c964a" d="M 329.648438 117.707031 C 331.578125 116.664062 333.035156 114.894531 333.609375 112.757812 C 331.578125 111.871094 329.28125 111.871094 327.300781 112.707031 C 325.269531 113.589844 323.703125 115.257812 322.976562 117.292969 L 329.753906 114.582031 L 323.390625 118.125 C 325.476562 118.855469 327.769531 118.699219 329.699219 117.65625 Z M 329.648438 117.707031 " fill-opacity="1" fill-rule="evenodd"/><path fill="#5c964a" d="M 325.113281 126.148438 C 327.511719 125.730469 329.597656 124.324219 330.847656 122.292969 C 329.023438 120.679688 326.625 119.949219 324.226562 120.15625 C 321.828125 120.417969 319.636719 121.617188 318.179688 123.542969 L 326.15625 122.917969 L 318.335938 124.535156 C 320.261719 125.992188 322.714844 126.566406 325.113281 126.148438 Z M 325.113281 126.148438 " fill-opacity="1" fill-rule="evenodd"/><path fill="#5c964a" d="M 318.90625 134.277344 C 321.304688 134.539062 323.703125 133.808594 325.53125 132.246094 C 324.277344 130.214844 322.191406 128.753906 319.847656 128.285156 C 317.449219 127.816406 314.996094 128.390625 313.070312 129.796875 L 320.890625 131.515625 L 312.914062 130.785156 C 314.320312 132.714844 316.511719 134.015625 318.90625 134.277344 Z M 318.90625 134.277344 " fill-opacity="1" fill-rule="evenodd"/><path fill="#5c964a" d="M 314.371094 141.46875 C 316.769531 141.730469 319.167969 141 320.992188 139.4375 C 319.742188 137.402344 317.65625 135.945312 315.3125 135.476562 C 312.964844 135.007812 310.460938 135.582031 308.53125 136.988281 L 316.351562 138.707031 L 308.375 137.976562 C 309.785156 139.90625 311.972656 141.207031 314.371094 141.46875 Z M 314.371094 141.46875 " fill-opacity="1" fill-rule="evenodd"/><path fill="#5c964a" d="M 311.191406 148.347656 C 313.589844 148.605469 315.988281 147.878906 317.8125 146.3125 C 316.5625 144.28125 314.476562 142.824219 312.128906 142.355469 C 309.785156 141.886719 307.28125 142.457031 305.351562 143.863281 L 313.171875 145.585938 L 305.195312 144.855469 C 306.605469 146.78125 308.792969 148.085938 311.191406 148.347656 Z M 311.191406 148.347656 " fill-opacity="1" fill-rule="evenodd"/><path fill="#5c964a" d="M 317.917969 158.296875 C 320.316406 158.558594 322.714844 157.828125 324.539062 156.265625 C 323.289062 154.234375 321.203125 152.773438 318.855469 152.304688 C 316.511719 151.835938 314.007812 152.359375 312.078125 153.816406 L 319.898438 155.535156 L 311.921875 154.808594 C 313.328125 156.734375 315.519531 158.039062 317.917969 158.296875 Z M 317.917969 158.296875 " fill-opacity="1" fill-rule="evenodd"/><path fill="#5c964a" d="M 323.703125 167.78125 C 325.894531 168.042969 328.136719 167.363281 329.804688 165.90625 C 328.65625 164.03125 326.726562 162.675781 324.539062 162.257812 C 322.347656 161.839844 320.105469 162.308594 318.28125 163.613281 L 325.476562 165.226562 L 318.125 164.550781 C 319.429688 166.324219 321.460938 167.519531 323.652344 167.78125 Z M 323.703125 167.78125 " fill-opacity="1" fill-rule="evenodd"/><path fill="#5c964a" d="M 328.710938 176.222656 C 330.898438 176.484375 333.140625 175.804688 334.808594 174.347656 C 333.664062 172.472656 331.734375 171.167969 329.542969 170.699219 C 327.355469 170.28125 325.113281 170.75 323.289062 172.054688 L 330.480469 173.617188 L 323.132812 172.941406 C 324.433594 174.710938 326.46875 175.910156 328.65625 176.171875 Z M 328.710938 176.222656 " fill-opacity="1" fill-rule="evenodd"/><g clip-path="url(#06182a8f24)"><path fill="#5c964a" d="M 330.222656 185.914062 C 332.203125 186.90625 334.496094 187.007812 336.582031 186.226562 C 336.113281 184.039062 334.757812 182.164062 332.878906 181.070312 C 330.953125 179.921875 328.65625 179.660156 326.570312 180.285156 L 332.828125 184.195312 L 326.15625 181.121094 C 326.78125 183.257812 328.292969 185.027344 330.273438 186.019531 Z M 330.222656 185.914062 " fill-opacity="1" fill-rule="evenodd"/></g><path fill="#5c964a" d="M 323.964844 190.550781 C 324.957031 192.53125 326.726562 194.042969 328.8125 194.667969 C 329.753906 192.6875 329.855469 190.34375 329.023438 188.3125 C 328.1875 186.226562 326.570312 184.613281 324.488281 183.832031 L 327.042969 190.707031 L 323.652344 184.195312 C 322.871094 186.277344 322.976562 188.570312 323.914062 190.550781 Z M 323.964844 190.550781 " fill-opacity="1" fill-rule="evenodd"/><path fill="#5c964a" d="M 315.570312 181.953125 C 315.207031 184.144531 315.78125 186.382812 317.136719 188.15625 C 319.066406 187.0625 320.472656 185.238281 320.992188 183.101562 C 321.515625 180.964844 321.148438 178.671875 319.898438 176.796875 L 317.96875 183.882812 L 319.011719 176.585938 C 317.1875 177.839844 315.882812 179.765625 315.519531 181.953125 Z M 315.570312 181.953125 " fill-opacity="1" fill-rule="evenodd"/><path fill="#5c964a" d="M 309.835938 175.492188 C 309.472656 177.679688 310.046875 179.921875 311.402344 181.695312 C 313.328125 180.597656 314.738281 178.777344 315.257812 176.640625 C 315.78125 174.503906 315.414062 172.210938 314.164062 170.335938 L 312.234375 177.421875 L 313.277344 170.125 C 311.453125 171.324219 310.148438 173.304688 309.835938 175.492188 Z M 309.835938 175.492188 " fill-opacity="1" fill-rule="evenodd"/><path fill="#5c964a" d="M 303.265625 168.300781 C 302.902344 170.492188 303.476562 172.730469 304.832031 174.503906 C 306.761719 173.410156 308.167969 171.585938 308.691406 169.449219 C 309.210938 167.3125 308.847656 165.019531 307.59375 163.144531 L 305.664062 170.230469 L 306.65625 162.9375 C 304.832031 164.132812 303.527344 166.113281 303.214844 168.300781 Z M 303.265625 168.300781 " fill-opacity="1" fill-rule="evenodd"/><path fill="#5c964a" d="M 295.550781 162.363281 C 295.1875 164.550781 295.761719 166.792969 297.117188 168.5625 C 299.042969 167.46875 300.453125 165.644531 300.972656 163.507812 C 301.496094 161.371094 301.128906 159.078125 299.878906 157.203125 L 297.949219 164.289062 L 298.992188 156.996094 C 297.117188 158.246094 295.863281 160.175781 295.550781 162.363281 Z M 295.550781 162.363281 " fill-opacity="1" fill-rule="evenodd"/><path fill="#5c964a" d="M 287.523438 165.070312 C 288.304688 167.15625 289.921875 168.824219 291.953125 169.65625 C 293.101562 167.78125 293.414062 165.488281 292.839844 163.351562 C 292.214844 161.214844 290.753906 159.445312 288.773438 158.402344 L 290.597656 165.539062 L 287.886719 158.714844 C 286.898438 160.695312 286.742188 162.988281 287.523438 165.070312 Z M 287.523438 165.070312 " fill-opacity="1" fill-rule="evenodd"/><path fill="#5c964a" d="M 278.816406 158.664062 C 279.597656 160.746094 281.214844 162.414062 283.246094 163.25 C 284.394531 161.371094 284.707031 159.078125 284.132812 156.945312 C 283.507812 154.808594 282.046875 153.035156 280.066406 151.992188 L 281.890625 159.132812 L 279.179688 152.304688 C 278.191406 154.285156 278.035156 156.578125 278.816406 158.664062 Z M 278.816406 158.664062 " fill-opacity="1" fill-rule="evenodd"/><path fill="#5c964a" d="M 269.585938 154.910156 C 271.101562 156.527344 273.183594 157.515625 275.425781 157.515625 C 275.792969 155.328125 275.21875 153.085938 273.863281 151.316406 C 272.507812 149.542969 270.472656 148.449219 268.230469 148.242188 L 272.613281 154.183594 L 267.554688 148.867188 C 267.347656 151.054688 268.128906 153.296875 269.585938 154.910156 Z M 269.585938 154.910156 " fill-opacity="1" fill-rule="evenodd"/><path fill="#5c964a" d="M 259.527344 154.183594 C 261.039062 155.796875 263.125 156.789062 265.363281 156.789062 C 265.730469 154.597656 265.15625 152.359375 263.800781 150.585938 C 262.445312 148.816406 260.410156 147.722656 258.222656 147.511719 L 262.601562 153.453125 L 257.542969 148.136719 C 257.335938 150.324219 258.117188 152.515625 259.578125 154.183594 Z M 259.527344 154.183594 " fill-opacity="1" fill-rule="evenodd"/><path fill="#5c964a" d="M 275.269531 168.511719 C 277.304688 169.34375 279.648438 169.34375 281.632812 168.40625 C 281.058594 166.269531 279.597656 164.445312 277.617188 163.457031 C 275.636719 162.414062 273.339844 162.308594 271.257812 163.039062 L 277.722656 166.582031 L 270.890625 163.875 C 271.671875 165.957031 273.238281 167.625 275.269531 168.511719 Z M 275.269531 168.511719 " fill-opacity="1" fill-rule="evenodd"/><path fill="#5c964a" d="M 279.648438 177.367188 C 281.683594 178.203125 284.03125 178.203125 286.0625 177.265625 C 285.488281 175.128906 284.03125 173.304688 282.046875 172.316406 C 280.066406 171.273438 277.773438 171.117188 275.6875 171.898438 L 282.152344 175.441406 L 275.324219 172.730469 C 276.105469 174.816406 277.667969 176.484375 279.703125 177.367188 Z M 279.648438 177.367188 " fill-opacity="1" fill-rule="evenodd"/><path fill="#5c964a" d="M 284.1875 187.632812 C 286.21875 188.519531 288.566406 188.46875 290.546875 187.53125 C 289.972656 185.394531 288.511719 183.621094 286.53125 182.578125 C 284.550781 181.539062 282.257812 181.433594 280.171875 182.164062 L 286.636719 185.707031 L 279.804688 182.996094 C 280.589844 185.082031 282.152344 186.746094 284.1875 187.632812 Z M 284.1875 187.632812 " fill-opacity="1" fill-rule="evenodd"/><path fill="#5c964a" d="M 285.59375 197.429688 C 287.625 198.316406 289.972656 198.261719 291.953125 197.324219 C 291.378906 195.1875 289.921875 193.417969 287.941406 192.375 C 285.957031 191.332031 283.664062 191.230469 281.578125 191.957031 L 288.042969 195.5 L 281.214844 192.792969 C 281.996094 194.875 283.558594 196.542969 285.59375 197.429688 Z M 285.59375 197.429688 " fill-opacity="1" fill-rule="evenodd"/><path fill="#5c964a" d="M 283.402344 208.269531 C 284.5 210.195312 286.324219 211.601562 288.460938 212.125 C 289.347656 210.089844 289.296875 207.746094 288.355469 205.765625 C 287.417969 203.734375 285.75 202.171875 283.613281 201.492188 L 286.480469 208.269531 L 282.777344 201.910156 C 282.101562 203.996094 282.308594 206.339844 283.351562 208.269531 Z M 283.402344 208.269531 " fill-opacity="1" fill-rule="evenodd"/><path fill="#5c964a" d="M 283.300781 110.621094 C 286.011719 107.441406 287.261719 103.273438 286.792969 99.105469 C 282.621094 98.949219 278.554688 100.566406 275.582031 103.535156 C 272.613281 106.503906 271.046875 110.570312 271.203125 114.738281 L 281.214844 105.152344 L 272.457031 115.9375 C 276.625 115.726562 280.589844 113.851562 283.300781 110.621094 Z M 283.300781 110.621094 " fill-opacity="1" fill-rule="evenodd"/><path fill="#5c964a" d="M 295.917969 108.746094 C 297.011719 106.140625 296.960938 103.222656 295.8125 100.667969 C 293.101562 101.398438 290.808594 103.273438 289.554688 105.777344 C 288.253906 108.277344 288.097656 111.195312 289.035156 113.851562 L 293.519531 105.671875 L 290.128906 114.320312 C 292.789062 113.382812 294.875 111.351562 295.96875 108.746094 Z M 295.917969 108.746094 " fill-opacity="1" fill-rule="evenodd"/><path fill="#5c964a" d="M 308.636719 99.941406 C 309.730469 97.335938 309.679688 94.417969 308.53125 91.863281 C 305.820312 92.59375 303.527344 94.46875 302.277344 96.96875 C 300.972656 99.472656 300.816406 102.390625 301.753906 105.046875 L 306.238281 96.867188 L 302.851562 105.515625 C 305.507812 104.578125 307.59375 102.546875 308.691406 99.941406 Z M 308.636719 99.941406 " fill-opacity="1" fill-rule="evenodd"/><path fill="#5c964a" d="M 320.105469 91.238281 C 320.261719 88.425781 319.273438 85.664062 317.34375 83.628906 C 314.996094 85.246094 313.484375 87.695312 313.070312 90.507812 C 312.652344 93.269531 313.433594 96.136719 315.207031 98.324219 L 316.769531 89.152344 L 316.351562 98.480469 C 318.542969 96.710938 319.898438 94.105469 320.054688 91.289062 Z M 320.105469 91.238281 " fill-opacity="1" fill-rule="evenodd"/><path fill="#5c964a" d="M 293.570312 80.660156 C 296.074219 81.910156 298 84.152344 298.785156 86.863281 C 296.230469 88.058594 293.308594 88.164062 290.703125 87.121094 C 288.097656 86.078125 286.011719 83.996094 285.019531 81.390625 L 293.777344 84.621094 L 285.542969 80.296875 C 288.148438 79.304688 291.121094 79.410156 293.621094 80.660156 Z M 293.570312 80.660156 " fill-opacity="1" fill-rule="evenodd"/><path fill="#5c964a" d="M 302.226562 76.492188 C 303.996094 77.378906 305.300781 78.941406 305.875 80.765625 C 304.101562 81.597656 302.066406 81.652344 300.242188 80.972656 C 298.417969 80.242188 297.011719 78.785156 296.28125 76.960938 L 302.382812 79.203125 L 296.644531 76.179688 C 298.472656 75.503906 300.503906 75.554688 302.277344 76.441406 Z M 302.226562 76.492188 " fill-opacity="1" fill-rule="evenodd"/><path fill="#5c964a" d="M 286.011719 87.851562 C 287.78125 88.738281 289.085938 90.300781 289.609375 92.175781 C 287.835938 93.011719 285.800781 93.0625 283.976562 92.382812 C 282.152344 91.65625 280.746094 90.195312 280.015625 88.371094 L 286.113281 90.613281 L 280.378906 87.589844 C 282.203125 86.914062 284.238281 86.964844 286.011719 87.851562 Z M 286.011719 87.851562 " fill-opacity="1" fill-rule="evenodd"/><path fill="#5c964a" d="M 277.980469 92.019531 C 279.753906 92.90625 281.058594 94.417969 281.578125 96.292969 C 279.804688 97.125 277.773438 97.179688 275.949219 96.5 C 274.125 95.769531 272.714844 94.3125 271.984375 92.488281 L 278.085938 94.730469 L 272.351562 91.707031 C 274.175781 91.03125 276.210938 91.082031 277.980469 91.96875 Z M 277.980469 92.019531 " fill-opacity="1" fill-rule="evenodd"/><path fill="#5c964a" d="M 271.101562 97.023438 C 273.027344 97.125 274.90625 98.011719 276.15625 99.523438 C 274.855469 100.980469 273.027344 101.867188 271.101562 101.972656 C 269.171875 102.023438 267.242188 101.292969 265.886719 99.886719 L 272.351562 99.523438 L 265.886719 99.054688 C 267.292969 97.699219 269.171875 96.96875 271.152344 97.023438 Z M 271.101562 97.023438 " fill-opacity="1" fill-rule="evenodd"/><path fill="#5c964a" d="M 261.140625 104.996094 C 262.964844 104.265625 265 104.367188 266.773438 105.203125 C 266.199219 107.078125 264.894531 108.640625 263.125 109.476562 C 261.351562 110.308594 259.316406 110.414062 257.492188 109.683594 L 263.28125 106.714844 L 257.179688 108.953125 C 257.910156 107.128906 259.316406 105.671875 261.140625 104.996094 Z M 261.140625 104.996094 " fill-opacity="1" fill-rule="evenodd"/><path fill="#5c964a" d="M 296.230469 177.996094 C 296.230469 180.234375 297.117188 182.320312 298.730469 183.832031 C 300.503906 182.476562 301.597656 180.441406 301.753906 178.203125 C 301.964844 175.960938 301.183594 173.773438 299.722656 172.160156 L 298.941406 179.453125 L 298.835938 172.105469 C 297.21875 173.617188 296.28125 175.703125 296.230469 177.941406 Z M 296.230469 177.996094 " fill-opacity="1" fill-rule="evenodd"/><path fill="#5c964a" d="M 303.632812 183.933594 C 303.632812 186.175781 304.519531 188.257812 306.136719 189.769531 C 307.90625 188.414062 309.003906 186.382812 309.160156 184.144531 C 309.367188 181.902344 308.585938 179.714844 307.125 178.097656 L 306.34375 185.394531 L 306.238281 178.046875 C 304.621094 179.558594 303.683594 181.640625 303.632812 183.882812 Z M 303.632812 183.933594 " fill-opacity="1" fill-rule="evenodd"/><path fill="#5c964a" d="M 295.761719 193.992188 C 297.636719 195.1875 299.878906 195.605469 302.066406 195.085938 C 301.859375 192.898438 300.765625 190.863281 299.042969 189.457031 C 297.273438 188.101562 295.03125 187.53125 292.839844 187.894531 L 298.523438 192.53125 L 292.265625 188.625 C 292.632812 190.8125 293.882812 192.738281 295.761719 193.992188 Z M 295.761719 193.992188 " fill-opacity="1" fill-rule="evenodd"/><path fill="#5c964a" d="M 288.355469 176.953125 C 289.140625 179.035156 290.753906 180.703125 292.789062 181.539062 C 293.933594 179.660156 294.246094 177.367188 293.675781 175.234375 C 293.050781 173.097656 291.589844 171.324219 289.609375 170.28125 L 291.433594 177.421875 L 288.722656 170.59375 C 287.730469 172.574219 287.574219 174.867188 288.355469 176.953125 Z M 288.355469 176.953125 " fill-opacity="1" fill-rule="evenodd"/><path fill="#5c964a" d="M 242.269531 46.324219 C 242.214844 43.664062 243.3125 41.113281 245.242188 39.289062 C 247.324219 40.902344 248.679688 43.351562 248.941406 46.011719 C 249.203125 48.667969 248.316406 51.273438 246.492188 53.253906 L 245.5 44.5 L 245.398438 53.304688 C 243.414062 51.535156 242.269531 48.980469 242.269531 46.324219 Z M 242.269531 46.324219 " fill-opacity="1" fill-rule="evenodd"/><path fill="#5c964a" d="M 244.613281 31.578125 C 243.625 28.503906 243.988281 25.117188 245.605469 22.300781 C 248.628906 23.449219 251.078125 25.792969 252.277344 28.816406 C 253.476562 31.835938 253.425781 35.222656 252.019531 38.140625 L 247.742188 28.242188 L 250.765625 38.558594 C 247.847656 37.152344 245.605469 34.652344 244.613281 31.523438 Z M 244.613281 31.578125 " fill-opacity="1" fill-rule="evenodd"/><path fill="#5c964a" d="M 226.734375 24.28125 C 227.878906 22.199219 229.859375 20.6875 232.207031 20.113281 C 233.144531 22.300781 233.09375 24.804688 232.101562 26.992188 C 231.113281 29.179688 229.234375 30.847656 226.992188 31.578125 L 230.121094 24.28125 L 226.105469 31.160156 C 225.375 28.867188 225.585938 26.367188 226.785156 24.28125 Z M 226.734375 24.28125 " fill-opacity="1" fill-rule="evenodd"/><path fill="#5c964a" d="M 236.429688 32.566406 C 236.378906 29.910156 237.472656 27.355469 239.402344 25.53125 C 241.488281 27.148438 242.84375 29.597656 243.101562 32.253906 C 243.363281 34.910156 242.476562 37.515625 240.652344 39.496094 L 239.660156 30.742188 L 239.558594 39.550781 C 237.578125 37.777344 236.429688 35.222656 236.429688 32.566406 Z M 236.429688 32.566406 " fill-opacity="1" fill-rule="evenodd"/><path fill="#5c964a" d="M 233.355469 17.144531 C 233.355469 14.488281 234.394531 11.933594 236.324219 10.109375 C 238.410156 11.726562 239.765625 14.175781 240.027344 16.832031 C 240.289062 19.488281 239.402344 22.09375 237.628906 24.074219 L 236.636719 15.320312 L 236.535156 24.125 C 234.554688 22.355469 233.40625 19.800781 233.40625 17.144531 Z M 233.355469 17.144531 " fill-opacity="1" fill-rule="evenodd"/><path fill="#5c964a" d="M 222.144531 14.277344 C 222.144531 11.621094 223.1875 9.066406 225.117188 7.242188 C 227.203125 8.859375 228.558594 11.308594 228.816406 13.964844 C 229.078125 16.621094 228.191406 19.226562 226.367188 21.207031 L 225.375 12.453125 L 225.273438 21.261719 C 223.292969 19.488281 222.144531 16.933594 222.144531 14.277344 Z M 222.144531 14.277344 " fill-opacity="1" fill-rule="evenodd"/><path fill="#5c964a" d="M 212.8125 7.191406 C 212.8125 4.535156 213.855469 1.980469 215.835938 0.15625 C 217.921875 1.773438 219.277344 4.222656 219.539062 6.878906 C 219.746094 9.535156 218.914062 12.140625 217.085938 14.121094 L 216.097656 5.367188 L 215.992188 14.175781 C 214.011719 12.402344 212.863281 9.847656 212.863281 7.191406 Z M 212.8125 7.191406 " fill-opacity="1" fill-rule="evenodd"/><path fill="#a8cf45" d="M 177.097656 39.238281 C 179.914062 38.296875 182.207031 36.164062 183.40625 33.453125 C 180.90625 31.835938 177.828125 31.316406 174.910156 32.046875 C 172.042969 32.777344 169.539062 34.703125 168.132812 37.308594 L 177.777344 35.066406 L 168.496094 38.457031 C 171.105469 39.863281 174.230469 40.121094 177.046875 39.183594 Z M 177.097656 39.238281 " fill-opacity="1" fill-rule="evenodd"/><path fill="#a8cf45" d="M 195.449219 38.871094 C 192.636719 37.882812 190.34375 35.796875 189.144531 33.089844 C 191.644531 31.472656 194.722656 30.953125 197.640625 31.679688 C 200.507812 32.410156 203.011719 34.339844 204.417969 36.945312 L 194.773438 34.703125 L 204.054688 38.089844 C 201.445312 39.496094 198.320312 39.757812 195.503906 38.820312 Z M 195.449219 38.871094 " fill-opacity="1" fill-rule="evenodd"/><path fill="#a8cf45" d="M 179.496094 87.226562 C 179.707031 82.691406 181.738281 78.472656 185.179688 75.503906 C 188.621094 78.421875 190.707031 82.691406 190.863281 87.226562 C 191.019531 91.757812 189.351562 96.136719 186.117188 99.367188 L 185.179688 84.414062 L 184.242188 99.367188 C 181.0625 96.136719 179.339844 91.757812 179.496094 87.226562 Z M 179.496094 87.226562 " fill-opacity="1" fill-rule="evenodd"/><path fill="#a8cf45" d="M 181.21875 57.214844 C 181.375 53.566406 183.042969 50.125 185.804688 47.78125 C 188.570312 50.179688 190.238281 53.566406 190.394531 57.214844 C 190.550781 60.859375 189.144531 64.402344 186.589844 67.007812 L 185.804688 54.921875 L 185.023438 67.007812 C 182.417969 64.402344 181.0625 60.859375 181.21875 57.214844 Z M 181.21875 57.214844 " fill-opacity="1" fill-rule="evenodd"/><g clip-path="url(#1965f110bb)"><path fill="#5c964a" d="M 173.03125 277.621094 C 177.046875 250.421875 176.316406 222.699219 170.738281 195.710938 C 166.203125 176.585938 148.527344 163.5625 128.925781 164.8125 C 109.324219 166.0625 93.472656 181.328125 91.441406 200.867188 C 90.816406 188.570312 95.402344 176.585938 104.003906 167.78125 C 112.660156 158.976562 124.546875 154.234375 136.851562 154.652344 C 120.0625 141.050781 95.820312 141.886719 79.972656 156.578125 C 79.242188 154.234375 79.136719 151.734375 79.65625 149.335938 C 65.269531 155.902344 53.746094 167.417969 47.230469 181.746094 C 52.339844 165.90625 62.660156 152.203125 76.476562 142.925781 C 61.359375 134.484375 50.304688 120.3125 45.820312 103.585938 C 53.226562 126.359375 75.695312 140.738281 99.46875 137.925781 C 117.089844 135.894531 134.871094 139.539062 150.199219 148.347656 C 147.121094 125.785156 137.996094 105.308594 122.878906 86.863281 C 111.148438 74.667969 94.828125 68.050781 77.9375 68.570312 C 87.007812 64.714844 97.226562 64.402344 106.507812 67.789062 C 100.355469 53.042969 101.554688 36.265625 109.742188 22.511719 C 102.128906 41.53125 109.0625 63.257812 126.265625 74.355469 C 134.398438 81.652344 141.023438 90.457031 145.714844 100.355469 C 138.152344 67.007812 153.117188 32.671875 182.625 15.425781 C 156.402344 36.839844 145.296875 71.75 154.367188 104.367188 C 155.046875 101.761719 156.664062 99.472656 158.851562 97.960938 C 154.628906 129.277344 164.535156 160.800781 185.804688 184.144531 C 207.128906 160.800781 216.984375 129.277344 212.761719 97.960938 C 215 99.523438 216.566406 101.761719 217.242188 104.367188 C 226.261719 71.75 215.210938 36.890625 188.984375 15.425781 C 218.546875 32.621094 233.511719 67.007812 225.949219 100.355469 C 230.644531 90.457031 237.210938 81.652344 245.398438 74.355469 C 262.601562 63.257812 269.535156 41.53125 261.925781 22.511719 C 270.109375 36.265625 271.257812 53.042969 265.15625 67.789062 C 274.4375 64.457031 284.65625 64.714844 293.726562 68.570312 C 276.835938 68.050781 260.464844 74.667969 248.785156 86.863281 C 233.667969 105.253906 224.59375 125.785156 221.464844 148.347656 C 236.847656 139.539062 254.625 135.839844 272.195312 137.925781 C 295.96875 140.738281 318.4375 126.359375 325.84375 103.585938 C 321.359375 120.3125 310.304688 134.484375 295.1875 142.925781 C 309.003906 152.253906 319.273438 165.90625 324.433594 181.746094 C 317.867188 167.363281 306.34375 155.847656 292.007812 149.335938 C 292.527344 151.734375 292.421875 154.234375 291.691406 156.578125 C 275.84375 141.886719 251.652344 141.050781 234.867188 154.652344 C 247.167969 154.234375 259.109375 159.027344 267.710938 167.78125 C 276.367188 176.535156 280.902344 188.570312 280.277344 200.867188 C 278.242188 181.328125 262.394531 166.113281 242.789062 164.8125 C 223.1875 163.5625 205.511719 176.585938 200.976562 195.710938 C 195.449219 222.699219 194.667969 250.421875 198.683594 277.621094 L 330.378906 277.621094 C 332.566406 277.621094 334.339844 279.390625 334.339844 281.632812 C 334.339844 283.820312 332.566406 285.59375 330.378906 285.59375 L 41.390625 285.59375 C 39.199219 285.59375 37.429688 283.820312 37.429688 281.632812 C 37.429688 279.445312 39.199219 277.621094 41.390625 277.621094 L 173.085938 277.621094 Z M 173.03125 277.621094 " fill-opacity="1" fill-rule="evenodd"/></g><g fill="#5c964a" fill-opacity="1"><g transform="translate(99.148291, 327.941462)"><g><path d="M 10.25 -19.5 L 17.953125 -19.5 L 17.953125 -8.40625 C 17.953125 -5.570312 17.257812 -3.394531 15.875 -1.875 C 14.488281 -0.351562 12.445312 0.40625 9.75 0.40625 C 7.050781 0.40625 5.007812 -0.351562 3.625 -1.875 C 2.238281 -3.394531 1.546875 -5.570312 1.546875 -8.40625 L 1.546875 -26.59375 C 1.546875 -29.425781 2.238281 -31.601562 3.625 -33.125 C 5.007812 -34.644531 7.050781 -35.40625 9.75 -35.40625 C 12.445312 -35.40625 14.488281 -34.644531 15.875 -33.125 C 17.257812 -31.601562 17.953125 -29.425781 17.953125 -26.59375 L 17.953125 -23.203125 L 12.75 -23.203125 L 12.75 -26.953125 C 12.75 -28.210938 12.488281 -29.101562 11.96875 -29.625 C 11.457031 -30.144531 10.769531 -30.40625 9.90625 -30.40625 C 9.03125 -30.40625 8.332031 -30.144531 7.8125 -29.625 C 7.300781 -29.101562 7.046875 -28.210938 7.046875 -26.953125 L 7.046875 -8.046875 C 7.046875 -6.785156 7.300781 -5.90625 7.8125 -5.40625 C 8.332031 -4.90625 9.03125 -4.65625 9.90625 -4.65625 C 10.769531 -4.65625 11.457031 -4.90625 11.96875 -5.40625 C 12.488281 -5.90625 12.75 -6.785156 12.75 -8.046875 L 12.75 -14.5 L 10.25 -14.5 Z M 10.25 -19.5 "/></g></g></g><g fill="#5c964a" fill-opacity="1"><g transform="translate(124.095271, 327.941462)"><g><path d="M 19.796875 0 L 14.25 0 L 13.296875 -6.34375 L 6.546875 -6.34375 L 5.59375 0 L 0.546875 0 L 6.15625 -35 L 14.203125 -35 Z M 7.25 -11.09375 L 12.546875 -11.09375 L 9.90625 -28.796875 Z M 7.25 -11.09375 "/></g></g></g><g fill="#5c964a" fill-opacity="1"><g transform="translate(149.892123, 327.941462)"><g><path d="M 13.5 0 C 13.4375 -0.226562 13.367188 -0.441406 13.296875 -0.640625 C 13.234375 -0.847656 13.175781 -1.097656 13.125 -1.390625 C 13.070312 -1.691406 13.035156 -2.078125 13.015625 -2.546875 C 13.003906 -3.015625 13 -3.597656 13 -4.296875 L 13 -9.796875 C 13 -11.429688 12.710938 -12.582031 12.140625 -13.25 C 11.578125 -13.914062 10.664062 -14.25 9.40625 -14.25 L 7.5 -14.25 L 7.5 0 L 2 0 L 2 -35 L 10.296875 -35 C 13.160156 -35 15.234375 -34.332031 16.515625 -33 C 17.804688 -31.664062 18.453125 -29.648438 18.453125 -26.953125 L 18.453125 -24.203125 C 18.453125 -20.597656 17.25 -18.226562 14.84375 -17.09375 C 16.25 -16.53125 17.207031 -15.609375 17.71875 -14.328125 C 18.238281 -13.046875 18.5 -11.488281 18.5 -9.65625 L 18.5 -4.25 C 18.5 -3.382812 18.53125 -2.625 18.59375 -1.96875 C 18.664062 -1.320312 18.832031 -0.664062 19.09375 0 Z M 7.5 -30 L 7.5 -19.25 L 9.65625 -19.25 C 10.6875 -19.25 11.492188 -19.515625 12.078125 -20.046875 C 12.660156 -20.578125 12.953125 -21.546875 12.953125 -22.953125 L 12.953125 -26.40625 C 12.953125 -27.664062 12.722656 -28.578125 12.265625 -29.140625 C 11.816406 -29.710938 11.113281 -30 10.15625 -30 Z M 7.5 -30 "/></g></g></g><g fill="#5c964a" fill-opacity="1"><g transform="translate(175.439014, 327.941462)"><g><path d="M 2 -35 L 10.703125 -35 C 13.460938 -35 15.519531 -34.265625 16.875 -32.796875 C 18.226562 -31.328125 18.90625 -29.175781 18.90625 -26.34375 L 18.90625 -8.65625 C 18.90625 -5.820312 18.226562 -3.671875 16.875 -2.203125 C 15.519531 -0.734375 13.460938 0 10.703125 0 L 2 0 Z M 7.5 -30 L 7.5 -5 L 10.59375 -5 C 11.46875 -5 12.15625 -5.25 12.65625 -5.75 C 13.15625 -6.25 13.40625 -7.132812 13.40625 -8.40625 L 13.40625 -26.59375 C 13.40625 -27.863281 13.15625 -28.75 12.65625 -29.25 C 12.15625 -29.75 11.46875 -30 10.59375 -30 Z M 7.5 -30 "/></g></g></g><g fill="#5c964a" fill-opacity="1"><g transform="translate(201.285854, 327.941462)"><g><path d="M 7.5 -20.25 L 15.046875 -20.25 L 15.046875 -15.25 L 7.5 -15.25 L 7.5 -5 L 17 -5 L 17 0 L 2 0 L 2 -35 L 17 -35 L 17 -30 L 7.5 -30 Z M 7.5 -20.25 "/></g></g></g><g fill="#5c964a" fill-opacity="1"><g transform="translate(225.133017, 327.941462)"><g><path d="M 6.90625 -25.34375 L 6.90625 0 L 1.953125 0 L 1.953125 -35 L 8.84375 -35 L 14.5 -14.046875 L 14.5 -35 L 19.40625 -35 L 19.40625 0 L 13.75 0 Z M 6.90625 -25.34375 "/></g></g></g><g fill="#5c964a" fill-opacity="1"><g transform="translate(251.929722, 327.941462)"><g><path d="M 19.796875 0 L 14.25 0 L 13.296875 -6.34375 L 6.546875 -6.34375 L 5.59375 0 L 0.546875 0 L 6.15625 -35 L 14.203125 -35 Z M 7.25 -11.09375 L 12.546875 -11.09375 L 9.90625 -28.796875 Z M 7.25 -11.09375 "/></g></g></g><g fill="#a8cf45" fill-opacity="1"><g transform="translate(117.656571, 362.999976)"><g><path d="M 0.78125 -15.953125 C 0.78125 -17.660156 1.179688 -18.96875 1.984375 -19.875 C 2.796875 -20.78125 4.015625 -21.234375 5.640625 -21.234375 C 7.253906 -21.234375 8.46875 -20.78125 9.28125 -19.875 C 10.09375 -18.96875 10.5 -17.660156 10.5 -15.953125 L 10.5 -15.15625 L 7.375 -15.15625 L 7.375 -16.171875 C 7.375 -16.929688 7.226562 -17.460938 6.9375 -17.765625 C 6.65625 -18.078125 6.253906 -18.234375 5.734375 -18.234375 C 5.210938 -18.234375 4.804688 -18.078125 4.515625 -17.765625 C 4.222656 -17.460938 4.078125 -16.929688 4.078125 -16.171875 C 4.078125 -15.453125 4.238281 -14.816406 4.5625 -14.265625 C 4.882812 -13.710938 5.285156 -13.191406 5.765625 -12.703125 C 6.242188 -12.210938 6.753906 -11.722656 7.296875 -11.234375 C 7.847656 -10.742188 8.363281 -10.207031 8.84375 -9.625 C 9.320312 -9.050781 9.722656 -8.394531 10.046875 -7.65625 C 10.367188 -6.914062 10.53125 -6.046875 10.53125 -5.046875 C 10.53125 -3.335938 10.113281 -2.03125 9.28125 -1.125 C 8.457031 -0.21875 7.234375 0.234375 5.609375 0.234375 C 3.992188 0.234375 2.769531 -0.21875 1.9375 -1.125 C 1.101562 -2.03125 0.6875 -3.335938 0.6875 -5.046875 L 0.6875 -6.484375 L 3.8125 -6.484375 L 3.8125 -4.828125 C 3.8125 -4.066406 3.960938 -3.535156 4.265625 -3.234375 C 4.578125 -2.941406 4.992188 -2.796875 5.515625 -2.796875 C 6.035156 -2.796875 6.453125 -2.941406 6.765625 -3.234375 C 7.078125 -3.535156 7.234375 -4.066406 7.234375 -4.828125 C 7.234375 -5.546875 7.070312 -6.179688 6.75 -6.734375 C 6.425781 -7.285156 6.023438 -7.804688 5.546875 -8.296875 C 5.066406 -8.785156 4.550781 -9.273438 4 -9.765625 C 3.457031 -10.253906 2.941406 -10.785156 2.453125 -11.359375 C 1.972656 -11.941406 1.570312 -12.601562 1.25 -13.34375 C 0.9375 -14.082031 0.78125 -14.953125 0.78125 -15.953125 Z M 0.78125 -15.953125 "/></g></g></g><g fill="#a8cf45" fill-opacity="1"><g transform="translate(132.386564, 362.999976)"><g><path d="M 1.203125 -21 L 4.5 -21 L 4.5 0 L 1.203125 0 Z M 1.203125 -21 "/></g></g></g><g fill="#a8cf45" fill-opacity="1"><g transform="translate(141.596557, 362.999976)"><g><path d="M 4.140625 -15.203125 L 4.140625 0 L 1.171875 0 L 1.171875 -21 L 5.3125 -21 L 8.703125 -8.4375 L 8.703125 -21 L 11.640625 -21 L 11.640625 0 L 8.25 0 Z M 4.140625 -15.203125 "/></g></g></g><g fill="#a8cf45" fill-opacity="1"><g transform="translate(157.916546, 362.999976)"><g><path d="M 10.765625 -7.828125 L 10.765625 -5.046875 C 10.765625 -3.335938 10.347656 -2.03125 9.515625 -1.125 C 8.691406 -0.21875 7.46875 0.234375 5.84375 0.234375 C 4.226562 0.234375 3.003906 -0.21875 2.171875 -1.125 C 1.347656 -2.03125 0.9375 -3.335938 0.9375 -5.046875 L 0.9375 -15.953125 C 0.9375 -17.660156 1.347656 -18.96875 2.171875 -19.875 C 3.003906 -20.78125 4.226562 -21.234375 5.84375 -21.234375 C 7.46875 -21.234375 8.691406 -20.78125 9.515625 -19.875 C 10.347656 -18.96875 10.765625 -17.660156 10.765625 -15.953125 L 10.765625 -13.921875 L 7.65625 -13.921875 L 7.65625 -16.171875 C 7.65625 -16.929688 7.5 -17.460938 7.1875 -17.765625 C 6.875 -18.078125 6.457031 -18.234375 5.9375 -18.234375 C 5.414062 -18.234375 5 -18.078125 4.6875 -17.765625 C 4.382812 -17.460938 4.234375 -16.929688 4.234375 -16.171875 L 4.234375 -4.828125 C 4.234375 -4.066406 4.382812 -3.535156 4.6875 -3.234375 C 5 -2.941406 5.414062 -2.796875 5.9375 -2.796875 C 6.457031 -2.796875 6.875 -2.941406 7.1875 -3.234375 C 7.5 -3.535156 7.65625 -4.066406 7.65625 -4.828125 L 7.65625 -7.828125 Z M 10.765625 -7.828125 "/></g></g></g><g fill="#a8cf45" fill-opacity="1"><g transform="translate(173.006536, 362.999976)"><g><path d="M 4.5 -12.15625 L 9.03125 -12.15625 L 9.03125 -9.15625 L 4.5 -9.15625 L 4.5 -3 L 10.203125 -3 L 10.203125 0 L 1.203125 0 L 1.203125 -21 L 10.203125 -21 L 10.203125 -18 L 4.5 -18 Z M 4.5 -12.15625 "/></g></g></g><g fill="#a8cf45" fill-opacity="1"><g transform="translate(195.716522, 362.999976)"><g><path d="M 7.734375 -15.84375 C 7.734375 -16.78125 7.578125 -17.410156 7.265625 -17.734375 C 6.960938 -18.066406 6.550781 -18.234375 6.03125 -18.234375 C 5.507812 -18.234375 5.09375 -18.078125 4.78125 -17.765625 C 4.46875 -17.460938 4.3125 -16.929688 4.3125 -16.171875 L 4.3125 -13.921875 L 1.203125 -13.921875 L 1.203125 -15.953125 C 1.203125 -17.660156 1.613281 -18.96875 2.4375 -19.875 C 3.269531 -20.78125 4.5 -21.234375 6.125 -21.234375 C 7.738281 -21.234375 8.960938 -20.78125 9.796875 -19.875 C 10.628906 -18.96875 11.046875 -17.660156 11.046875 -15.953125 C 11.046875 -14.816406 10.867188 -13.785156 10.515625 -12.859375 C 10.160156 -11.941406 9.722656 -11.101562 9.203125 -10.34375 C 8.691406 -9.582031 8.132812 -8.882812 7.53125 -8.25 C 6.925781 -7.625 6.382812 -7.023438 5.90625 -6.453125 C 5.425781 -5.890625 5.046875 -5.328125 4.765625 -4.765625 C 4.484375 -4.210938 4.394531 -3.625 4.5 -3 L 10.734375 -3 L 10.734375 0 L 1.203125 0 L 1.203125 -2.578125 C 1.203125 -3.597656 1.359375 -4.5 1.671875 -5.28125 C 1.992188 -6.0625 2.398438 -6.773438 2.890625 -7.421875 C 3.378906 -8.078125 3.90625 -8.6875 4.46875 -9.25 C 5.03125 -9.820312 5.554688 -10.425781 6.046875 -11.0625 C 6.535156 -11.707031 6.9375 -12.410156 7.25 -13.171875 C 7.570312 -13.929688 7.734375 -14.820312 7.734375 -15.84375 Z M 7.734375 -15.84375 "/></g></g></g><g fill="#a8cf45" fill-opacity="1"><g transform="translate(211.106506, 362.999976)"><g><path d="M 4.234375 -4.828125 C 4.234375 -4.066406 4.382812 -3.53125 4.6875 -3.21875 C 5 -2.914062 5.414062 -2.765625 5.9375 -2.765625 C 6.457031 -2.765625 6.875 -2.914062 7.1875 -3.21875 C 7.5 -3.53125 7.65625 -4.066406 7.65625 -4.828125 L 7.65625 -16.171875 C 7.65625 -16.929688 7.5 -17.460938 7.1875 -17.765625 C 6.875 -18.078125 6.457031 -18.234375 5.9375 -18.234375 C 5.414062 -18.234375 5 -18.078125 4.6875 -17.765625 C 4.382812 -17.460938 4.234375 -16.929688 4.234375 -16.171875 Z M 0.9375 -15.953125 C 0.9375 -17.660156 1.363281 -18.96875 2.21875 -19.875 C 3.082031 -20.78125 4.320312 -21.234375 5.9375 -21.234375 C 7.5625 -21.234375 8.800781 -20.78125 9.65625 -19.875 C 10.519531 -18.96875 10.953125 -17.660156 10.953125 -15.953125 L 10.953125 -5.046875 C 10.953125 -3.335938 10.519531 -2.03125 9.65625 -1.125 C 8.800781 -0.21875 7.5625 0.234375 5.9375 0.234375 C 4.320312 0.234375 3.082031 -0.21875 2.21875 -1.125 C 1.363281 -2.03125 0.9375 -3.335938 0.9375 -5.046875 Z M 0.9375 -15.953125 "/></g></g></g><g fill="#a8cf45" fill-opacity="1"><g transform="translate(226.496491, 362.999976)"><g><path d="M 7.734375 -15.84375 C 7.734375 -16.78125 7.578125 -17.410156 7.265625 -17.734375 C 6.960938 -18.066406 6.550781 -18.234375 6.03125 -18.234375 C 5.507812 -18.234375 5.09375 -18.078125 4.78125 -17.765625 C 4.46875 -17.460938 4.3125 -16.929688 4.3125 -16.171875 L 4.3125 -13.921875 L 1.203125 -13.921875 L 1.203125 -15.953125 C 1.203125 -17.660156 1.613281 -18.96875 2.4375 -19.875 C 3.269531 -20.78125 4.5 -21.234375 6.125 -21.234375 C 7.738281 -21.234375 8.960938 -20.78125 9.796875 -19.875 C 10.628906 -18.96875 11.046875 -17.660156 11.046875 -15.953125 C 11.046875 -14.816406 10.867188 -13.785156 10.515625 -12.859375 C 10.160156 -11.941406 9.722656 -11.101562 9.203125 -10.34375 C 8.691406 -9.582031 8.132812 -8.882812 7.53125 -8.25 C 6.925781 -7.625 6.382812 -7.023438 5.90625 -6.453125 C 5.425781 -5.890625 5.046875 -5.328125 4.765625 -4.765625 C 4.484375 -4.210938 4.394531 -3.625 4.5 -3 L 10.734375 -3 L 10.734375 0 L 1.203125 0 L 1.203125 -2.578125 C 1.203125 -3.597656 1.359375 -4.5 1.671875 -5.28125 C 1.992188 -6.0625 2.398438 -6.773438 2.890625 -7.421875 C 3.378906 -8.078125 3.90625 -8.6875 4.46875 -9.25 C 5.03125 -9.820312 5.554688 -10.425781 6.046875 -11.0625 C 6.535156 -11.707031 6.9375 -12.410156 7.25 -13.171875 C 7.570312 -13.929688 7.734375 -14.820312 7.734375 -15.84375 Z M 7.734375 -15.84375 "/></g></g></g><g fill="#a8cf45" fill-opacity="1"><g transform="translate(241.886482, 362.999976)"><g><path d="M 7.734375 -15.84375 C 7.734375 -16.78125 7.578125 -17.410156 7.265625 -17.734375 C 6.960938 -18.066406 6.550781 -18.234375 6.03125 -18.234375 C 5.507812 -18.234375 5.09375 -18.078125 4.78125 -17.765625 C 4.46875 -17.460938 4.3125 -16.929688 4.3125 -16.171875 L 4.3125 -13.921875 L 1.203125 -13.921875 L 1.203125 -15.953125 C 1.203125 -17.660156 1.613281 -18.96875 2.4375 -19.875 C 3.269531 -20.78125 4.5 -21.234375 6.125 -21.234375 C 7.738281 -21.234375 8.960938 -20.78125 9.796875 -19.875 C 10.628906 -18.96875 11.046875 -17.660156 11.046875 -15.953125 C 11.046875 -14.816406 10.867188 -13.785156 10.515625 -12.859375 C 10.160156 -11.941406 9.722656 -11.101562 9.203125 -10.34375 C 8.691406 -9.582031 8.132812 -8.882812 7.53125 -8.25 C 6.925781 -7.625 6.382812 -7.023438 5.90625 -6.453125 C 5.425781 -5.890625 5.046875 -5.328125 4.765625 -4.765625 C 4.484375 -4.210938 4.394531 -3.625 4.5 -3 L 10.734375 -3 L 10.734375 0 L 1.203125 0 L 1.203125 -2.578125 C 1.203125 -3.597656 1.359375 -4.5 1.671875 -5.28125 C 1.992188 -6.0625 2.398438 -6.773438 2.890625 -7.421875 C 3.378906 -8.078125 3.90625 -8.6875 4.46875 -9.25 C 5.03125 -9.820312 5.554688 -10.425781 6.046875 -11.0625 C 6.535156 -11.707031 6.9375 -12.410156 7.25 -13.171875 C 7.570312 -13.929688 7.734375 -14.820312 7.734375 -15.84375 Z M 7.734375 -15.84375 "/></g></g></g></svg>